<svg xmlns="http://www.w3.org/2000/svg" width="17" height="17.163265306122454" fill="none" style=""><rect id="backgroundrect" width="100%" height="100%" x="0" y="0" fill="none" stroke="none" class="" style=""/>



<g class="currentLayer" style=""><title>Layer 1</title><path d="M8.581632651388645,16.90816330909729 C13.276032651388645,16.90816330909729 17.081632651388645,13.102563309097292 17.081632651388645,8.40816330909729 C17.081632651388645,3.71374330909729 13.276032651388645,-0.09183669090270996 8.581632651388645,-0.09183669090270996 C3.887212651388645,-0.09183669090270996 0.08163265138864517,3.71374330909729 0.08163265138864517,8.40816330909729 C0.08163265138864517,13.102563309097292 3.887212651388645,16.90816330909729 8.581632651388645,16.90816330909729 z" fill="#F0F0F0" id="svg_1" class=""/><path d="M16.552932651388645,11.36436330909729 C16.894632651388644,10.44356330909729 17.081632651388645,9.44756330909729 17.081632651388645,8.40786330909729 C17.081632651388645,7.368163309097291 16.894632651388644,6.372203309097291 16.552932651388645,5.45137330909729 H0.6103256513886453 C0.2686656513886452,6.372203309097291 0.08163265138864517,7.368163309097291 0.08163265138864517,8.40786330909729 C0.08163265138864517,9.44756330909729 0.2686656513886452,10.44356330909729 0.6103256513886453,11.36436330909729 L8.581632651388645,12.10356330909729 L16.552932651388645,11.36436330909729 z" fill="#0052B4" id="svg_2" class=""/><path d="M8.582232651388646,16.90846330909729 C12.236932651388646,16.90846330909729 15.352532651388644,14.60176330909729 16.553532651388647,11.36496330909729 H0.6109296513886452 C1.8119226513886453,14.60176330909729 4.9275326513886455,16.90846330909729 8.582232651388646,16.90846330909729 z" fill="#D80027" id="svg_3" class=""/></g></svg>