<svg width="17" height="18" viewBox="0 0 17 18" fill="none" xmlns="http://www.w3.org/2000/svg">
<path d="M8.5 17.5C13.1944 17.5 17 13.6944 17 9C17 4.30558 13.1944 0.5 8.5 0.5C3.80558 0.5 0 4.30558 0 9C0 13.6944 3.80558 17.5 8.5 17.5Z" fill="#F0F0F0"/>
<path d="M1.75726 3.8252C1.08958 4.69389 0.586119 5.69513 0.292969 6.78283H4.71489L1.75726 3.8252Z" fill="#0052B4"/>
<path d="M16.707 6.7828C16.4139 5.69513 15.9104 4.69389 15.2427 3.8252L12.2852 6.7828H16.707Z" fill="#0052B4"/>
<path d="M0.292969 11.2175C0.586152 12.3052 1.08961 13.3064 1.75726 14.1751L4.7148 11.2175H0.292969Z" fill="#0052B4"/>
<path d="M13.6744 2.25729C12.8057 1.58961 11.8045 1.08615 10.7168 0.792969V5.21486L13.6744 2.25729Z" fill="#0052B4"/>
<path d="M3.32617 15.7429C4.19487 16.4106 5.19611 16.9141 6.28377 17.2073V12.7854L3.32617 15.7429Z" fill="#0052B4"/>
<path d="M6.28374 0.792969C5.19607 1.08615 4.19483 1.58961 3.32617 2.25726L6.28374 5.21483V0.792969Z" fill="#0052B4"/>
<path d="M10.7168 17.2073C11.8045 16.9141 12.8057 16.4106 13.6744 15.743L10.7168 12.7854V17.2073Z" fill="#0052B4"/>
<path d="M12.2852 11.2175L15.2427 14.1751C15.9104 13.3065 16.4139 12.3052 16.707 11.2175H12.2852Z" fill="#0052B4"/>
<path d="M16.928 7.89131H9.60875H9.60872V0.571951C9.24578 0.524703 8.87576 0.5 8.5 0.5C8.12417 0.5 7.75422 0.524703 7.39131 0.571951V7.89125V7.89128H0.0719512C0.0247031 8.25422 0 8.62424 0 9C0 9.37583 0.0247031 9.74578 0.0719512 10.1087H7.39125H7.39128V17.428C7.75422 17.4753 8.12417 17.5 8.5 17.5C8.87576 17.5 9.24578 17.4753 9.60869 17.428V10.1088V10.1087H16.928C16.9753 9.74578 17 9.37583 17 9C17 8.62424 16.9753 8.25422 16.928 7.89131Z" fill="#D80027"/>
<path d="M10.7168 11.2176L14.5098 15.0106C14.6842 14.8362 14.8507 14.6539 15.0094 14.4649L11.7621 11.2175H10.7168V11.2176Z" fill="#D80027"/>
<path d="M6.28326 11.2173H6.28319L2.49023 15.0102C2.66462 15.1847 2.84694 15.3511 3.03593 15.5099L6.28326 12.2625V11.2173Z" fill="#D80027"/>
<path d="M6.28287 6.7826V6.78253L2.48988 2.9895C2.31543 3.16388 2.14901 3.3462 1.99023 3.5352L5.2376 6.78256H6.28287V6.7826Z" fill="#D80027"/>
<path d="M10.7168 6.78266L14.5098 2.9896C14.3354 2.81515 14.1531 2.64873 13.9641 2.48999L10.7168 5.73736V6.78266Z" fill="#D80027"/>
</svg>
