<svg width="346" height="619" viewBox="0 0 346 619" fill="none" xmlns="http://www.w3.org/2000/svg">
<g style="mix-blend-mode:darken">
<path d="M360.33 517.375L2.18146 300.469L360.33 90.7242L652.394 314.385L360.33 517.375Z" fill="url(#paint0_linear_0_127)"/>
</g>
<path d="M197.183 69.2405C188.024 76.3274 182.785 87.9814 180.694 99.382C178.607 110.759 179.611 122.137 183.222 128.749C185.139 132.26 188.464 133.915 192.311 133.862C196.113 133.81 200.41 132.099 204.496 128.968C212.684 122.692 220.238 110.562 221.657 93.5639C222.227 86.7321 221.898 81.1372 220.849 76.7435C219.801 72.354 218.019 69.1045 215.634 67.0528C210.751 62.8511 203.907 64.037 197.183 69.2405Z" fill="white" stroke="#7A97FF" stroke-width="1.83584" stroke-linecap="round" stroke-linejoin="round"/>
<path d="M197.196 137.097L187.991 132.68L194.375 127.187L197.53 133.756L197.196 137.097Z" fill="white"/>
<path d="M224.781 70.5983L211.665 65.6593V65.9209L216.44 73.6729L224.781 70.5983Z" fill="white"/>
<path d="M187.9 128.49C184.273 126.979 180.735 125.434 177.108 123.924L177.948 135.699L187.9 128.49Z" fill="white"/>
<path d="M159.719 150.347V155.611C159.719 156.023 159.972 156.393 160.357 156.543L171.923 161.035M159.719 133.182C163.346 134.692 167.593 136.147 171.22 137.657M159.719 133.182V127.77M159.719 133.182L156.119 135.218M176.27 95.4646L164.8 90.6921C164.524 90.577 164.21 90.5921 163.946 90.7331L158.188 93.8047M158.188 93.8047L169.676 98.442M158.188 93.8047L130.839 151.562M143.007 161.766L131.468 157.154C131.088 157.003 130.839 156.635 130.839 156.226L130.839 151.562M130.839 151.562L142.596 156.233M171.22 123.608C168.838 122.616 167.143 121.91 165.233 121.115M167.576 116.026C171.203 117.536 173.825 118.828 177.452 120.339M177.108 123.924C180.735 125.434 184.273 126.979 187.9 128.49L177.948 135.699L177.108 123.924Z" stroke="#7A97FF" stroke-width="1.83584" stroke-linecap="round" stroke-linejoin="round"/>
<path d="M293.169 80.3719L283.963 75.9551L290.348 70.4615L293.503 77.0314L293.169 80.3719Z" fill="white"/>
<path d="M320.753 13.8733L307.637 8.93431V9.19592L312.412 16.9478L320.753 13.8733Z" fill="white"/>
<path d="M283.872 71.7646C280.245 70.2543 276.708 68.7092 273.081 67.1988L273.92 78.974L283.872 71.7646Z" fill="white"/>
<path d="M255.691 93.6218V98.8855C255.691 99.2981 255.944 99.6683 256.329 99.8177L267.895 104.31M255.691 76.4565C259.318 77.9668 263.565 79.4219 267.192 80.9323M255.691 76.4565V71.045M255.691 76.4565L252.091 78.4932M272.243 38.7396L260.773 33.9671C260.496 33.852 260.182 33.867 259.918 34.0081L254.16 37.0797M254.16 37.0797L265.648 41.717M254.16 37.0797L226.812 94.8365M238.979 105.041L227.44 100.429C227.061 100.278 226.811 99.9099 226.811 99.5009L226.812 94.8365M226.812 94.8365L238.568 99.5083M267.192 66.883C264.81 65.8911 263.115 65.1854 261.205 64.3899M263.548 59.301C267.175 60.8114 269.797 62.1033 273.424 63.6136M273.081 67.1988C276.708 68.7092 280.245 70.2543 283.872 71.7646L273.92 78.974L273.081 67.1988Z" stroke="#7A97FF" stroke-width="1.83584" stroke-linecap="round" stroke-linejoin="round"/>
<path d="M142.451 156.088C142.394 156.21 142.364 156.344 142.364 156.48V160.928C142.364 161.258 142.54 161.562 142.827 161.726C143.113 161.889 143.465 161.886 143.749 161.718L171.243 145.452V160.201C171.243 160.535 171.424 160.842 171.715 161.004C172.007 161.166 172.363 161.157 172.646 160.981L177.845 157.747C178.115 157.579 178.279 157.285 178.279 156.968V141.386L188.036 135.628C188.316 135.463 188.487 135.163 188.487 134.838V129.131C188.487 128.799 188.308 128.493 188.019 128.331C187.73 128.168 187.375 128.175 187.092 128.347L178.279 133.712V121.078C178.279 120.751 178.104 120.448 177.821 120.284C177.538 120.12 177.188 120.119 176.904 120.282L171.705 123.262C171.419 123.426 171.243 123.729 171.243 124.058V137.801L152.01 149.144L176.859 96.5507C177.027 96.1955 176.95 95.7728 176.668 95.4994C176.386 95.2259 175.961 95.1625 175.611 95.3415L169.982 98.2217C169.802 98.3141 169.657 98.4636 169.57 98.647L142.451 156.088ZM238.373 99.3522C238.315 99.4747 238.285 99.6086 238.285 99.7441V104.193C238.285 104.522 238.462 104.827 238.749 104.99C239.035 105.153 239.387 105.151 239.671 104.983L267.165 88.716V103.466C267.165 103.799 267.346 104.106 267.637 104.268C267.928 104.43 268.285 104.421 268.568 104.245L273.767 101.011C274.037 100.844 274.2 100.549 274.2 100.232V84.6504L283.958 78.8929C284.238 78.7279 284.409 78.4272 284.409 78.1024V72.3956C284.409 72.0639 284.23 71.7579 283.941 71.5954C283.652 71.4329 283.297 71.439 283.014 71.6115L274.2 76.9763V64.3427C274.2 64.0153 274.026 63.7126 273.743 63.5485C273.459 63.3843 273.11 63.3835 272.826 63.5463L267.626 66.5265C267.341 66.6901 267.165 66.9939 267.165 67.3229V81.0655L247.932 92.4082L272.781 39.8152C272.949 39.4599 272.872 39.0372 272.59 38.7638C272.307 38.4904 271.882 38.4269 271.533 38.6059L265.904 41.4862C265.724 41.5786 265.579 41.7281 265.492 41.9115L238.373 99.3522ZM209.309 74.6501C200.15 81.7371 194.911 93.391 192.82 104.792C190.733 116.169 191.736 127.547 195.348 134.159C197.265 137.669 200.59 139.325 204.436 139.272C208.239 139.22 212.536 137.509 216.621 134.377C224.81 128.102 232.364 115.972 233.782 98.9736C234.353 92.1418 234.024 86.5469 232.975 82.1532C231.927 77.7637 230.144 74.5142 227.76 72.4625C222.877 68.2608 216.033 69.4467 209.309 74.6501Z" fill="#7A97FF" stroke="#7A97FF" stroke-width="1.83584" stroke-linecap="round" stroke-linejoin="round"/>
<path d="M209.406 83.7468C197.082 95.8762 196.911 120.083 201.583 126.734C206.107 133.173 224.357 130.157 226.757 97.8549C228.055 78.2334 218.313 74.9806 209.406 83.7468Z" fill="white" stroke="#7A97FF" stroke-width="1.83584" stroke-linecap="round" stroke-linejoin="round"/>
<path d="M217.372 79.4252C219.075 82.4751 219.877 86.9212 219.428 93.7123C217.712 116.815 207.887 124.938 200.776 125.334" stroke="#7A97FF" stroke-width="1.83584" stroke-linecap="round" stroke-linejoin="round"/>
<path d="M188.379 133.32C192.007 134.83 195.875 136.508 199.502 138.018" stroke="#7A97FF" stroke-width="1.83584" stroke-linecap="round" stroke-linejoin="round"/>
<path d="M211.995 65.2194C215.622 66.7718 221.775 69.6021 225.402 71.1545" stroke="#7A97FF" stroke-width="1.83584" stroke-linecap="round" stroke-linejoin="round"/>
<path d="M48.5384 155.626L115.246 117.326V200.135L48.5384 238.435V155.626Z" fill="#7A97FF"/>
<path d="M48.5384 155.626L115.246 117.326M48.5384 155.626V238.435M48.5384 155.626L31.4485 148.225M115.246 117.326V200.135L48.5384 238.435M115.246 117.326L98.1558 109.925L31.4485 148.225M48.5384 238.435L31.4485 231.034V148.225" stroke="#7A97FF" stroke-width="1.83584" stroke-linecap="round" stroke-linejoin="round"/>
<path d="M98.7651 188.35C90.2604 203.081 75.8849 210.703 66.6565 205.375C65.2791 204.58 64.0943 203.541 63.1034 202.3C57.4556 195.227 58.1109 181.588 65.3462 169.056C73.1574 155.527 85.9209 147.993 95.1004 150.983C95.9155 151.248 96.7022 151.597 97.4548 152.031C106.683 157.359 107.27 173.62 98.7651 188.35Z" fill="white"/>
<path d="M71.6311 182.262C70.7937 183.713 69.3783 184.463 68.4697 183.939C68.334 183.86 68.2174 183.758 68.1198 183.636C67.5637 182.939 67.6282 181.596 68.3406 180.362C69.1097 179.03 70.3665 178.289 71.2703 178.583C71.3505 178.609 71.428 178.643 71.5021 178.686C72.4107 179.211 72.4685 180.812 71.6311 182.262Z" fill="white"/>
<path d="M86.5223 173.393C85.6849 174.844 84.2695 175.594 83.3608 175.069C83.2252 174.991 83.1085 174.889 83.011 174.767C82.4549 174.07 82.5194 172.727 83.2318 171.493C84.0009 170.161 85.2576 169.42 86.1615 169.714C86.2417 169.74 86.3192 169.774 86.3933 169.817C87.3019 170.342 87.3597 171.943 86.5223 173.393Z" fill="white"/>
<path d="M93.0595 150.498C98.7073 157.571 98.052 171.211 90.8166 183.743C83.0055 197.272 70.242 204.805 61.0625 201.816M98.7651 188.35C90.2604 203.081 75.8849 210.703 66.6565 205.375C65.2791 204.58 64.0943 203.541 63.1034 202.3C57.4556 195.227 58.1109 181.588 65.3462 169.056C73.1574 155.527 85.9209 147.993 95.1004 150.983C95.9155 151.248 96.7022 151.597 97.4548 152.031C106.683 157.359 107.27 173.62 98.7651 188.35ZM71.6311 182.262C70.7937 183.713 69.3783 184.463 68.4697 183.939C68.334 183.86 68.2174 183.758 68.1198 183.636C67.5637 182.939 67.6282 181.596 68.3406 180.362C69.1097 179.03 70.3664 178.289 71.2703 178.583C71.3505 178.609 71.428 178.643 71.5021 178.686C72.4107 179.211 72.4685 180.812 71.6311 182.262ZM86.5223 173.393C85.6849 174.844 84.2695 175.594 83.3608 175.069C83.2252 174.991 83.1085 174.889 83.011 174.767C82.4549 174.07 82.5194 172.727 83.2318 171.493C84.0009 170.161 85.2576 169.42 86.1615 169.714C86.2417 169.74 86.3192 169.774 86.3933 169.817C87.3019 170.342 87.3597 171.943 86.5223 173.393Z" stroke="#7A97FF" stroke-width="1.83584" stroke-linecap="round" stroke-linejoin="round"/>
<path d="M71.631 182.262C70.7936 183.713 69.3782 184.463 68.4696 183.938C68.3339 183.86 68.2173 183.758 68.1197 183.636C67.5636 182.939 67.6282 181.596 68.3406 180.362C69.1097 179.03 70.3664 178.289 71.2702 178.583C71.3504 178.609 71.4279 178.643 71.502 178.686C72.4107 179.211 72.4684 180.812 71.631 182.262Z" fill="#7A97FF"/>
<path d="M86.5222 173.393C85.6848 174.843 84.2694 175.594 83.3607 175.069C83.2251 174.991 83.1085 174.889 83.0109 174.767C82.4548 174.07 82.5193 172.727 83.2317 171.493C84.0008 170.161 85.2575 169.419 86.1614 169.714C86.2416 169.74 86.3191 169.774 86.3932 169.817C87.3018 170.342 87.3596 171.943 86.5222 173.393Z" fill="#7A97FF"/>
<path d="M71.631 182.262C70.7936 183.713 69.3782 184.463 68.4696 183.938C68.3339 183.86 68.2173 183.758 68.1197 183.636C67.5636 182.939 67.6282 181.596 68.3406 180.362C69.1097 179.03 70.3664 178.289 71.2702 178.583C71.3504 178.609 71.4279 178.643 71.502 178.686C72.4107 179.211 72.4684 180.812 71.631 182.262Z" stroke="#7A97FF" stroke-width="1.83584" stroke-linecap="round" stroke-linejoin="round"/>
<path d="M86.5222 173.393C85.6848 174.843 84.2694 175.594 83.3607 175.069C83.2251 174.991 83.1085 174.889 83.0109 174.767C82.4548 174.07 82.5193 172.727 83.2317 171.493C84.0008 170.161 85.2575 169.419 86.1614 169.714C86.2416 169.74 86.3191 169.774 86.3932 169.817C87.3018 170.342 87.3596 171.943 86.5222 173.393Z" stroke="#7A97FF" stroke-width="1.83584" stroke-linecap="round" stroke-linejoin="round"/>
<path d="M144.656 273.126C144.581 273.1 144.506 273.075 144.431 273.05C135.252 270.061 122.488 277.594 114.677 291.123C107.442 303.655 106.786 317.295 112.434 324.368C112.596 324.571 112.764 324.768 112.936 324.961M144.656 273.126C145.391 273.38 146.102 273.704 146.785 274.098C151.774 276.978 154.237 283.052 154.104 290.353C156.805 296.039 157.903 303.16 155.122 310.26M144.656 273.126C143.774 272.144 142.756 271.309 141.605 270.644C140.852 270.209 140.065 269.861 139.25 269.595C131.867 267.191 122.164 271.594 114.585 280.45M112.936 324.961C113.818 325.942 114.835 326.777 115.987 327.443C120.736 330.184 126.849 329.497 132.823 326.175C139.821 325.64 147.382 322.667 152.327 315.466M112.936 324.961C112.201 324.706 111.49 324.382 110.806 323.988C109.429 323.192 108.244 322.154 107.253 320.913C103.421 316.114 102.491 308.293 104.548 299.846M114.585 280.45L108.042 276.556C106.634 275.602 105.12 276.694 104.548 277.662C103.83 278.877 103.608 280.649 104.906 281.714L110.965 285.281M114.585 280.45C113.311 281.939 112.098 283.553 110.965 285.281M110.965 285.281C110.459 286.054 109.968 286.85 109.496 287.668C108.313 289.717 107.307 291.794 106.475 293.868M106.475 293.868L93.6255 285.703C92.2167 284.749 90.703 285.841 90.1313 286.809C89.4136 288.025 89.1913 289.796 90.4888 290.861L104.548 299.846M106.475 293.868C105.669 295.875 105.028 297.877 104.548 299.846" stroke="white" stroke-width="1.83584" stroke-linecap="round" stroke-linejoin="round"/>
<path d="M143.164 278.964C135.601 276.501 125.086 282.707 118.651 293.853C112.691 304.177 112.151 315.414 116.804 321.241C117.62 322.263 118.596 323.119 119.731 323.774C122.829 325.563 127.647 326.57 132.823 326.175C139.821 325.64 147.382 322.666 152.327 315.465L155.122 310.26C157.903 303.159 156.805 296.039 154.104 290.352C151.8 285.498 148.327 281.689 145.103 279.828C144.483 279.47 143.835 279.183 143.164 278.964Z" fill="white"/>
<path d="M141.605 270.643C140.852 270.209 140.065 269.86 139.25 269.595C131.866 267.19 122.164 271.594 114.585 280.45C113.311 281.938 112.098 283.552 110.965 285.281C110.459 286.054 109.968 286.85 109.496 287.668C108.313 289.716 107.307 291.794 106.474 293.868C105.669 295.874 105.028 297.877 104.548 299.846C102.491 308.293 103.421 316.114 107.253 320.912C108.244 322.153 109.429 323.192 110.806 323.987C111.49 324.382 112.201 324.705 112.936 324.96C112.764 324.768 112.596 324.57 112.434 324.367C106.786 317.294 107.441 303.655 114.677 291.123C122.488 277.594 135.251 270.06 144.431 273.05C144.506 273.074 144.581 273.099 144.655 273.125C143.774 272.144 142.756 271.308 141.605 270.643Z" fill="white" stroke="white" stroke-width="1.83584" stroke-linecap="round" stroke-linejoin="round"/>
<path d="M151.938 305.027C150.266 304.483 147.942 305.855 146.519 308.319C145.202 310.601 145.082 313.085 146.111 314.373C146.291 314.599 146.507 314.789 146.758 314.933C147.498 315.361 148.504 315.133 148.978 314.82C151.539 313.126 152.992 310.274 152.992 310.274C152.992 310.274 154.007 308.462 153.537 306.823C153.333 306.116 152.942 305.55 152.367 305.218C152.23 305.139 152.087 305.075 151.938 305.027Z" fill="#7A97FF" stroke="#7A97FF" stroke-width="2" stroke-linecap="round" stroke-linejoin="round"/>
<path d="M183.766 263.972C184.664 270.448 189.469 277.397 197.964 282.727L279.023 334.517C286.691 339.495 292.158 344.637 294.544 351.043C296.98 357.583 296.076 364.545 290.981 370.118C284.066 377.679 264.345 386.365 236.983 370.668L236.927 370.636L149.062 313.33C147.173 311.887 149.907 307.207 152.131 308.504L239.885 365.739C265.148 380.205 280.987 371.112 285.9 365.739C289.419 361.891 290.08 357.235 288.325 352.521C286.525 347.688 282.29 343.447 276.206 339.495L276.154 339.466L194.962 287.595L194.944 287.584C185.484 281.655 179.3 273.403 178.101 264.758C176.872 255.902 180.972 247.348 190.582 241.38C228.587 217.777 314.223 168.313 340.028 152.398C352.93 144.44 363.457 137.958 370.759 133.465L373.756 138.336C366.456 142.828 355.93 149.309 343.03 157.266C317.229 173.178 231.598 222.639 193.599 246.238C185.594 251.21 182.896 257.702 183.766 263.972Z" fill="white" stroke="white" stroke-width="1.83584" stroke-linecap="round" stroke-linejoin="round"/>
<defs>
<linearGradient id="paint0_linear_0_127" x1="147.916" y1="302.223" x2="372.432" y2="719.67" gradientUnits="userSpaceOnUse">
<stop stop-color="#7A97FF"/>
<stop offset="1" stop-color="white"/>
</linearGradient>
</defs>
</svg>
