<svg width="84" height="40" viewBox="0 0 84 40" fill="none" xmlns="http://www.w3.org/2000/svg">
<g opacity="0.4">
<g clip-path="url(#clip0_2431:23274)">
<path d="M6.04844 1.12223L0.625476 14.4999V14.5015H4.17512L5.1811 11.8523H11.1955L12.2999 14.5015H15.9089L9.93229 1.12223H6.04844ZM8.04086 4.31883L10.2098 9.51775H6.06773L8.04086 4.31883ZM29.0195 1.12175H31.9381V14.5013H28.585V6.14414L24.9563 10.3414H24.4441L20.8156 6.14414V14.5013H17.4627V1.12175H20.3813L24.6999 6.0849L29.0195 1.12175ZM37.8503 12.0494H40.0395C43.4112 12.0494 44.4179 9.7732 44.4179 7.81116C44.4179 5.51572 43.1749 3.57453 40 3.57453H37.8503V12.0494ZM40.4338 1.12199C45.3448 1.12199 47.8685 4.1622 47.8685 7.8313C47.8685 11.6758 45.4239 14.5013 40.0588 14.5013H34.4972V1.12199H40.4338ZM61.4748 4.29442H54.5392L50.3114 0.0878906H65.702V15.3991L61.4746 11.1926L61.4748 4.29442ZM54.5342 11.198V5.13753L50.1811 9.46681V15.5283H56.2729L60.6251 11.198H54.5342ZM0.625 25.9076H18.114V22.4262H0.625V25.9076ZM0.625 29.3883V39.8319H18.114V36.351H4.12509V32.87H18.114V29.3883H0.625ZM53.0711 29.3298L48.0624 22.4257H43.7388L51.3045 32.8686V39.8319H54.8015V32.8684L62.4051 22.4257H58.0805L53.0711 29.3298ZM65.6141 36.3486C65.6141 38.273 67.1815 39.8319 69.1158 39.8319H83.1231V36.3486H69.3638C69.3312 36.3486 69.2989 36.3421 69.2688 36.3297C69.2387 36.3172 69.2113 36.299 69.1883 36.276C69.1653 36.253 69.1471 36.2258 69.1347 36.1958C69.1223 36.1658 69.116 36.1337 69.116 36.1012V26.156C69.116 26.0906 69.1421 26.0279 69.1886 25.9817C69.2351 25.9355 69.2981 25.9095 69.3638 25.9095H83.1231V22.4262H69.116C67.1813 22.4262 65.6143 23.9859 65.6143 25.9095L65.6141 36.3486ZM37.6162 22.426H23.6173V25.9076H37.3682C37.4339 25.9076 37.4969 25.9336 37.5434 25.9798C37.5898 26.026 37.6159 26.0887 37.6159 26.1541V29.1419C37.6159 29.2073 37.5898 29.27 37.5434 29.3162C37.4969 29.3624 37.4339 29.3883 37.3682 29.3883H23.6173V39.8319H27.1166V32.8693H37.6162C39.5491 32.8693 41.1163 31.3111 41.1163 29.3883V25.9074C41.1163 23.984 39.5488 22.426 37.6162 22.426Z" fill="black"/>
</g>
</g>
<defs>
<clipPath id="clip0_2431:23274">
<rect width="83.5512" height="40" fill="white"/>
</clipPath>
</defs>
</svg>
