<svg width="92" height="26" viewBox="0 0 92 26" fill="none" xmlns="http://www.w3.org/2000/svg">
<g clip-path="url(#clip0_168_354)">
<path d="M56.7282 4.40177H64.3915V8.49775C65.0399 6.92632 65.9088 5.80574 66.998 5.13595C68.0872 4.4404 69.3967 4.10551 70.9269 4.13126V8.90624V11.2413C70.5737 11.2199 70.2342 11.2099 69.909 11.2112C68.2758 11.218 66.9941 11.5114 66.0642 12.0914C64.9492 12.7612 64.3915 13.8303 64.3915 15.2986V24.6113H56.7282V4.40177Z" fill="#888888"/>
<path fill-rule="evenodd" clip-rule="evenodd" d="M90.9683 19.2718L80.2316 25.1099C78.8049 25.0751 77.4644 24.8576 76.2105 24.4582C74.836 23.9944 73.63 23.3246 72.5927 22.4488C71.5813 21.5471 70.7774 20.4652 70.1808 19.2029C69.6104 17.9149 69.3251 16.4336 69.3251 14.7592V14.4501C69.3251 12.8013 69.6104 11.333 70.1808 10.0449C70.7774 8.73113 71.5813 7.6234 72.5927 6.72176C73.604 5.79436 74.7971 5.08594 76.1716 4.59649C77.5721 4.10703 79.0762 3.8623 80.684 3.8623C82.266 3.8623 83.7443 4.10703 85.1188 4.59649C86.4933 5.06018 87.6862 5.74285 88.6975 6.64449C89.7091 7.52035 90.5001 8.6023 91.0705 9.89037C91.6671 11.1784 91.9653 12.6339 91.9653 14.2568V14.566C91.9653 16.2404 91.6671 17.7346 91.0705 19.0484C91.0373 19.1235 91.0032 19.198 90.9683 19.2718ZM84.1851 14.6046C84.1851 17.8763 83.0181 19.5121 80.684 19.5121C78.2721 19.5121 77.0662 17.8505 77.0662 14.5273V14.2182C77.0662 12.621 77.3775 11.436 77.9999 10.6632C78.6224 9.86459 79.517 9.46531 80.684 9.46531C81.877 9.46531 82.7588 9.87747 83.3294 10.7018C83.8998 11.5262 84.1851 12.7369 84.1851 14.3341V14.6046Z" fill="#888888"/>
<path d="M29.3487 4.40232H21.6852V24.6118H29.3487V13.4444C29.3487 12.2336 29.608 11.3449 30.1266 10.7781C30.6712 10.2114 31.4232 9.92803 32.3828 9.92803C33.2905 9.92803 33.9389 10.1856 34.3279 10.7009C34.7428 11.2161 34.9503 11.9889 34.9503 13.0193V24.5655L42.6138 20.3984V11.3191C42.6138 10.0568 42.4452 8.962 42.1081 8.03461C41.7968 7.10721 41.3561 6.33437 40.7854 5.71612C40.2148 5.09784 39.5277 4.63416 38.7236 4.32503C37.9197 4.01589 37.038 3.86133 36.0784 3.86133C34.3668 3.86133 32.9534 4.22198 31.8382 4.94328C30.749 5.66458 29.9191 6.56622 29.3487 7.64818V4.40232Z" fill="#888888"/>
<path fill-rule="evenodd" clip-rule="evenodd" d="M8.78333 9.63067C9.13885 9.28764 9.69578 9.11615 10.4542 9.11615C10.9728 9.11615 11.3878 9.19342 11.699 9.348C12.0102 9.4768 12.2436 9.68287 12.3992 9.96626C12.5807 10.2239 12.6974 10.533 12.7493 10.8937C12.8012 11.2543 12.8271 11.6407 12.8271 12.0529V12.4007H11.0766C7.54956 12.4007 4.83947 12.9159 2.9463 13.9463C1.07907 14.951 0.145447 16.6383 0.145447 19.0083C0.145447 20.0903 0.326984 21.0177 0.690058 21.7906C1.07907 22.5633 1.58478 23.1946 2.20719 23.6839C2.85553 24.1734 3.59466 24.5341 4.42454 24.766C5.28035 24.9977 6.16211 25.1137 7.06978 25.1137C7.89966 25.1137 8.62583 25.0236 9.24824 24.8431C9.89657 24.6887 10.4671 24.4826 10.9599 24.225C11.4526 23.9673 11.8676 23.671 12.2047 23.3362C12.5418 23.0013 12.8141 22.6536 13.0216 22.2929V24.6114H20.4128V11.5505C20.4128 8.89718 19.5699 6.95222 17.8842 5.71569C16.1985 4.45342 13.8774 3.82227 10.921 3.82227C9.46868 3.82227 8.13307 3.97682 6.91419 4.28596C6.55103 4.38006 6.20232 4.48968 5.86801 4.61483L8.78333 9.63067ZM11.9713 19.3561C11.4267 19.794 10.7135 20.013 9.83175 20.013C9.13153 20.013 8.59988 19.8713 8.23681 19.588C7.87374 19.3046 7.69221 18.9182 7.69221 18.4287C7.69221 17.7074 7.95154 17.2051 8.47021 16.9217C8.9889 16.6383 9.89657 16.4967 11.1933 16.4967H12.8271V17.54C12.8271 18.287 12.5418 18.8924 11.9713 19.3561Z" fill="#888888"/>
<path d="M51.4022 25.1134C48.9904 25.1134 47.136 24.5466 45.8393 23.4132C44.5426 22.2798 43.8944 20.4378 43.8944 17.8875V0.305664H51.5577V4.4403H55.4479V11.3633H51.5577V17.1533C51.5577 17.8489 51.7263 18.3512 52.0634 18.6603C52.4265 18.9695 52.9193 19.124 53.5417 19.124C54.216 19.124 54.8513 19.021 55.4479 18.8149V24.5338C54.9809 24.6626 54.3974 24.7914 53.6974 24.9202C52.9971 25.0491 52.2321 25.1134 51.4022 25.1134Z" fill="#888888"/>
</g>
<defs>
<clipPath id="clip0_168_354">
<rect width="92" height="25" fill="white" transform="translate(0.000366211 0.128906)"/>
</clipPath>
</defs>
</svg>
