<svg width="24" height="24" viewBox="0 0 24 24" fill="none" xmlns="http://www.w3.org/2000/svg">
<g clip-path="url(#clip0_1557_3496)">
<path fill-rule="evenodd" clip-rule="evenodd" d="M4.57195 3.3301C3.16863 3.51842 2.18367 4.8087 2.37199 6.21202C2.56031 7.61534 3.85059 8.6003 5.25391 8.41198C6.65724 8.22366 7.64219 6.93338 7.45388 5.53006C7.26556 4.12674 5.97528 3.14178 4.57195 3.3301ZM0.786205 6.42482C0.480359 4.1457 2.08002 2.05016 4.35915 1.74431C6.33239 1.47951 8.16801 2.64306 8.82368 4.43927C13.0966 3.44903 17.4201 5.04506 19.8243 9.03595L20.1335 8.31163C20.307 7.90529 20.7771 7.71651 21.1834 7.88998C21.5898 8.06346 21.7785 8.5335 21.6051 8.93985L20.6208 11.2454C20.4661 11.6078 20.0706 11.8035 19.6887 11.7068L17.2163 11.0809C16.788 10.9725 16.5287 10.5374 16.6371 10.1091C16.7455 9.68074 17.1806 9.42143 17.609 9.52986L18.3674 9.72186C16.2958 6.41566 12.6844 5.14243 9.07451 6.02412C9.00365 8.01493 7.50761 9.72389 5.46672 9.99777C3.18759 10.3036 1.09205 8.70395 0.786205 6.42482Z" fill="#00FFC2"/>
<path fill-rule="evenodd" clip-rule="evenodd" d="M19.1469 21.4031C20.5499 21.2123 21.5326 19.9203 21.3418 18.5173C21.1511 17.1143 19.8591 16.1316 18.4561 16.3224C17.0531 16.5132 16.0704 17.8052 16.2612 19.2082C16.4519 20.6112 17.744 21.5939 19.1469 21.4031ZM22.9273 18.3017C23.2371 20.5803 21.6411 22.6787 19.3625 22.9885C17.389 23.2569 15.5506 22.0955 14.8925 20.2993C10.6095 21.2755 6.33102 19.4536 3.93204 15.4723L3.66044 16.1554C3.4972 16.566 3.03204 16.7665 2.62147 16.6032C2.2109 16.44 2.01041 15.9748 2.17365 15.5643L3.10086 13.2322C3.25103 12.8546 3.66052 12.6495 4.05289 12.7555L6.53726 13.4266C6.9638 13.5418 7.21617 13.981 7.10095 14.4076C6.98573 14.8341 6.54654 15.0865 6.12 14.9712L5.37797 14.7708C7.46664 18.1317 11.0705 19.5709 14.6397 18.7151C14.708 16.725 16.2007 15.0144 18.2405 14.737C20.5191 14.4272 22.6174 16.0232 22.9273 18.3017Z" fill="#00FFC2"/>
</g>
<defs>
<clipPath id="clip0_1557_3496">
<rect width="24" height="24" fill="white"/>
</clipPath>
</defs>
</svg>
