<svg width="40" height="40" viewBox="0 0 40 40" fill="none" xmlns="http://www.w3.org/2000/svg">
<circle cx="20" cy="20" r="20" fill="#F3F6FF"/>
<path d="M15.6083 10.2258H19.0132M26.2254 13.2397C26.7346 13.6184 27.1945 13.9304 27.6349 14.1891M26.2254 13.2397L27.6349 14.1891M26.2254 13.2397C25.8001 13.5609 25.4097 13.833 25.0388 14.0644M27.6349 14.1891C28.9558 14.965 30.1024 15.2616 31.8816 15.438V21.3092C31.8816 24.4886 29.47 26.0012 27.6349 26.9895C26.8428 27.4162 25.8625 27.4523 25.0388 27.0973M23.9968 19.7976L26.2254 22.2472L29.2023 18.2666M25.0388 14.0644C23.5639 14.9845 22.3976 15.2624 20.5692 15.438V21.3092C20.5692 24.4891 22.9815 26.0016 24.8166 26.9899C24.8892 27.029 24.9633 27.0648 25.0388 27.0973M25.0388 14.0644V9.78943C25.0388 8.66309 24.1257 7.75 22.9993 7.75V7.75H12.5469C10.89 7.75 9.54688 9.09315 9.54688 10.75V29.2501C9.54688 30.907 10.89 32.2501 12.5469 32.2501H22.0388C23.6956 32.2501 25.0388 30.907 25.0388 29.2501V27.0973" stroke="#4A70F8" stroke-width="1.6" stroke-linecap="round" stroke-linejoin="round"/>
<circle cx="17.3445" cy="29.1259" r="1.41465" transform="rotate(-12.7584 17.3445 29.1259)" fill="#4A70F8"/>
</svg>
