<svg width="47" height="44" viewBox="0 0 47 44" fill="none" xmlns="http://www.w3.org/2000/svg">
<path d="M19.1775 24.2272C19.1775 25.5304 18.7905 26.535 18.0167 27.241C17.2429 27.9469 16.0754 28.2999 14.5142 28.2999H11.7855V29.6235H16.1636V31.4563H11.7855V34.0017H9.19927V31.4563H7.79418V29.6235H9.19927V28.2999H7.79418V26.2839H9.19927V19.9508H14.5142C16.0754 19.9508 17.2429 20.3309 18.0167 21.0912C18.7905 21.8378 19.1775 22.8832 19.1775 24.2272ZM16.4691 23.9421C16.4691 23.3447 16.2926 22.8832 15.9396 22.5573C15.6002 22.2315 15.0436 22.0686 14.2698 22.0686H11.7855V26.2839H14.2698C15.0572 26.2839 15.6206 26.121 15.96 25.7952C16.2994 25.4693 16.4691 25.0621 16.4691 24.5733V23.9421Z" fill="#007CFF"/>
<rect x="1" y="12.0017" width="45" height="30" rx="4" stroke="#007CFF" stroke-width="2"/>
<path d="M44 13.0015L44 11.0015C44 8.24004 41.7614 6.00147 39 6.00147L8 6.00147C5.23858 6.00147 3 8.24004 3 11.0015L3 13.0015" stroke="#007CFF" stroke-width="2"/>
<path d="M39 6.00146V6.00146C39 3.24004 36.7614 1.00147 34 1.00147L13 1.00147C10.2386 1.00147 8 3.24004 8 6.00146V6.00146" stroke="#007CFF" stroke-width="2"/>
<path d="M25 18.5017H40" stroke="#007CFF" stroke-width="2" stroke-linecap="round"/>
<path d="M25 26.0017H40" stroke="#007CFF" stroke-width="2" stroke-linecap="round"/>
<path d="M21 35.0017L40 35.0017" stroke="#007CFF" stroke-width="2" stroke-linecap="round"/>
</svg>
