<svg width="150" height="41" viewBox="0 0 150 41" fill="none" xmlns="http://www.w3.org/2000/svg">
<mask id="mask0_129_433" style="mask-type:alpha" maskUnits="userSpaceOnUse" x="8" y="6" width="22" height="29">
<path d="M17.6073 13.2346H20.1117C20.2856 13.2362 20.4586 13.2593 20.6272 13.3033L20.7666 9.30604L17.6073 13.2346Z" fill="#7B7B7B"/>
<path d="M22.0653 10.1147L20.7644 9.30604L20.7489 9.4641L20.6361 13.3079C20.6936 13.3216 20.7489 13.3399 20.8042 13.3583L21.2578 12.9207L22.0675 11.2348L22.2356 10.5476L22.0653 10.1147Z" fill="#7B7B7B"/>
<path d="M22.7824 9.26265C22.5603 9.26239 22.3385 9.27847 22.1186 9.31076V10.1789L22.2248 10.3347L23.2713 10.4744L24.6386 10.4928L25.9173 10.4378C25.0385 9.67615 23.9284 9.26001 22.7824 9.26265Z" fill="#7B7B7B"/>
<path d="M25.8639 10.4123L22.1162 10.2016L20.6361 13.2688V13.3054C20.7112 13.3234 20.7851 13.3464 20.8573 13.3742L22.6648 12.9344L24.5719 11.6722L26.2445 10.7078L25.8639 10.4123Z" fill="#7B7B7B"/>
<path d="M25.9458 10.4653C25.9219 10.4469 25.899 10.427 25.8772 10.4058L20.6361 13.3079C21.1294 13.4362 21.5673 13.729 21.8806 14.1439C22.1939 14.5587 22.3648 15.0699 22.3662 15.5965L22.4812 15.6079L24.0166 14.5565L25.5188 12.4949L26.0255 10.6623L25.9458 10.4653Z" fill="#7B7B7B"/>
<path d="M25.8772 10.4058L22.3685 15.6377L24.8994 16.1646L27.0278 15.2483L27.6472 15.0192C27.6766 14.7976 27.6914 14.5741 27.6915 14.3504C27.6905 13.5947 27.5273 12.8487 27.2135 12.1665C26.8997 11.4843 26.4432 10.8828 25.8772 10.4058Z" fill="#7B7B7B"/>
<path d="M27.6915 14.302L22.3818 15.6031L22.3508 15.642C22.3495 15.7625 22.3391 15.8828 22.3198 16.0016L22.6539 17.0393L24.0389 18.8971L24.7269 19.0414C25.6091 18.6461 26.3604 17.9922 26.8879 17.1602C27.4155 16.3282 27.6964 15.3545 27.6959 14.3592C27.6922 14.3404 27.6907 14.3212 27.6915 14.302Z" fill="#7B7B7B"/>
<path d="M22.1206 16.6502C21.9464 17.021 21.6812 17.338 21.3516 17.5695C21.022 17.8011 20.6395 17.939 20.2423 17.9696H17.3817L20.583 21.7286L20.5963 21.7424L20.7423 21.7309L21.0034 21.4514L21.9835 18.7691L22.2534 17.2251L22.1206 16.6502Z" fill="#7B7B7B"/>
<path d="M22.3531 15.5596V15.6054C22.3519 16.0983 22.2027 16.5786 21.9261 16.9798L20.5987 21.7444C20.7074 21.7325 20.8167 21.7264 20.9261 21.7261C21.1698 21.7255 21.4125 21.7594 21.6473 21.8269H22.0743L23.4593 20.6174L24.3708 19.724L24.8398 19.0781L22.3531 15.5596Z" fill="#7B7B7B"/>
<path d="M25.4657 19.8753L25.0874 19.1354C25.01 19.1125 24.9347 19.0896 24.8662 19.0713L20.6361 21.7491C20.7319 21.7399 20.8271 21.7353 20.9215 21.7353C21.6518 21.7371 22.3516 22.039 22.8672 22.5745C23.3828 23.1101 23.6721 23.8356 23.6715 24.5918C23.6715 24.6743 23.6715 24.7567 23.6604 24.8369L24.8286 24.1497L25.6051 22.6928L25.4657 19.8753Z" fill="#7B7B7B"/>
<path d="M24.8398 19.0642L23.6606 24.5481V24.5893C23.6606 24.6773 23.6561 24.7652 23.6474 24.8527L25.5677 25.5285L29.2646 25.5835C29.2757 25.4369 29.2801 25.2903 29.2801 25.1414C29.2834 23.7651 28.851 22.4256 28.049 21.3281C27.2471 20.2305 26.1198 19.4353 24.8398 19.0642Z" fill="#7B7B7B"/>
<path d="M29.2645 24.6492L23.6694 24.5805C23.67 24.8995 23.6184 25.2163 23.5167 25.5174L23.6539 26.6627L24.2623 28.2777L25.5433 30.2064L26.2778 30.5729C27.1931 30.0146 27.9515 29.2181 28.4778 28.2626C29.004 27.307 29.2798 26.2256 29.2778 25.1257C29.2778 24.9722 29.2645 24.8096 29.2645 24.6492Z" fill="#7B7B7B"/>
<path d="M23.667 24.5825C23.6676 24.9571 23.5969 25.328 23.459 25.6743C23.3212 26.0205 23.1188 26.3352 22.8634 26.6005C22.608 26.8657 22.3047 27.0763 21.9707 27.2202C21.6368 27.3641 21.2787 27.4384 20.917 27.439H20.5276L20.6493 28.9051L24.209 30.3253L25.7577 30.8522C25.9858 30.7412 26.2074 30.6166 26.4214 30.4788L23.667 24.5825Z" fill="#7B7B7B"/>
<path d="M20.7887 27.4438H20.3882L19.7865 30.3461L19.5409 31.4319H23.2467C24.37 31.4269 25.4696 31.0966 26.4214 30.4788L20.7887 27.4438Z" fill="#7B7B7B"/>
<path d="M20.7843 27.4459H17.094L17.0232 27.4917L17.4214 28.6989L18.8396 31.0102L19.5121 31.4363H20.2754L20.2732 31.4248L20.7843 27.4459Z" fill="#7B7B7B"/>
<path d="M17.0962 27.4393L16.8573 27.5996L16.8241 27.6592L16.1161 29.3062L15.9502 29.6681V31.4297H20.271L17.0962 27.4393Z" fill="#7B7B7B"/>
<path d="M15.9569 28.2387V31.3747L17.1007 27.4507L15.9569 28.2387Z" fill="#7B7B7B"/>
<path d="M10.3418 9.24642L8.27546 11.3928L11.5808 11.4775L10.3418 9.24642Z" fill="#7B7B7B"/>
<path d="M12.572 9.24642L11.9128 11.221L14.5543 10.9621L12.572 9.24642Z" fill="#7B7B7B"/>
<path d="M8.19592 29.5695L10.0034 31.4662L11.0853 29.4939L8.19592 29.5695Z" fill="#7B7B7B"/>
<path d="M19.3442 6.87102V8.90516L20.9415 6.87102H19.3442Z" fill="#7B7B7B"/>
<path d="M12.9194 7.09102L15.4703 8.61662L15.5278 7.20555L12.9194 7.09102Z" fill="#7B7B7B"/>
<path d="M19.7579 31.7227L19.676 33.6972H21.4924L19.7579 31.7227Z" fill="#7B7B7B"/>
<path d="M20.749 32.238L22.4835 34.2103V32.238H20.749Z" fill="#7B7B7B"/>
<path d="M12.771 31.8876L12.6582 33.6881L15.0498 33.8187L12.771 31.8876Z" fill="#7B7B7B"/>
<path d="M12.4061 25.5059L12.7535 29.0107L15.6827 26.7062L12.4061 25.5059Z" fill="#7B7B7B"/>
<path d="M10.5521 27.6819L11.5631 29.6313L11.968 27.7185L10.5521 27.6819Z" fill="#7B7B7B"/>
<path d="M17.353 23.8794L14.9724 24.9995L17.4216 26.1746L17.353 23.8794Z" fill="#7B7B7B"/>
<path d="M13.6052 23.5977L12.8287 24.8965L15.0411 24.5117L13.6052 23.5977Z" fill="#7B7B7B"/>
<path d="M10.8198 22.5989L10.8552 24.1932H12.0366L10.8198 22.5989Z" fill="#7B7B7B"/>
<path d="M17.2181 21.6506L16.5256 23.7054L18.2645 22.67L17.2181 21.6506Z" fill="#7B7B7B"/>
<path d="M13.8773 19.5661L14.8728 23.1579L16.8994 21.2314L13.8773 19.5661Z" fill="#7B7B7B"/>
<path d="M11.2932 21.6185L12.4238 22.3171L13.2003 20.9313L11.2932 21.6185Z" fill="#7B7B7B"/>
<path d="M17.4879 19.021L17.5211 20.7413L18.9901 20.7917L17.4879 19.021Z" fill="#7B7B7B"/>
<path d="M12.8625 18.1801L12.3241 19.4968L13.3211 19.2146L12.8625 18.1801Z" fill="#7B7B7B"/>
<path d="M16.8995 18.1801L13.977 17.4952L16.9327 20.2142L16.8995 18.1801Z" fill="#7B7B7B"/>
<path d="M10.2801 17.4609L10.8206 18.3739L11.5495 17.9358L10.2801 17.4609Z" fill="#7B7B7B"/>
<path d="M12.0013 15.6009L12.1207 17.8985L13.0654 17.2158L12.0013 15.6009Z" fill="#7B7B7B"/>
<path d="M13.2844 15.7084L16.999 17.4607L17.7092 14.0774L13.2844 15.7084Z" fill="#7B7B7B"/>
<path d="M10.7026 15.375L11.1258 15.7604L11.1413 14.6364L10.7026 15.375Z" fill="#7B7B7B"/>
<path d="M11.4797 12.4305L10.9901 13.0269L11.9184 13.5866L11.4797 12.4305Z" fill="#7B7B7B"/>
<path d="M13.0167 11.4295L13.8574 14.5677L15.6826 12.5519L13.0167 11.4295Z" fill="#7B7B7B"/>
<path d="M15.5477 28.5776L12.5255 30.8729L15.5654 33.4522L15.5477 28.5776Z" fill="#7B7B7B"/>
<path d="M11.7181 31.3539L10.8044 32.048H12.5433L11.7181 31.3539Z" fill="#7B7B7B"/>
<path d="M11.7313 6.90529L11.8176 8.51794L15.3795 9.09748L11.7313 6.90529Z" fill="#7B7B7B"/>
<path d="M20.2579 8.67619L21.811 9.62453V6.83447L20.2579 8.67619Z" fill="#7B7B7B"/>
<path d="M19.6452 9.23513L15.7094 9.18474L16.5346 9.77803H16.5169L16.5434 9.79864L16.466 9.9315C16.4337 9.95662 16.3933 9.96809 16.3532 9.96357L16.5279 10.7813L17.9815 11.1318L18.1076 11.1066L19.6518 9.23742L19.6452 9.23513Z" fill="#7B7B7B"/>
<path d="M16.5255 9.76431L16.072 10.2706L16.0454 11.3449L17.0521 12.181L17.103 12.268L17.1273 12.2818L18.3574 10.8043L16.5255 9.76431Z" fill="#7B7B7B"/>
<path d="M16.5301 9.77797L13.1363 9.2053L17.1186 12.2725L16.5301 9.77797ZM16.5301 9.76423H16.5036L16.5345 9.78255L16.5301 9.76423Z" fill="#7B7B7B"/>
</mask>
<g mask="url(#mask0_129_433)">
<rect x="6.89722" y="5.17041" width="24.0641" height="29.0406" fill="#B6B6B6"/>
</g>
<path d="M0 0.128906V40.1289H38.4801V0.128906H0ZM35.7345 37.277H2.74558V2.98081H35.7345V37.277Z" fill="#888888"/>
<path d="M53.1044 8.24775C54.4495 7.77586 55.403 6.64426 55.403 4.79797C55.403 2.09037 53.3853 0.805299 50.153 0.805299H43.5159V16.5904H50.0491C52.7039 16.5904 56.0225 15.7543 56.0225 12.1694C56.0092 9.84894 54.5999 8.69901 53.1044 8.24775ZM46.7659 3.59307H49.8632C51.2946 3.59307 52.1641 4.15658 52.1641 5.39584C52.1641 6.6351 51.2791 7.2009 50.0358 7.2009H46.7637V3.59307H46.7659ZM49.9982 13.8531H46.7437V9.77793H50.1729C51.476 9.77793 52.7548 10.1399 52.7548 11.8098C52.7548 13.5255 51.4539 13.8416 49.9982 13.8416V13.8531ZM57.9849 16.6019H61.0026V0.131836H57.9849V16.6019ZM68.7703 5.46227C65.7548 5.46227 63.0181 7.40019 63.0181 11.189C63.0181 14.9778 65.7504 16.9157 68.7703 16.9157C71.7902 16.9157 74.5225 14.9778 74.5225 11.189C74.5225 7.40019 71.8079 5.45311 68.7703 5.45311V5.46227ZM68.7703 14.1211C67.0557 14.1211 66.1022 12.8589 66.1022 11.189C66.1022 9.51908 67.0557 8.25691 68.7703 8.25691C70.4849 8.25691 71.4606 9.52137 71.4606 11.189C71.4606 12.8566 70.507 14.1119 68.7703 14.1119V14.1211ZM78.9938 11.189C78.9938 9.00138 80.5778 8.16757 82.2261 8.16757C83.2063 8.16807 84.1673 8.44953 85.0026 8.98077V6.23194C84.012 5.69638 82.91 5.41958 81.7924 5.42562C78.9053 5.42562 75.9119 7.18487 75.9119 11.3333C75.9119 15.1908 78.7526 16.9043 81.5977 16.9043C82.8041 16.9166 84.0003 16.6742 85.1132 16.1919V13.4132C84.2201 13.9388 83.209 14.2114 82.1818 14.2035C80.5535 14.2035 78.9938 13.2552 78.9938 11.1798V11.189ZM97.4384 5.76922H94.0535L91.3986 9.80542H90.1398V0.807589H87.1287V16.5927H90.1464V12.2977H91.3632L94.3566 16.5836H97.7438L93.8676 11.1134L97.4384 5.76922ZM100.998 11.1798C100.998 8.99222 102.582 8.15841 104.23 8.15841C105.212 8.15848 106.173 8.43996 107.009 8.9716V6.22278C106.017 5.69073 104.914 5.41712 103.797 5.42562C100.91 5.42562 97.9163 7.18487 97.9163 11.3333C97.9163 15.1908 100.759 16.9043 103.602 16.9043C104.809 16.9166 106.005 16.6742 107.118 16.1919V13.4132C106.225 13.939 105.215 14.2116 104.188 14.2035C102.56 14.2035 100.998 13.2552 100.998 11.1798ZM115.277 5.45311C114.111 5.45374 112.991 5.92265 112.153 6.76109V0.805299H109.133V16.5927H112.151V9.53511C112.593 8.87998 113.41 8.1607 114.472 8.1607C115.644 8.1607 116.492 8.84791 116.492 10.3048V16.5927H119.509V9.89475C119.509 7.39103 118.011 5.45311 115.277 5.45311ZM131.257 13.7958V10.346C131.257 6.784 129.266 5.45311 126.135 5.45311C124.762 5.48035 123.401 5.72365 122.098 6.17467V8.87998C123.267 8.36896 124.519 8.09373 125.788 8.06907C127.414 8.06907 128.239 8.81355 128.239 9.90162V10.2842C127.428 10.0935 126.598 9.99513 125.766 9.99096C123.682 9.99096 121.186 10.8477 121.186 13.5988C121.186 15.7429 122.881 16.9134 124.832 16.9134C126.198 16.9422 127.53 16.4709 128.593 15.5825C129.036 16.3957 129.83 16.8012 130.892 16.8012C131.463 16.7942 132.028 16.6873 132.565 16.4851V14.4234C132.382 14.4838 132.192 14.514 132 14.5128C131.598 14.5174 131.257 14.3593 131.257 13.7958ZM128.239 13.7958C127.593 14.3834 126.756 14.6975 125.896 14.6754C124.985 14.6754 124.268 14.1577 124.268 13.3445C124.268 12.2427 125.352 11.8579 126.461 11.8579C127.058 11.8731 127.651 11.9568 128.23 12.1076V13.7958H128.239ZM134.014 16.5927H137.029V5.76922H134.007L134.014 16.5927ZM135.511 0.425044C134.578 0.425044 133.742 0.965646 133.742 2.18429C133.742 3.40294 134.567 3.96416 135.511 3.96416C136.456 3.96416 137.281 3.42356 137.281 2.18429C137.281 0.94503 136.458 0.425044 135.505 0.425044H135.511ZM145.775 5.45311C145.111 5.45307 144.456 5.60479 143.855 5.89742C143.255 6.19005 142.724 6.61637 142.301 7.14592V5.77151H139.627V16.5927H142.644V9.53511C143.087 8.88227 143.903 8.1607 144.965 8.1607C146.138 8.1607 146.985 8.84791 146.985 10.3048V16.5927H150V9.89704C150 7.39103 148.514 5.45311 145.768 5.45311H145.775Z" fill="#888888"/>
<path d="M46.7647 24.0303H43.5103V39.8132H54.2094V36.7689H46.7647V24.0303ZM57.289 23.6455C56.3576 23.6455 55.5324 24.1861 55.5324 25.4048C55.5324 26.6234 56.3576 27.1869 57.289 27.1869C58.2204 27.1869 59.07 26.6463 59.07 25.4048C59.07 24.1632 58.247 23.6455 57.289 23.6455ZM55.7934 39.8132H58.8089V28.9897H55.7934V39.8132ZM62.4306 27.9291V28.9874H60.6297V31.6263H62.4306V39.8109H65.4262V31.6263H68.6165V28.9874H65.4284V28.0711C65.4284 26.7173 66.3134 26.3577 67.2957 26.3577C67.9233 26.354 68.542 26.5114 69.0966 26.8158V24.1632C68.2755 23.8546 67.408 23.6995 66.5346 23.7051C64.5611 23.7142 62.4328 24.6672 62.4328 27.9291H62.4306ZM74.6917 28.6736C72.351 28.6736 69.3333 30.3206 69.3333 34.4003C69.3333 38.1639 72.0678 40.127 75.3665 40.127C76.9306 40.127 78.2072 39.8796 79.1873 39.4398V36.9934C78.1939 37.4352 77.1224 37.6575 76.0412 37.6462C74.3266 37.6462 72.7227 36.9934 72.3731 35.4151H79.7072C80.4019 32.2264 79.0147 28.6736 74.6939 28.6736H74.6917ZM76.9926 33.3878H72.3466C72.3886 31.9012 73.5169 31.065 74.7979 31.065C76.6917 31.065 77.1054 32.6433 76.9948 33.3878H76.9926Z" fill="#888888"/>
</svg>
