<svg width="150" height="40" viewBox="0 0 150 40" fill="none" xmlns="http://www.w3.org/2000/svg">
<g opacity="0.4" clip-path="url(#clip0_2431:23277)">
<mask id="mask0_2431:23277" style="mask-type:alpha" maskUnits="userSpaceOnUse" x="8" y="6" width="22" height="29">
<path d="M17.6067 13.1057H20.1111C20.285 13.1073 20.458 13.1304 20.6266 13.1744L20.766 9.17714L17.6067 13.1057Z" fill="#7B7B7B"/>
<path d="M22.0647 9.98575L20.7638 9.17714L20.7483 9.33519L20.6355 13.179C20.693 13.1927 20.7483 13.211 20.8036 13.2294L21.2571 12.7918L22.0669 11.1059L22.235 10.4187L22.0647 9.98575Z" fill="#7B7B7B"/>
<path d="M22.7817 9.13374C22.5597 9.13348 22.3379 9.14956 22.118 9.18185V10.05L22.2242 10.2058L23.2707 10.3455L24.6379 10.3638L25.9167 10.3089C25.0379 9.54724 23.9278 9.13111 22.7817 9.13374Z" fill="#7B7B7B"/>
<path d="M25.8633 10.2834L22.1156 10.0727L20.6355 13.1399V13.1765C20.7106 13.1945 20.7845 13.2174 20.8567 13.2453L22.6642 12.8054L24.5713 11.5433L26.2439 10.5789L25.8633 10.2834Z" fill="#7B7B7B"/>
<path d="M25.9452 10.3364C25.9213 10.318 25.8984 10.2981 25.8766 10.2769L20.6355 13.179C21.1288 13.3073 21.5667 13.6001 21.88 14.015C22.1933 14.4298 22.3642 14.941 22.3656 15.4676L22.4806 15.479L24.016 14.4276L25.5182 12.366L26.0248 10.5334L25.9452 10.3364Z" fill="#7B7B7B"/>
<path d="M25.8766 10.2769L22.3678 15.5088L24.8988 16.0357L27.0271 15.1194L27.6466 14.8903C27.676 14.6687 27.6907 14.4452 27.6909 14.2214C27.6899 13.4658 27.5267 12.7198 27.2129 12.0376C26.8991 11.3553 26.4426 10.7539 25.8766 10.2769Z" fill="#7B7B7B"/>
<path d="M27.6909 14.173L22.3812 15.4742L22.3502 15.5131C22.3489 15.6336 22.3385 15.7539 22.3192 15.8727L22.6533 16.9104L24.0383 18.7682L24.7263 18.9125C25.6085 18.5172 26.3597 17.8633 26.8873 17.0313C27.4149 16.1993 27.6958 15.2256 27.6953 14.2303C27.6915 14.2115 27.6901 14.1923 27.6909 14.173Z" fill="#7B7B7B"/>
<path d="M22.12 16.5213C21.9458 16.8921 21.6806 17.2091 21.351 17.4406C21.0214 17.6722 20.6389 17.8101 20.2417 17.8407H17.3811L20.5824 21.5997L20.5957 21.6135L20.7417 21.602L21.0028 21.3225L21.9828 18.6401L22.2528 17.0962L22.12 16.5213Z" fill="#7B7B7B"/>
<path d="M22.3525 15.4307V15.4765C22.3513 15.9694 22.2021 16.4497 21.9255 16.8509L20.598 21.6155C20.7068 21.6036 20.8161 21.5975 20.9255 21.5972C21.1692 21.5966 21.4119 21.6305 21.6467 21.698H22.0737L23.4587 20.4885L24.3702 19.5951L24.8392 18.9492L22.3525 15.4307Z" fill="#7B7B7B"/>
<path d="M25.4651 19.7464L25.0868 19.0065C25.0094 18.9836 24.9341 18.9607 24.8656 18.9423L20.6355 21.6202C20.7313 21.611 20.8265 21.6064 20.9209 21.6064C21.6512 21.6082 22.351 21.9101 22.8666 22.4456C23.3822 22.9812 23.6715 23.7067 23.6709 24.4629C23.6709 24.5454 23.6709 24.6278 23.6598 24.708L24.8279 24.0208L25.6045 22.5639L25.4651 19.7464Z" fill="#7B7B7B"/>
<path d="M24.8392 18.9353L23.66 24.4192V24.4604C23.66 24.5484 23.6555 24.6363 23.6467 24.7238L25.5671 25.3996L29.264 25.4546C29.2751 25.308 29.2795 25.1614 29.2795 25.0125C29.2828 23.6362 28.8503 22.2967 28.0484 21.1992C27.2465 20.1016 26.1192 19.3064 24.8392 18.9353Z" fill="#7B7B7B"/>
<path d="M29.2639 24.5203L23.6688 24.4516C23.6694 24.7706 23.6178 25.0874 23.5161 25.3885L23.6533 26.5338L24.2617 28.1488L25.5427 30.0775L26.2772 30.444C27.1925 29.8857 27.9509 29.0892 28.4772 28.1337C29.0034 27.1781 29.2792 26.0967 29.2772 24.9968C29.2772 24.8433 29.2639 24.6806 29.2639 24.5203Z" fill="#7B7B7B"/>
<path d="M23.6664 24.4536C23.667 24.8282 23.5963 25.1991 23.4584 25.5454C23.3205 25.8916 23.1181 26.2063 22.8628 26.4716C22.6074 26.7368 22.3041 26.9474 21.9701 27.0913C21.6362 27.2352 21.2781 27.3095 20.9164 27.3101H20.527L20.6487 28.7762L24.2084 30.1964L25.7571 30.7232C25.9852 30.6123 26.2068 30.4876 26.4208 30.3499L23.6664 24.4536Z" fill="#7B7B7B"/>
<path d="M20.7881 27.3149H20.3876L19.7859 30.2172L19.5403 31.303H23.246C24.3694 31.298 25.469 30.9677 26.4208 30.3499L20.7881 27.3149Z" fill="#7B7B7B"/>
<path d="M20.7837 27.317H17.0934L17.0226 27.3628L17.4208 28.57L18.839 30.8813L19.5115 31.3074H20.2748L20.2726 31.2959L20.7837 27.317Z" fill="#7B7B7B"/>
<path d="M17.0956 27.3104L16.8567 27.4707L16.8235 27.5303L16.1155 29.1773L15.9496 29.5392V31.3007H20.2704L17.0956 27.3104Z" fill="#7B7B7B"/>
<path d="M15.9563 28.1098V31.2457L17.1001 27.3218L15.9563 28.1098Z" fill="#7B7B7B"/>
<path d="M10.3412 9.11751L8.27485 11.2639L11.5802 11.3486L10.3412 9.11751Z" fill="#7B7B7B"/>
<path d="M12.5714 9.11751L11.9121 11.0921L14.5537 10.8332L12.5714 9.11751Z" fill="#7B7B7B"/>
<path d="M8.19531 29.4406L10.0028 31.3373L11.0847 29.365L8.19531 29.4406Z" fill="#7B7B7B"/>
<path d="M19.3436 6.74212V8.77625L20.9409 6.74212H19.3436Z" fill="#7B7B7B"/>
<path d="M12.9188 6.96211L15.4697 8.48771L15.5272 7.07665L12.9188 6.96211Z" fill="#7B7B7B"/>
<path d="M19.7572 31.5938L19.6754 33.5683H21.4918L19.7572 31.5938Z" fill="#7B7B7B"/>
<path d="M20.7484 32.1091L22.4829 34.0814V32.1091H20.7484Z" fill="#7B7B7B"/>
<path d="M12.7704 31.7587L12.6576 33.5592L15.0492 33.6897L12.7704 31.7587Z" fill="#7B7B7B"/>
<path d="M12.4055 25.377L12.7529 28.8818L15.6821 26.5773L12.4055 25.377Z" fill="#7B7B7B"/>
<path d="M10.5515 27.553L11.5625 29.5024L11.9674 27.5896L10.5515 27.553Z" fill="#7B7B7B"/>
<path d="M17.3524 23.7505L14.9718 24.8706L17.4209 26.0457L17.3524 23.7505Z" fill="#7B7B7B"/>
<path d="M13.6046 23.4688L12.8281 24.7676L15.0405 24.3828L13.6046 23.4688Z" fill="#7B7B7B"/>
<path d="M10.8192 22.47L10.8546 24.0643H12.036L10.8192 22.47Z" fill="#7B7B7B"/>
<path d="M17.2174 21.5217L16.525 23.5765L18.2639 22.5411L17.2174 21.5217Z" fill="#7B7B7B"/>
<path d="M13.8767 19.4372L14.8722 23.029L16.8988 21.1025L13.8767 19.4372Z" fill="#7B7B7B"/>
<path d="M11.2926 21.4896L12.4232 22.1882L13.1997 20.8024L11.2926 21.4896Z" fill="#7B7B7B"/>
<path d="M17.4873 18.8921L17.5205 20.6124L18.9895 20.6628L17.4873 18.8921Z" fill="#7B7B7B"/>
<path d="M12.8619 18.0512L12.3235 19.3679L13.3205 19.0857L12.8619 18.0512Z" fill="#7B7B7B"/>
<path d="M16.8989 18.0512L13.9764 17.3663L16.9321 20.0853L16.8989 18.0512Z" fill="#7B7B7B"/>
<path d="M10.2795 17.332L10.82 18.245L11.5489 17.8069L10.2795 17.332Z" fill="#7B7B7B"/>
<path d="M12.0006 15.472L12.1201 17.7696L13.0648 17.0869L12.0006 15.472Z" fill="#7B7B7B"/>
<path d="M13.2838 15.5795L16.9984 17.3318L17.7086 13.9485L13.2838 15.5795Z" fill="#7B7B7B"/>
<path d="M10.702 15.2461L11.1252 15.6315L11.1407 14.5075L10.702 15.2461Z" fill="#7B7B7B"/>
<path d="M11.4791 12.3016L10.9895 12.898L11.9178 13.4577L11.4791 12.3016Z" fill="#7B7B7B"/>
<path d="M13.0161 11.3006L13.8568 14.4388L15.682 12.423L13.0161 11.3006Z" fill="#7B7B7B"/>
<path d="M15.5471 28.4487L12.5249 30.744L15.5648 33.3233L15.5471 28.4487Z" fill="#7B7B7B"/>
<path d="M11.7175 31.225L10.8037 31.9191H12.5427L11.7175 31.225Z" fill="#7B7B7B"/>
<path d="M11.7307 6.77639L11.8169 8.38903L15.3789 8.96857L11.7307 6.77639Z" fill="#7B7B7B"/>
<path d="M20.2573 8.54728L21.8104 9.49563V6.70557L20.2573 8.54728Z" fill="#7B7B7B"/>
<path d="M19.6446 9.10623L15.7087 9.05583L16.534 9.64912H16.5163L16.5428 9.66973L16.4654 9.80259C16.4331 9.82772 16.3927 9.83918 16.3525 9.83466L16.5273 10.6524L17.9809 11.0029L18.107 10.9777L19.6512 9.10852L19.6446 9.10623Z" fill="#7B7B7B"/>
<path d="M16.5249 9.6354L16.0714 10.1416L16.0448 11.216L17.0515 12.0521L17.1023 12.1391L17.1267 12.1529L18.3568 10.6754L16.5249 9.6354Z" fill="#7B7B7B"/>
<path d="M16.5295 9.64906L13.1357 9.07639L17.118 12.1436L16.5295 9.64906ZM16.5295 9.63532H16.503L16.5339 9.65364L16.5295 9.63532Z" fill="#7B7B7B"/>
</mask>
<g mask="url(#mask0_2431:23277)">
<rect x="6.89648" y="5.04126" width="24.0641" height="29.0406" fill="#7B7B7B"/>
</g>
<path d="M0 0V40H38.4801V0H0ZM35.7345 37.1481H2.74558V2.85191H35.7345V37.1481Z" fill="black"/>
<path d="M53.1041 8.1186C54.4493 7.64671 55.4028 6.51511 55.4028 4.66882C55.4028 1.96122 53.3851 0.676148 50.1528 0.676148H43.5156V16.4613H50.0488C52.7037 16.4613 56.0223 15.6252 56.0223 12.0403C56.009 9.71979 54.5997 8.56986 53.1041 8.1186ZM46.7656 3.46392H49.863C51.2944 3.46392 52.1639 4.02743 52.1639 5.26669C52.1639 6.50595 51.2789 7.07175 50.0355 7.07175H46.7634V3.46392H46.7656ZM49.9979 13.7239H46.7435V9.64878H50.1727C51.4758 9.64878 52.7546 10.0107 52.7546 11.6806C52.7546 13.3963 51.4537 13.7125 49.9979 13.7125V13.7239ZM57.9847 16.4727H61.0024V0.00268555H57.9847V16.4727ZM68.7701 5.33312C65.7546 5.33312 63.0178 7.27104 63.0178 11.0598C63.0178 14.8486 65.7501 16.7866 68.7701 16.7866C71.79 16.7866 74.5223 14.8486 74.5223 11.0598C74.5223 7.27104 71.8077 5.32396 68.7701 5.32396V5.33312ZM68.7701 13.9919C67.0555 13.9919 66.1019 12.7298 66.1019 11.0598C66.1019 9.38993 67.0555 8.12776 68.7701 8.12776C70.4847 8.12776 71.4603 9.39222 71.4603 11.0598C71.4603 12.7275 70.5068 13.9828 68.7701 13.9828V13.9919ZM78.9935 11.0598C78.9935 8.87223 80.5776 8.03842 82.2258 8.03842C83.2061 8.03892 84.1671 8.32038 85.0024 8.85161V6.10279C84.0117 5.56723 82.9097 5.29043 81.7922 5.29647C78.905 5.29647 75.9116 7.05572 75.9116 11.2042C75.9116 15.0617 78.7524 16.7751 81.5975 16.7751C82.8039 16.7875 84.0001 16.5451 85.113 16.0627V13.2841C84.2199 13.8097 83.2088 14.0822 82.1816 14.0744C80.5532 14.0744 78.9935 13.126 78.9935 11.0507V11.0598ZM97.4382 5.64007H94.0532L91.3984 9.67626H90.1395V0.678439H87.1285V16.4636H90.1462V12.1685H91.363L94.3563 16.4544H97.7435L93.8674 10.9842L97.4382 5.64007ZM100.998 11.0507C100.998 8.86307 102.582 8.02926 104.23 8.02926C105.211 8.02933 106.173 8.31081 107.009 8.84245V6.09363C106.017 5.56158 104.914 5.28797 103.797 5.29647C100.909 5.29647 97.9161 7.05572 97.9161 11.2042C97.9161 15.0617 100.759 16.7751 103.602 16.7751C104.808 16.7875 106.005 16.5451 107.117 16.0627V13.2841C106.225 13.8099 105.215 14.0825 104.188 14.0744C102.56 14.0744 100.998 13.126 100.998 11.0507ZM115.277 5.32396C114.111 5.32459 112.991 5.7935 112.153 6.63194V0.676148H109.133V16.4636H112.151V9.40596C112.593 8.75083 113.409 8.03155 114.471 8.03155C115.644 8.03155 116.491 8.71876 116.491 10.1756V16.4636H119.509V9.7656C119.509 7.26188 118.011 5.32396 115.277 5.32396ZM131.257 13.6666V10.2169C131.257 6.65485 129.266 5.32396 126.135 5.32396C124.762 5.3512 123.4 5.5945 122.097 6.04552V8.75083C123.267 8.23981 124.519 7.96458 125.788 7.93992C127.414 7.93992 128.239 8.6844 128.239 9.77247V10.155C127.427 9.9643 126.598 9.86598 125.766 9.86181C123.682 9.86181 121.186 10.7185 121.186 13.4696C121.186 15.6137 122.881 16.7843 124.832 16.7843C126.198 16.8131 127.53 16.3417 128.593 15.4534C129.036 16.2666 129.83 16.672 130.892 16.672C131.462 16.665 132.028 16.5581 132.564 16.3559V14.2943C132.382 14.3547 132.192 14.3848 132 14.3836C131.597 14.3882 131.257 14.2302 131.257 13.6666ZM128.239 13.6666C127.593 14.2543 126.756 14.5683 125.896 14.5463C124.985 14.5463 124.268 14.0286 124.268 13.2154C124.268 12.1136 125.352 11.7287 126.46 11.7287C127.057 11.7439 127.651 11.8277 128.23 11.9784V13.6666H128.239ZM134.013 16.4636H137.029V5.64007H134.007L134.013 16.4636ZM135.511 0.295894C134.578 0.295894 133.741 0.836496 133.741 2.05514C133.741 3.27379 134.567 3.83501 135.511 3.83501C136.456 3.83501 137.281 3.2944 137.281 2.05514C137.281 0.81588 136.458 0.295894 135.505 0.295894H135.511ZM145.774 5.32396C145.111 5.32392 144.455 5.47564 143.855 5.76827C143.255 6.0609 142.724 6.48722 142.301 7.01677V5.64236H139.626V16.4636H142.644V9.40596C143.086 8.75312 143.903 8.03155 144.965 8.03155C146.137 8.03155 146.985 8.71876 146.985 10.1756V16.4636H150V9.76789C150 7.26188 148.513 5.32396 145.768 5.32396H145.774Z" fill="black"/>
<path d="M46.7642 23.9017H43.5098V39.6845H54.2089V36.6402H46.7642V23.9017ZM57.2885 23.5168C56.3571 23.5168 55.5319 24.0575 55.5319 25.2761C55.5319 26.4947 56.3571 27.0583 57.2885 27.0583C58.22 27.0583 59.0695 26.5176 59.0695 25.2761C59.0695 24.0345 58.2465 23.5168 57.2885 23.5168ZM55.793 39.6845H58.8084V28.861H55.793V39.6845ZM62.4301 27.8004V28.8587H60.6292V31.4976H62.4301V39.6822H65.4257V31.4976H68.616V28.8587H65.4279V27.9425C65.4279 26.5887 66.3129 26.229 67.2952 26.229C67.9228 26.2253 68.5415 26.3828 69.0961 26.6872V24.0345C68.275 23.726 67.4076 23.5709 66.5341 23.5764C64.5607 23.5856 62.4323 24.5385 62.4323 27.8004H62.4301ZM74.6912 28.5449C72.3505 28.5449 69.3328 30.1919 69.3328 34.2716C69.3328 38.0352 72.0673 39.9984 75.366 39.9984C76.9301 39.9984 78.2067 39.751 79.1868 39.3111V36.8647C78.1934 37.3065 77.1219 37.5289 76.0408 37.5175C74.3262 37.5175 72.7222 36.8647 72.3726 35.2864H79.7067C80.4014 32.0978 79.0142 28.5449 74.6934 28.5449H74.6912ZM76.9921 33.2591H72.3461C72.3881 31.7725 73.5164 30.9364 74.7974 30.9364C76.6912 30.9364 77.1049 32.5147 76.9943 33.2591H76.9921Z" fill="black"/>
</g>
<defs>
<clipPath id="clip0_2431:23277">
<rect width="150" height="40" fill="white"/>
</clipPath>
</defs>
</svg>
