<svg width="30" height="30" viewBox="0 0 30 30" fill="none" xmlns="http://www.w3.org/2000/svg">
<path d="M9.90752 3.50568C9.59683 3.19154 9.09031 3.18875 8.77617 3.49944C8.46203 3.81013 8.45924 4.31666 8.76993 4.63079L9.90752 3.50568ZM19.775 4.63079C20.0857 4.31666 20.0829 3.81013 19.7688 3.49944C19.4546 3.18875 18.9481 3.19154 18.6374 3.50568L19.775 4.63079ZM11.3371 12.5951L11.7396 11.9037C11.4922 11.7596 11.1866 11.7588 10.9383 11.9015C10.6901 12.0442 10.5371 12.3087 10.5371 12.5951H11.3371ZM11.3371 21.702H10.5371C10.5371 21.9875 10.6893 22.2515 10.9364 22.3945C11.1836 22.5375 11.4883 22.5379 11.7358 22.3955L11.3371 21.702ZM19.2062 17.1775L19.605 17.8711C19.8525 17.7287 20.0054 17.4653 20.0062 17.1797C20.007 16.8942 19.8556 16.6299 19.6088 16.4862L19.2062 17.1775ZM24.7703 12.5433V21.6937H26.3703V12.5433H24.7703ZM22.0838 24.3802H6.46117V25.9802H22.0838V24.3802ZM3.77461 21.6937V12.5433H2.17461V21.6937H3.77461ZM6.46117 9.85671H14.2725V8.25671H6.46117V9.85671ZM14.2725 9.85671H22.0838V8.25671H14.2725V9.85671ZM8.76993 4.63079L13.7037 9.61927L14.8413 8.49415L9.90752 3.50568L8.76993 4.63079ZM18.6374 3.50568L13.7037 8.49415L14.8413 9.61927L19.775 4.63079L18.6374 3.50568ZM10.5371 12.5951V21.702H12.1371V12.5951H10.5371ZM11.7358 22.3955L19.605 17.8711L18.8075 16.484L10.9383 21.0085L11.7358 22.3955ZM19.6088 16.4862L11.7396 11.9037L10.9345 13.2864L18.8036 17.8689L19.6088 16.4862ZM6.46117 24.3802C4.97742 24.3802 3.77461 23.1774 3.77461 21.6937H2.17461C2.17461 24.0611 4.09376 25.9802 6.46117 25.9802V24.3802ZM24.7703 21.6937C24.7703 23.1774 23.5675 24.3802 22.0838 24.3802V25.9802C24.4512 25.9802 26.3703 24.0611 26.3703 21.6937H24.7703ZM26.3703 12.5433C26.3703 10.1759 24.4512 8.25671 22.0838 8.25671V9.85671C23.5675 9.85671 24.7703 11.0595 24.7703 12.5433H26.3703ZM3.77461 12.5433C3.77461 11.0595 4.97742 9.85671 6.46117 9.85671V8.25671C4.09377 8.25671 2.17461 10.1759 2.17461 12.5433H3.77461Z" fill="#99A0AD"/>
</svg>
