<svg width="19" height="18" viewBox="0 0 19 18" fill="none" xmlns="http://www.w3.org/2000/svg">
<path d="M3.5 5.99998H15.5" stroke="#E1E1D8" stroke-width="1.3"/>
<path d="M4.25 2.99998H14.75M4.25 2.99998C3.83579 2.99998 3.5 3.33577 3.5 3.74998M4.25 2.99998H3.5V3.74998M14.75 2.99998C15.1642 2.99998 15.5 3.33577 15.5 3.74998M14.75 2.99998H15.5V3.74998M15.5 3.74998V14.25M15.5 14.25C15.5 14.6642 15.1642 15 14.75 15M15.5 14.25V15H14.75M14.75 15H4.25M4.25 15C3.83579 15 3.5 14.6642 3.5 14.25M4.25 15H3.5V14.25M3.5 14.25V3.74998" stroke="#E1E1D8" stroke-width="1.3"/>
<path d="M12.5 1.49998V2.99998" stroke="#E1E1D8" stroke-width="1.3"/>
<path d="M6.5 1.49998V2.99998" stroke="#E1E1D8" stroke-width="1.3"/>
</svg>
