<svg width="16" height="16" viewBox="0 0 16 16" fill="none" xmlns="http://www.w3.org/2000/svg">
<path fill-rule="evenodd" clip-rule="evenodd" d="M13.3333 1.77778H14.2222C15.2041 1.77778 16 2.57372 16 3.55556V14.2222C16 15.2041 15.2041 16 14.2222 16H1.77778C0.795938 16 0 15.2041 0 14.2222V3.55556C0 2.57372 0.795938 1.77778 1.77778 1.77778H2.66667V0.888889C2.66667 0.397969 3.06464 0 3.55556 0C4.04648 0 4.44444 0.397969 4.44444 0.888889V1.77778H11.5556V0.888889C11.5556 0.397969 11.9535 0 12.4444 0C12.9354 0 13.3333 0.397969 13.3333 0.888889V1.77778ZM1.77776 3.55556V14.2222H14.2222V3.55556H1.77776ZM3.99997 6.2222H4.88886C5.13432 6.2222 5.3333 6.42119 5.3333 6.66665V7.55554C5.3333 7.801 5.13432 7.99998 4.88886 7.99998H3.99997C3.75451 7.99998 3.55552 7.801 3.55552 7.55554V6.66665C3.55552 6.42119 3.75451 6.2222 3.99997 6.2222ZM3.99997 9.7778H4.88886C5.13432 9.7778 5.3333 9.97678 5.3333 10.2222V11.1111C5.3333 11.3566 5.13432 11.5556 4.88886 11.5556H3.99997C3.75451 11.5556 3.55552 11.3566 3.55552 11.1111V10.2222C3.55552 9.97678 3.75451 9.7778 3.99997 9.7778ZM7.55563 6.2222H8.44452C8.68998 6.2222 8.88897 6.42119 8.88897 6.66665V7.55554C8.88897 7.801 8.68998 7.99998 8.44452 7.99998H7.55563C7.31017 7.99998 7.11119 7.801 7.11119 7.55554V6.66665C7.11119 6.42119 7.31017 6.2222 7.55563 6.2222ZM7.55563 9.7778H8.44452C8.68998 9.7778 8.88897 9.97678 8.88897 10.2222V11.1111C8.88897 11.3566 8.68998 11.5556 8.44452 11.5556H7.55563C7.31017 11.5556 7.11119 11.3566 7.11119 11.1111V10.2222C7.11119 9.97678 7.31017 9.7778 7.55563 9.7778ZM11.1112 9.7778H12C12.2455 9.7778 12.4445 9.97678 12.4445 10.2222V11.1111C12.4445 11.3566 12.2455 11.5556 12 11.5556H11.1112C10.8657 11.5556 10.6667 11.3566 10.6667 11.1111V10.2222C10.6667 9.97678 10.8657 9.7778 11.1112 9.7778ZM11.1112 6.2222H12C12.2455 6.2222 12.4445 6.42119 12.4445 6.66665V7.55554C12.4445 7.801 12.2455 7.99998 12 7.99998H11.1112C10.8657 7.99998 10.6667 7.801 10.6667 7.55554V6.66665C10.6667 6.42119 10.8657 6.2222 11.1112 6.2222Z" fill="#969FA8"/>
</svg>
