<svg width="18" height="18" viewBox="0 0 18 18" fill="none" xmlns="http://www.w3.org/2000/svg">
<path d="M3 6H15" stroke="#E1E1D8" stroke-width="1.3"/>
<path d="M3.75 3H14.25M3.75 3C3.33579 3 3 3.33579 3 3.75M3.75 3H3V3.75M14.25 3C14.6642 3 15 3.33579 15 3.75M14.25 3H15V3.75M15 3.75V14.25M15 14.25C15 14.6642 14.6642 15 14.25 15M15 14.25V15H14.25M14.25 15H3.75M3.75 15C3.33579 15 3 14.6642 3 14.25M3.75 15H3V14.25M3 14.25V3.75" stroke="#E1E1D8" stroke-width="1.3"/>
<path d="M12 1.5V3" stroke="#E1E1D8" stroke-width="1.3"/>
<path d="M6 1.5V3" stroke="#E1E1D8" stroke-width="1.3"/>
</svg>
