<svg width="19" height="18" viewBox="0 0 19 18" fill="none" xmlns="http://www.w3.org/2000/svg">
<path d="M3.5 6H15.5" stroke="#1FDFFF" stroke-width="1.3"/>
<path d="M4.25 3H14.75M4.25 3C3.83579 3 3.5 3.33579 3.5 3.75M4.25 3H3.5V3.75M14.75 3C15.1642 3 15.5 3.33579 15.5 3.75M14.75 3H15.5V3.75M15.5 3.75V14.25M15.5 14.25C15.5 14.6642 15.1642 15 14.75 15M15.5 14.25V15H14.75M14.75 15H4.25M4.25 15C3.83579 15 3.5 14.6642 3.5 14.25M4.25 15H3.5V14.25M3.5 14.25V3.75" stroke="#1FDFFF" stroke-width="1.3"/>
<path d="M12.5 1.5V3" stroke="#1FDFFF" stroke-width="1.3"/>
<path d="M6.5 1.5V3" stroke="#1FDFFF" stroke-width="1.3"/>
</svg>
