<svg width="110" height="43" viewBox="0 0 110 43" fill="none" xmlns="http://www.w3.org/2000/svg">
<path d="M66 14.0862H75.5333V42.2586H66V14.0862Z" fill="#3AAC59"/>
<path d="M52.9115 11.9664C49.2461 11.9664 45.4981 12.8535 44.565 14.5047C44.5524 14.5255 44.5401 14.5449 44.5281 14.5664V2.74634H34.7396V21.4981V21.5302C35.7134 21.981 36.712 22.4961 37.7222 23.0785C38.0639 23.2767 38.3531 23.4496 38.5663 23.5792C38.7003 23.6605 38.8339 23.7422 38.9676 23.8263C38.9814 23.835 33.3726 32.6647 25.7344 34.5187C21.2216 35.6149 15.8906 34.2878 14.8106 29.7111C14.7654 29.5213 14.7405 29.3309 14.7113 29.1409C15.431 28.7077 16.1669 28.3102 16.9067 27.9415C18.7761 27.118 20.2027 26.5007 20.7426 26.2913C20.7899 26.2736 20.8379 26.2552 20.8849 26.2377C20.8858 26.2377 20.887 26.2374 20.8876 26.2374C20.8882 26.2374 20.8882 26.2368 20.8892 26.2362C25.346 24.6022 29.0869 24.0382 29.0869 24.0382C25.6895 23.7412 22.7724 23.9805 20.3312 24.4694C20.3303 24.4682 20.3278 24.4676 20.3278 24.4676C20.3278 24.4676 20.3094 24.4719 20.2765 24.4807C18.066 24.9281 16.2477 25.579 14.8358 26.2284C15.6224 22.9299 18.4615 20.0641 21.8214 19.2477C22.1167 19.1761 22.416 19.1206 22.7162 19.0732C22.8025 19.0599 22.8885 19.048 22.9752 19.0365C23.2084 19.0044 23.4428 18.9795 23.6788 18.9601C23.7541 18.9542 23.83 18.9461 23.9056 18.9421C24.2073 18.9228 24.5099 18.9131 24.8138 18.9143C24.8734 18.9146 24.9331 18.9181 24.9927 18.9184C25.2446 18.9221 25.4966 18.9321 25.7488 18.9483C25.8379 18.9539 25.9267 18.9598 26.0152 18.967C26.1037 18.9742 26.1922 18.9826 26.2804 18.991C27.727 19.1421 29.5042 19.5347 31.4744 20.2115V13.7291C30.5237 13.4318 29.5149 13.1439 28.4678 12.8834C25.7074 12.14 20.9672 11.3485 15.7831 12.6251C7.4449 14.6795 5.0802 20.916 5.0802 28.537C5.0802 29.5079 5.15641 30.4165 5.2956 31.2712C3.48551 32.4833 1.70769 33.8752 0.0917969 35.4637C0.0917969 35.4637 2.49674 34.3794 5.67322 32.9526C7.79364 40.2719 15.1901 42.7342 20.7598 42.7342C26.5683 42.7342 30.2972 41.0578 34.7396 38.2556V41.805H44.5281V24.1984C44.5401 24.1753 44.5524 24.1525 44.565 24.1289V23.8297C45.4963 21.3133 47.0802 20.6639 48.8405 20.6639C51.1671 20.6639 52.6208 22.3344 52.6208 24.9889V41.805H62.4092V22.1387C62.4092 15.947 58.5808 11.9664 52.9115 11.9664Z" fill="#3AAC59"/>
<path d="M70.612 0.285645C67.6564 0.285645 65.5723 2.39856 65.5723 5.3961C65.5723 8.39364 67.6564 10.5062 70.612 10.5062C73.5675 10.5062 75.652 8.39364 75.652 5.3961C75.652 2.39856 73.5675 0.285645 70.612 0.285645Z" fill="#3AAC59"/>
<path d="M108.086 25.8498H108.098L108.088 13.3004H98.2876L98.2341 15.0842C88.7812 8.92713 82.7466 15.259 82.7466 15.259C79.8604 17.9313 78.1855 22.1502 78.1855 27.4477C78.1855 36.8394 83.7528 42.4263 90.9901 42.4263C93.7026 42.4263 96.2016 41.805 98.3595 38.7803C98.6096 39.4855 99.1664 41.212 99.5652 41.805H109.763C108.015 38.895 108.029 28.8047 108.086 25.8498ZM93.2752 34.29C90.1012 34.29 87.8631 31.4968 87.8631 27.534C87.8631 23.5711 90.1012 20.7774 93.2752 20.7774C95.501 20.7774 97.2653 22.1524 98.1214 24.3401V30.7272C97.2656 32.9149 95.501 34.29 93.2752 34.29Z" fill="#3AAC59"/>
</svg>
