<svg width="24" height="24" viewBox="0 0 24 24" fill="none" xmlns="http://www.w3.org/2000/svg">
<path d="M20.271 9.10649V7.57023C20.271 6.24781 19.199 5.17578 17.8766 5.17578H6.02872C4.70631 5.17578 3.63428 6.24781 3.63428 7.57022V7.8071M20.271 9.10649C20.1658 9.10649 18.5957 9.12551 17.1231 9.10649C12.6415 9.04859 12.8997 14.8002 17.1231 14.8211C18.5008 14.828 20.1262 14.8211 20.271 14.8211M20.271 9.10649V14.8211M20.271 14.8211V15.6054C20.271 16.9278 19.199 17.9998 17.8766 17.9998H6.02872C4.70631 17.9998 3.63428 16.9278 3.63428 15.6054V7.8071M3.63428 7.8071H10.5245" stroke="#FCFF00" stroke-width="1.6" stroke-linecap="round" stroke-linejoin="round"/>
<circle cx="16.6373" cy="11.877" r="1.05579" fill="#FCFF00"/>
</svg>
