<svg width="40" height="40" viewBox="0 0 40 40" fill="none" xmlns="http://www.w3.org/2000/svg">
<circle cx="20" cy="20" r="20" fill="#F3F6FF"/>
<path d="M22.475 20.3928C22.0456 23.0513 20.0797 24.2713 18.0577 23.9052C16.0356 23.539 14.735 21.3727 15.1526 19.0667C15.5702 16.7607 17.548 15.1881 19.57 15.5543C21.592 15.9205 22.8926 18.0867 22.475 20.3928ZM22.475 20.3928L23.461 15.3135M22.475 20.3928C22.0574 22.6988 22.6234 23.5811 23.7035 23.9052C25.3485 24.3987 27.7571 22.3157 28.3022 19.0667C29.2271 13.5547 25.7015 9.91557 21.1349 9.08856C15.9469 8.14902 10.7764 12.3865 9.7789 17.8944C8.78142 23.4024 12.6197 28.5959 17.8077 29.5355C21.0169 30.1166 25.2247 29.1031 27.3914 26.8029" stroke="#4A70F8" stroke-width="1.6" stroke-linecap="round" stroke-linejoin="round"/>
</svg>
