<svg width="16" height="16" viewBox="0 0 16 16" fill="none" xmlns="http://www.w3.org/2000/svg">
<path fill-rule="evenodd" clip-rule="evenodd" d="M7.99935 13.3337C10.9449 13.3337 13.3327 10.9458 13.3327 8.00033C13.3327 5.05481 10.9449 2.66699 7.99935 2.66699C5.05383 2.66699 2.66602 5.05481 2.66602 8.00033C2.66602 10.9458 5.05383 13.3337 7.99935 13.3337Z" fill="#F95721"/>
<path fill-rule="evenodd" clip-rule="evenodd" d="M8.05483 5.9261C8.41965 5.9261 8.7154 5.63036 8.7154 5.26554C8.7154 4.90072 8.41965 4.60498 8.05483 4.60498C7.69002 4.60498 7.39427 4.90072 7.39427 5.26554C7.39427 5.63036 7.69002 5.9261 8.05483 5.9261Z" fill="white"/>
<path fill-rule="evenodd" clip-rule="evenodd" d="M7.28418 7.02704C7.28418 6.78383 7.48134 6.58666 7.72455 6.58666H8.16493C8.40814 6.58666 8.6053 6.78383 8.6053 7.02704V10.1097C8.6053 10.3529 8.40814 10.55 8.16493 10.55C7.92172 10.55 7.72455 10.3529 7.72455 10.1097V7.46741C7.48134 7.46741 7.28418 7.27025 7.28418 7.02704Z" fill="white"/>
</svg>
