<svg width="241" height="19" viewBox="0 0 241 19" fill="none" xmlns="http://www.w3.org/2000/svg">
<path d="M2 2.12644H3.53917V15.5289H11.6926V16.8776H2V2.12644Z" fill="url(#paint0_linear_2826:25317)"/>
<path d="M37.8558 2.12644H39.3949V16.8776H37.8558V2.12644Z" fill="url(#paint1_linear_2826:25317)"/>
<path d="M82.8611 2.12644V16.8776H81.3843V5.07667L75.6644 15.0021H74.9364L69.2165 5.13989V16.8776H67.7397V2.12644H69.0085L75.3316 13.0634L81.5923 2.12644H82.8611Z" fill="url(#paint2_linear_2826:25317)"/>
<path d="M117.536 17.004C116.093 17.004 114.79 16.6809 113.625 16.0347C112.474 15.3884 111.566 14.4963 110.901 13.3584C110.249 12.2064 109.923 10.9209 109.923 9.50201C109.923 8.08309 110.249 6.80466 110.901 5.66672C111.566 4.51472 112.481 3.6156 113.646 2.96936C114.811 2.32312 116.114 2 117.556 2C118.638 2 119.636 2.18263 120.552 2.5479C121.467 2.91317 122.243 3.44702 122.881 4.14945L121.904 5.13989C120.766 3.97384 119.331 3.39082 117.598 3.39082C116.447 3.39082 115.4 3.65775 114.457 4.1916C113.514 4.72545 112.772 5.45598 112.232 6.3832C111.705 7.31041 111.441 8.35002 111.441 9.50201C111.441 10.654 111.705 11.6936 112.232 12.6208C112.772 13.548 113.514 14.2786 114.457 14.8124C115.4 15.3463 116.447 15.6132 117.598 15.6132C119.345 15.6132 120.78 15.0232 121.904 13.8431L122.881 14.8335C122.243 15.5359 121.46 16.0768 120.531 16.4561C119.616 16.8214 118.617 17.004 117.536 17.004Z" fill="url(#paint3_linear_2826:25317)"/>
<path d="M155.83 17.004C154.388 17.004 153.077 16.6809 151.899 16.0347C150.734 15.3744 149.819 14.4753 149.153 13.3373C148.501 12.1994 148.176 10.9209 148.176 9.50201C148.176 8.08309 148.501 6.80466 149.153 5.66672C149.819 4.52877 150.734 3.63668 151.899 2.99043C153.077 2.33015 154.388 2 155.83 2C157.272 2 158.568 2.32312 159.719 2.96936C160.884 3.6156 161.799 4.51472 162.465 5.66672C163.13 6.80466 163.463 8.08309 163.463 9.50201C163.463 10.9209 163.13 12.2064 162.465 13.3584C161.799 14.4963 160.884 15.3884 159.719 16.0347C158.568 16.6809 157.272 17.004 155.83 17.004ZM155.83 15.6132C156.981 15.6132 158.021 15.3533 158.95 14.8335C159.879 14.2997 160.607 13.5691 161.134 12.6419C161.661 11.7006 161.924 10.654 161.924 9.50201C161.924 8.35002 161.661 7.31041 161.134 6.3832C160.607 5.44194 159.879 4.7114 158.95 4.1916C158.021 3.65775 156.981 3.39082 155.83 3.39082C154.679 3.39082 153.632 3.65775 152.689 4.1916C151.76 4.7114 151.025 5.44194 150.484 6.3832C149.957 7.31041 149.694 8.35002 149.694 9.50201C149.694 10.654 149.957 11.7006 150.484 12.6419C151.025 13.5691 151.76 14.2997 152.689 14.8335C153.632 15.3533 154.679 15.6132 155.83 15.6132Z" fill="url(#paint4_linear_2826:25317)"/>
<path d="M200.463 16.8776L197.135 12.1361C196.761 12.1783 196.372 12.1994 195.97 12.1994H192.06V16.8776H190.521V2.12644H195.97C197.828 2.12644 199.284 2.576 200.338 3.47511C201.392 4.37423 201.919 5.61052 201.919 7.18398C201.919 8.33597 201.628 9.31236 201.045 10.1131C200.477 10.8999 199.659 11.4688 198.591 11.8201L202.148 16.8776H200.463ZM195.929 10.8718C197.371 10.8718 198.473 10.5486 199.236 9.9024C199.998 9.25616 200.38 8.35002 200.38 7.18398C200.38 5.98984 199.998 5.07667 199.236 4.44448C198.473 3.79824 197.371 3.47511 195.929 3.47511H192.06V10.8718H195.929Z" fill="url(#paint5_linear_2826:25317)"/>
<path d="M239.455 15.5289V16.8776H229.159V2.12644H239.143V3.47511H230.698V8.72231H238.228V10.0499H230.698V15.5289H239.455Z" fill="url(#paint6_linear_2826:25317)"/>
<defs>
<linearGradient id="paint0_linear_2826:25317" x1="5.26108" y1="9.5602" x2="240.763" y2="9.56019" gradientUnits="userSpaceOnUse">
<stop offset="0.603091" stop-color="#8CB3FF"/>
<stop offset="1" stop-color="#ACC3FF" stop-opacity="0.4"/>
</linearGradient>
<linearGradient id="paint1_linear_2826:25317" x1="5.26108" y1="9.5602" x2="240.763" y2="9.56019" gradientUnits="userSpaceOnUse">
<stop offset="0.603091" stop-color="#8CB3FF"/>
<stop offset="1" stop-color="#ACC3FF" stop-opacity="0.4"/>
</linearGradient>
<linearGradient id="paint2_linear_2826:25317" x1="5.26108" y1="9.5602" x2="240.763" y2="9.56019" gradientUnits="userSpaceOnUse">
<stop offset="0.603091" stop-color="#8CB3FF"/>
<stop offset="1" stop-color="#ACC3FF" stop-opacity="0.4"/>
</linearGradient>
<linearGradient id="paint3_linear_2826:25317" x1="5.26108" y1="9.5602" x2="240.763" y2="9.56019" gradientUnits="userSpaceOnUse">
<stop offset="0.603091" stop-color="#8CB3FF"/>
<stop offset="1" stop-color="#ACC3FF" stop-opacity="0.4"/>
</linearGradient>
<linearGradient id="paint4_linear_2826:25317" x1="5.26108" y1="9.5602" x2="240.763" y2="9.56019" gradientUnits="userSpaceOnUse">
<stop offset="0.603091" stop-color="#8CB3FF"/>
<stop offset="1" stop-color="#ACC3FF" stop-opacity="0.4"/>
</linearGradient>
<linearGradient id="paint5_linear_2826:25317" x1="5.26108" y1="9.5602" x2="240.763" y2="9.56019" gradientUnits="userSpaceOnUse">
<stop offset="0.603091" stop-color="#8CB3FF"/>
<stop offset="1" stop-color="#ACC3FF" stop-opacity="0.4"/>
</linearGradient>
<linearGradient id="paint6_linear_2826:25317" x1="5.26108" y1="9.5602" x2="240.763" y2="9.56019" gradientUnits="userSpaceOnUse">
<stop offset="0.603091" stop-color="#8CB3FF"/>
<stop offset="1" stop-color="#ACC3FF" stop-opacity="0.4"/>
</linearGradient>
</defs>
</svg>
