<svg width="20" height="20" viewBox="0 0 20 20" fill="none" xmlns="http://www.w3.org/2000/svg">
<path fill-rule="evenodd" clip-rule="evenodd" d="M14.7922 16.04C14.2724 16.42 13.7319 16.76 13.129 17L12.7755 19.16C12.7131 19.64 12.2765 20 11.7568 20H8.264C7.74424 20 7.30764 19.64 7.24527 19.14L6.89184 17C6.28892 16.76 5.74836 16.42 5.2286 16.04L5.24939 16.12L3.14957 16.9C2.67139 17.08 2.13084 16.88 1.88135 16.46L0.134959 13.54C-0.114526 13.12 -0.0105738 12.56 0.384444 12.26L2.15163 10.9L2.19321 10.96C2.18281 10.88 2.17112 10.8 2.15942 10.72C2.12434 10.48 2.08926 10.24 2.08926 10C2.08926 9.75091 2.12705 9.50183 2.16341 9.26217C2.17376 9.19394 2.18399 9.12648 2.19321 9.06L2.15163 9.12L0.384444 7.76C-0.0105738 7.46 -0.114526 6.9 0.134959 6.48L1.88135 3.56C2.13084 3.12 2.67139 2.94 3.14957 3.12L5.27019 3.9L5.2286 3.96C5.74836 3.58 6.28892 3.24 6.89184 3L7.24527 0.84C7.30764 0.36 7.74424 0 8.264 0H11.7568C12.2765 0 12.7131 0.36 12.7755 0.84L13.129 3C13.7319 3.24 14.2724 3.58 14.7922 3.92L14.7506 3.86L16.8504 3.08C17.3286 2.9 17.8692 3.1 18.1186 3.52L19.865 6.44C20.1145 6.86 20.0106 7.42 19.6156 7.72L17.8484 9.08L17.8068 9.02C17.8172 9.09999 17.8289 9.17999 17.8406 9.25998C17.8757 9.49999 17.9107 9.73999 17.9107 9.98C17.9107 10.22 17.8757 10.46 17.8406 10.7C17.8289 10.78 17.8172 10.86 17.8068 10.94L17.8484 10.88L19.6156 12.24C20.0106 12.54 20.1145 13.1 19.865 13.52L18.1186 16.44C17.8692 16.88 17.3286 17.06 16.8504 16.88L14.7506 16.1L14.7922 16.04ZM10.2 6.00001C7.89004 6.00001 6.00004 7.89001 6.00004 10.2C6.00004 12.51 7.89004 14.4 10.2 14.4C12.51 14.4 14.4 12.51 14.4 10.2C14.4 7.89001 12.51 6.00001 10.2 6.00001Z" fill="#969FA8"/>
</svg>
