<svg width="24" height="24" viewBox="0 0 24 24" fill="none" xmlns="http://www.w3.org/2000/svg">
<g clip-path="url(#clip0_2648:23873)">
<path d="M7.27921 0.219936C6.98596 -0.0733119 6.51196 -0.0733119 6.21871 0.219936L2.249 4.18965C1.95615 4.4825 1.95615 4.9573 2.249 5.25015C2.54184 5.54299 3.01664 5.54299 3.30949 5.25015L5.99897 2.56067L5.99897 21.75C5.99897 22.1642 6.33475 22.5 6.74896 22.5C7.16317 22.5 7.49895 22.1642 7.49895 21.75L7.49895 2.56067L10.1884 5.25015C10.4813 5.54299 10.9561 5.54299 11.2489 5.25015C11.5418 4.9573 11.5418 4.4825 11.2489 4.18965L7.27921 0.219936Z" fill="#393C42"/>
<path d="M21.7528 18.7499C21.46 18.457 20.9852 18.457 20.6923 18.7499L18.0029 21.4394V2.24999C18.0029 1.83578 17.6671 1.5 17.2529 1.5C16.8387 1.5 16.5029 1.83578 16.5029 2.24999V21.4394L13.8134 18.7499C13.5205 18.457 13.0457 18.457 12.7529 18.7499C12.4601 19.0427 12.4601 19.5175 12.7529 19.8104L16.7226 23.7801C16.8689 23.9263 17.0609 23.9998 17.2529 23.9998C17.4449 23.9998 17.6369 23.9263 17.7831 23.7801L21.7528 19.8104C22.0457 19.5175 22.0457 19.0427 21.7528 18.7499Z" fill="#393C42"/>
</g>
<defs>
<clipPath id="clip0_2648:23873">
<rect width="24" height="24" fill="white"/>
</clipPath>
</defs>
</svg>
