<svg width="20" height="20" viewBox="0 0 20 20" fill="none" xmlns="http://www.w3.org/2000/svg">
<path fill-rule="evenodd" clip-rule="evenodd" d="M10 20C4.47715 20 0 15.5228 0 10C0 4.47715 4.47715 0 10 0C15.5228 0 20 4.47715 20 10C20 15.5228 15.5228 20 10 20ZM10 18C14.4183 18 18 14.4183 18 10C18 5.58172 14.4183 2 10 2C5.58172 2 2 5.58172 2 10C2 14.4183 5.58172 18 10 18ZM8.75004 6.23953C8.751 5.90864 8.88384 5.59179 9.11914 5.35914C9.35444 5.1265 9.67278 4.99726 10.0037 5.00004C10.5099 5.00154 10.9652 5.30816 11.1569 5.77664C11.3486 6.24512 11.2388 6.78296 10.8788 7.13885C10.5189 7.49474 9.97983 7.59842 9.51354 7.40143C9.04726 7.20445 8.7458 6.7457 8.75004 6.23953ZM8.89902 10.1024C8.89902 9.49356 9.39258 9 10.0014 9C10.6102 9 11.1038 9.49356 11.1038 10.1024V14.0333C11.1038 14.6421 10.6102 15.1357 10.0014 15.1357C9.39258 15.1357 8.89902 14.6421 8.89902 14.0333V10.1024Z" fill="white"/>
</svg>
