<svg width="16" height="16" viewBox="0 0 16 16" fill="none" xmlns="http://www.w3.org/2000/svg">
<path d="M8.00065 1.33337C4.32665 1.33337 1.33398 4.32604 1.33398 8.00004C1.33398 11.674 4.32665 14.6667 8.00065 14.6667C11.6747 14.6667 14.6673 11.674 14.6673 8.00004C14.6673 4.32604 11.6747 1.33337 8.00065 1.33337ZM8.00065 2.66671C10.9541 2.66671 13.334 5.04663 13.334 8.00004C13.334 10.9535 10.9541 13.3334 8.00065 13.3334C5.04724 13.3334 2.66732 10.9535 2.66732 8.00004C2.66732 5.04663 5.04724 2.66671 8.00065 2.66671ZM7.33398 4.66671V6.00004H8.66732V4.66671H7.33398ZM7.33398 7.33337V11.3334H8.66732V7.33337H7.33398Z" fill="#FCFF00"/>
</svg>
