<svg width="32" height="32" viewBox="0 0 32 32" fill="none" xmlns="http://www.w3.org/2000/svg">
<circle cx="16" cy="16" r="16" fill="#36373A"/>
<path d="M15.9979 13.4726C14.6062 13.4726 13.4705 14.6083 13.4705 16C13.4705 17.3916 14.6062 18.5274 15.9979 18.5274C17.3895 18.5274 18.5252 17.3916 18.5252 16C18.5252 14.6083 17.3895 13.4726 15.9979 13.4726ZM23.578 16C23.578 14.9534 23.5875 13.9162 23.5287 12.8715C23.4699 11.6581 23.1931 10.5811 22.3058 9.69381C21.4166 8.80458 20.3416 8.52966 19.1281 8.47088C18.0816 8.4121 17.0445 8.42158 15.9998 8.42158C14.9532 8.42158 13.9161 8.4121 12.8714 8.47088C11.658 8.52966 10.581 8.80648 9.69373 9.69381C8.80451 10.583 8.52959 11.6581 8.47082 12.8715C8.41204 13.9181 8.42152 14.9553 8.42152 16C8.42152 17.0447 8.41204 18.0837 8.47082 19.1284C8.52959 20.3418 8.80641 21.4188 9.69373 22.3061C10.5829 23.1954 11.658 23.4703 12.8714 23.5291C13.918 23.5878 14.9551 23.5784 15.9998 23.5784C17.0463 23.5784 18.0835 23.5878 19.1281 23.5291C20.3416 23.4703 21.4185 23.1935 22.3058 22.3061C23.195 21.4169 23.4699 20.3418 23.5287 19.1284C23.5894 18.0837 23.578 17.0466 23.578 16ZM15.9979 19.8887C13.8459 19.8887 12.1092 18.1519 12.1092 16C12.1092 13.848 13.8459 12.1112 15.9979 12.1112C18.1498 12.1112 19.8865 13.848 19.8865 16C19.8865 18.1519 18.1498 19.8887 15.9979 19.8887ZM20.0458 12.8602C19.5434 12.8602 19.1376 12.4544 19.1376 11.952C19.1376 11.4495 19.5434 11.0438 20.0458 11.0438C20.5482 11.0438 20.954 11.4495 20.954 11.952C20.9541 12.0713 20.9307 12.1894 20.8851 12.2997C20.8396 12.41 20.7727 12.5101 20.6883 12.5945C20.6039 12.6789 20.5038 12.7457 20.3935 12.7913C20.2833 12.8369 20.1651 12.8603 20.0458 12.8602Z" fill="#656B77"/>
</svg>
