<svg width="46" height="46" viewBox="0 0 46 46" fill="none" xmlns="http://www.w3.org/2000/svg">
<circle cx="23" cy="23" r="23" fill="#D3D8DF"/>
<path d="M22.9973 19.3671C20.9968 19.3671 19.3642 20.9997 19.3642 23.0002C19.3642 25.0007 20.9968 26.6333 22.9973 26.6333C24.9978 26.6333 26.6303 25.0007 26.6303 23.0002C26.6303 20.9997 24.9978 19.3671 22.9973 19.3671ZM33.8937 23.0002C33.8937 21.4957 33.9074 20.0049 33.8229 18.5031C33.7384 16.7588 33.3405 15.2107 32.0649 13.9351C30.7867 12.6568 29.2413 12.2616 27.497 12.1771C25.9926 12.0927 24.5017 12.1063 23 12.1063C21.4955 12.1063 20.0047 12.0927 18.503 12.1771C16.7587 12.2616 15.2106 12.6596 13.9351 13.9351C12.6568 15.2134 12.2616 16.7588 12.1771 18.5031C12.0927 20.0076 12.1063 21.4984 12.1063 23.0002C12.1063 24.502 12.0927 25.9956 12.1771 27.4973C12.2616 29.2417 12.6596 30.7898 13.9351 32.0653C15.2133 33.3436 16.7587 33.7388 18.503 33.8233C20.0074 33.9078 21.4983 33.8941 23 33.8941C24.5045 33.8941 25.9953 33.9078 27.497 33.8233C29.2413 33.7388 30.7894 33.3408 32.0649 32.0653C33.3432 30.787 33.7384 29.2417 33.8229 27.4973C33.9101 25.9956 33.8937 24.5047 33.8937 23.0002ZM22.9973 28.5903C19.9039 28.5903 17.4073 26.0937 17.4073 23.0002C17.4073 19.9067 19.9039 17.4102 22.9973 17.4102C26.0907 17.4102 28.5872 19.9067 28.5872 23.0002C28.5872 26.0937 26.0907 28.5903 22.9973 28.5903ZM28.8162 18.4867C28.0939 18.4867 27.5107 17.9035 27.5107 17.1812C27.5107 16.4589 28.0939 15.8757 28.8162 15.8757C29.5384 15.8757 30.1217 16.4589 30.1217 17.1812C30.1219 17.3527 30.0883 17.5226 30.0227 17.6811C29.9572 17.8396 29.861 17.9836 29.7398 18.1048C29.6185 18.2261 29.4745 18.3223 29.316 18.3878C29.1575 18.4533 28.9877 18.4869 28.8162 18.4867Z" fill="#393C42"/>
</svg>
