<svg width="30" height="30" viewBox="0 0 30 30" fill="none" xmlns="http://www.w3.org/2000/svg">
<circle cx="15" cy="15" r="15" fill="#CED6F3"/>
<g clip-path="url(#clip0_2657:23051)">
<path d="M8.43555 16.5068H21.5605V19.5202H8.43555V16.5068Z" fill="#5679F8"/>
<path d="M8.43555 10.4797H21.5605V13.4931H8.43555V10.4797Z" fill="#5679F8"/>
<path d="M14.998 10.4797H21.5605V13.4931H14.998V10.4797Z" fill="#3754C0"/>
<path d="M14.998 16.5068H21.5605V19.5202H14.998V16.5068Z" fill="#3754C0"/>
<path d="M23.0684 6.42871H6.92997C6.64864 6.42871 6.42773 6.64961 6.42773 6.93094V10.9823C6.42773 11.2635 6.64864 11.4845 6.92997 11.4845H23.0684C23.3497 11.4845 23.5706 11.2635 23.5706 10.9823V6.93094C23.5706 6.64961 23.3497 6.42871 23.0684 6.42871Z" fill="#A0B4FB"/>
<path d="M23.0684 12.489H6.92997C6.64864 12.489 6.42773 12.7099 6.42773 12.9912V17.0091C6.42773 17.2903 6.64864 17.5113 6.92997 17.5113H23.0684C23.3497 17.5113 23.5706 17.2903 23.5706 17.0091V12.9912C23.5706 12.7099 23.3497 12.489 23.0684 12.489Z" fill="#A0B4FB"/>
<path d="M23.0684 18.5161H6.92997C6.64864 18.5161 6.42773 18.737 6.42773 19.0183V23.0697C6.42773 23.3509 6.64864 23.5719 6.92997 23.5719H23.0684C23.3497 23.5719 23.5706 23.3509 23.5706 23.0697V19.0183C23.5706 18.737 23.3497 18.5161 23.0684 18.5161Z" fill="#A0B4FB"/>
<path d="M23.5695 6.93094V10.9823C23.5695 11.2635 23.3486 11.4845 23.0672 11.4845H14.998V6.42871H23.0672C23.3486 6.42871 23.5695 6.64961 23.5695 6.93094Z" fill="#5679F8"/>
<path d="M23.5695 12.9912V17.0091C23.5695 17.2903 23.3486 17.5113 23.0672 17.5113H14.998V12.489H23.0672C23.3486 12.489 23.5695 12.7099 23.5695 12.9912Z" fill="#5679F8"/>
<path d="M23.5695 19.0183V23.0697C23.5695 23.3509 23.3486 23.5719 23.0672 23.5719H14.998V18.5161H23.0672C23.3486 18.5161 23.5695 18.737 23.5695 19.0183Z" fill="#5679F8"/>
<path d="M9.44001 21.0271C9.44001 21.3045 9.21518 21.5294 8.93778 21.5294C8.66037 21.5294 8.43555 21.3045 8.43555 21.0271C8.43555 20.7497 8.66037 20.5249 8.93778 20.5249C9.21518 20.5249 9.44001 20.7497 9.44001 21.0271Z" fill="white"/>
<path d="M11.4498 21.0271C11.4498 21.3045 11.2249 21.5294 10.9475 21.5294C10.6701 21.5294 10.4453 21.3045 10.4453 21.0271C10.4453 20.7497 10.6701 20.5249 10.9475 20.5249C11.2249 20.5249 11.4498 20.7497 11.4498 21.0271Z" fill="white"/>
<path d="M13.4595 21.0271C13.4595 21.3045 13.2347 21.5294 12.9573 21.5294C12.6799 21.5294 12.4551 21.3045 12.4551 21.0271C12.4551 20.7497 12.6799 20.5249 12.9573 20.5249C13.2347 20.5249 13.4595 20.7497 13.4595 21.0271Z" fill="white"/>
<path d="M9.44001 15.001C9.44001 15.2784 9.21518 15.5032 8.93778 15.5032C8.66037 15.5032 8.43555 15.2784 8.43555 15.001C8.43555 14.7236 8.66037 14.4988 8.93778 14.4988C9.21518 14.4988 9.44001 14.7236 9.44001 15.001Z" fill="white"/>
<path d="M11.4498 15.001C11.4498 15.2784 11.2249 15.5032 10.9475 15.5032C10.6701 15.5032 10.4453 15.2784 10.4453 15.001C10.4453 14.7236 10.6701 14.4988 10.9475 14.4988C11.2249 14.4988 11.4498 14.7236 11.4498 15.001Z" fill="white"/>
<path d="M13.4595 15.001C13.4595 15.2784 13.2347 15.5032 12.9573 15.5032C12.6799 15.5032 12.4551 15.2784 12.4551 15.001C12.4551 14.7236 12.6799 14.4988 12.9573 14.4988C13.2347 14.4988 13.4595 14.7236 13.4595 15.001Z" fill="white"/>
<path d="M9.44001 8.97342C9.44001 9.25083 9.21518 9.47566 8.93778 9.47566C8.66037 9.47566 8.43555 9.25083 8.43555 8.97342C8.43555 8.69602 8.66037 8.47119 8.93778 8.47119C9.21518 8.47119 9.44001 8.69602 9.44001 8.97342Z" fill="white"/>
<path d="M11.4498 8.97391C11.4498 9.25132 11.2249 9.47614 10.9475 9.47614C10.6701 9.47614 10.4453 9.25132 10.4453 8.97391C10.4453 8.69651 10.6701 8.47168 10.9475 8.47168C11.2249 8.47168 11.4498 8.69651 11.4498 8.97391Z" fill="white"/>
<path d="M13.4595 8.97391C13.4595 9.25132 13.2347 9.47614 12.9573 9.47614C12.6799 9.47614 12.4551 9.25132 12.4551 8.97391C12.4551 8.69651 12.6799 8.47168 12.9573 8.47168C13.2347 8.47168 13.4595 8.69651 13.4595 8.97391Z" fill="white"/>
</g>
<defs>
<clipPath id="clip0_2657:23051">
<rect width="17.1429" height="17.1429" fill="white" transform="translate(6.42773 6.42871)"/>
</clipPath>
</defs>
</svg>
