<svg width="162" height="12" viewBox="0 0 162 12" fill="none" xmlns="http://www.w3.org/2000/svg">
<path d="M0.0429688 0.965289H1.0909V10.5359H6.64211V11.499H0.0429688V0.965289Z" fill="url(#paint0_linear_3581:24836)"/>
<path d="M24.4551 0.965289H25.503V11.499H24.4551V0.965289Z" fill="url(#paint1_linear_3581:24836)"/>
<path d="M55.0966 0.965289V11.499H54.0912V3.07203L50.1968 10.1597H49.7012L45.8068 3.11717V11.499H44.8014V0.965289H45.6652L49.9702 8.77528L54.2328 0.965289H55.0966Z" fill="url(#paint2_linear_3581:24836)"/>
<path d="M78.7045 11.5893C77.7227 11.5893 76.8352 11.3585 76.0422 10.8971C75.2586 10.4356 74.6403 9.79856 74.1871 8.98596C73.7434 8.16332 73.5215 7.24539 73.5215 6.23214C73.5215 5.2189 73.7434 4.30598 74.1871 3.49338C74.6403 2.67075 75.2634 2.02869 76.0564 1.56722C76.8494 1.10574 77.7368 0.875 78.7187 0.875C79.4551 0.875 80.1348 1.00542 80.7579 1.26625C81.381 1.52709 81.9097 1.90831 82.344 2.40991L81.6784 3.11717C80.9043 2.28451 79.9271 1.86818 78.747 1.86818C77.9634 1.86818 77.2506 2.05879 76.6087 2.44001C75.9667 2.82123 75.4616 3.3429 75.0934 4.00502C74.7347 4.66714 74.5553 5.40951 74.5553 6.23214C74.5553 7.05478 74.7347 7.79715 75.0934 8.45927C75.4616 9.12139 75.9667 9.64306 76.6087 10.0243C77.2506 10.4055 77.9634 10.5961 78.747 10.5961C79.9366 10.5961 80.9137 10.1748 81.6784 9.33206L82.344 10.0393C81.9097 10.5409 81.3763 10.9272 80.7438 11.198C80.1207 11.4589 79.4409 11.5893 78.7045 11.5893Z" fill="url(#paint3_linear_3581:24836)"/>
<path d="M104.777 11.5893C103.795 11.5893 102.903 11.3585 102.1 10.8971C101.307 10.4256 100.684 9.78351 100.231 8.97091C99.7874 8.15831 99.5655 7.24539 99.5655 6.23214C99.5655 5.2189 99.7874 4.30598 100.231 3.49338C100.684 2.68078 101.307 2.04374 102.1 1.58226C102.903 1.11075 103.795 0.875 104.777 0.875C105.759 0.875 106.641 1.10574 107.425 1.56722C108.218 2.02869 108.841 2.67075 109.294 3.49338C109.747 4.30598 109.974 5.2189 109.974 6.23214C109.974 7.24539 109.747 8.16332 109.294 8.98596C108.841 9.79856 108.218 10.4356 107.425 10.8971C106.641 11.3585 105.759 11.5893 104.777 11.5893ZM104.777 10.5961C105.56 10.5961 106.269 10.4105 106.901 10.0393C107.534 9.65811 108.029 9.13644 108.388 8.47432C108.747 7.80217 108.926 7.05478 108.926 6.23214C108.926 5.40951 108.747 4.66714 108.388 4.00502C108.029 3.33287 107.534 2.8112 106.901 2.44001C106.269 2.05879 105.56 1.86818 104.777 1.86818C103.993 1.86818 103.28 2.05879 102.639 2.44001C102.006 2.8112 101.506 3.33287 101.137 4.00502C100.779 4.66714 100.599 5.40951 100.599 6.23214C100.599 7.05478 100.779 7.80217 101.137 8.47432C101.506 9.13644 102.006 9.65811 102.639 10.0393C103.28 10.4105 103.993 10.5961 104.777 10.5961Z" fill="url(#paint4_linear_3581:24836)"/>
<path d="M135.165 11.499L132.899 8.11316C132.644 8.14326 132.38 8.15831 132.106 8.15831H129.444V11.499H128.396V0.965289H132.106C133.371 0.965289 134.363 1.28632 135.08 1.92837C135.798 2.57043 136.156 3.45325 136.156 4.57685C136.156 5.39948 135.958 6.09671 135.562 6.66854C135.174 7.23034 134.617 7.63664 133.891 7.88744L136.312 11.499H135.165ZM132.078 7.21027C133.06 7.21027 133.81 6.97953 134.33 6.51806C134.849 6.05658 135.108 5.40951 135.108 4.57685C135.108 3.72412 134.849 3.07203 134.33 2.62059C133.81 2.15911 133.06 1.92837 132.078 1.92837H129.444V7.21027H132.078Z" fill="url(#paint5_linear_3581:24836)"/>
<path d="M161.713 10.5359V11.499H154.703V0.965289H161.5V1.92837H155.751V5.67536H160.877V6.6234H155.751V10.5359H161.713Z" fill="url(#paint6_linear_3581:24836)"/>
<defs>
<linearGradient id="paint0_linear_3581:24836" x1="2.26325" y1="6.27369" x2="162.603" y2="6.27369" gradientUnits="userSpaceOnUse">
<stop offset="0.603091"/>
<stop offset="1" stop-opacity="0.4"/>
</linearGradient>
<linearGradient id="paint1_linear_3581:24836" x1="2.26325" y1="6.27369" x2="162.603" y2="6.27369" gradientUnits="userSpaceOnUse">
<stop offset="0.603091"/>
<stop offset="1" stop-opacity="0.4"/>
</linearGradient>
<linearGradient id="paint2_linear_3581:24836" x1="2.26325" y1="6.27369" x2="162.603" y2="6.27369" gradientUnits="userSpaceOnUse">
<stop offset="0.603091"/>
<stop offset="1" stop-opacity="0.4"/>
</linearGradient>
<linearGradient id="paint3_linear_3581:24836" x1="2.26325" y1="6.27369" x2="162.603" y2="6.27369" gradientUnits="userSpaceOnUse">
<stop offset="0.603091"/>
<stop offset="1" stop-opacity="0.4"/>
</linearGradient>
<linearGradient id="paint4_linear_3581:24836" x1="2.26325" y1="6.27369" x2="162.603" y2="6.27369" gradientUnits="userSpaceOnUse">
<stop offset="0.603091"/>
<stop offset="1" stop-opacity="0.4"/>
</linearGradient>
<linearGradient id="paint5_linear_3581:24836" x1="2.26325" y1="6.27369" x2="162.603" y2="6.27369" gradientUnits="userSpaceOnUse">
<stop offset="0.603091"/>
<stop offset="1" stop-opacity="0.4"/>
</linearGradient>
<linearGradient id="paint6_linear_3581:24836" x1="2.26325" y1="6.27369" x2="162.603" y2="6.27369" gradientUnits="userSpaceOnUse">
<stop offset="0.603091"/>
<stop offset="1" stop-opacity="0.4"/>
</linearGradient>
</defs>
</svg>
