<svg width="201" height="13" viewBox="0 0 201 13" fill="none" xmlns="http://www.w3.org/2000/svg">
<path d="M0 0.10955H1.30287V11.7219H8.20456V12.8904H0V0.10955Z" fill="url(#paint0_linear_2431:23562)"/>
<path d="M30.351 0.10955H31.6539V12.8904H30.351V0.10955Z" fill="url(#paint1_linear_2431:23562)"/>
<path d="M68.4469 0.10955V12.8904H67.1969V2.66573L62.3551 11.2654H61.7389L56.8972 2.72051V12.8904H55.6471V0.10955H56.7211L62.0734 9.58567L67.3729 0.10955H68.4469Z" fill="url(#paint2_linear_2431:23562)"/>
<path d="M97.7981 13C96.5774 13 95.4741 12.72 94.4881 12.1601C93.5139 11.6002 92.7451 10.8272 92.1817 9.84129C91.63 8.84316 91.3542 7.7294 91.3542 6.5C91.3542 5.2706 91.63 4.16292 92.1817 3.17697C92.7451 2.17884 93.5198 1.39981 94.5057 0.839888C95.4917 0.279963 96.595 0 97.8157 0C98.7312 0 99.5763 0.15824 100.351 0.474719C101.126 0.791198 101.783 1.25375 102.323 1.86236L101.495 2.72051C100.533 1.71021 99.3181 1.20506 97.8509 1.20506C96.8767 1.20506 95.9905 1.43633 95.1924 1.89888C94.3942 2.36142 93.7663 2.99438 93.3085 3.79775C92.8625 4.60112 92.6394 5.50187 92.6394 6.5C92.6394 7.49813 92.8625 8.39888 93.3085 9.20225C93.7663 10.0056 94.3942 10.6386 95.1924 11.1011C95.9905 11.5637 96.8767 11.7949 97.8509 11.7949C99.3299 11.7949 100.545 11.2837 101.495 10.2612L102.323 11.1194C101.783 11.728 101.12 12.1966 100.333 12.5253C99.5587 12.8418 98.7136 13 97.7981 13Z" fill="url(#paint3_linear_2431:23562)"/>
<path d="M130.213 13C128.992 13 127.883 12.72 126.886 12.1601C125.9 11.588 125.125 10.809 124.562 9.82303C124.01 8.83708 123.734 7.7294 123.734 6.5C123.734 5.2706 124.01 4.16292 124.562 3.17697C125.125 2.19101 125.9 1.41807 126.886 0.858146C127.883 0.286049 128.992 0 130.213 0C131.434 0 132.531 0.279963 133.506 0.839888C134.492 1.39981 135.266 2.17884 135.83 3.17697C136.393 4.16292 136.675 5.2706 136.675 6.5C136.675 7.7294 136.393 8.84316 135.83 9.84129C135.266 10.8272 134.492 11.6002 133.506 12.1601C132.531 12.72 131.434 13 130.213 13ZM130.213 11.7949C131.187 11.7949 132.068 11.5698 132.854 11.1194C133.641 10.6568 134.257 10.0239 134.703 9.22051C135.149 8.40496 135.372 7.49813 135.372 6.5C135.372 5.50187 135.149 4.60112 134.703 3.79775C134.257 2.98221 133.641 2.34925 132.854 1.89888C132.068 1.43633 131.187 1.20506 130.213 1.20506C129.239 1.20506 128.353 1.43633 127.555 1.89888C126.768 2.34925 126.146 2.98221 125.688 3.79775C125.242 4.60112 125.019 5.50187 125.019 6.5C125.019 7.49813 125.242 8.40496 125.688 9.22051C126.146 10.0239 126.768 10.6568 127.555 11.1194C128.353 11.5698 129.239 11.7949 130.213 11.7949Z" fill="url(#paint4_linear_2431:23562)"/>
<path d="M167.994 12.8904L165.177 8.7823C164.86 8.81882 164.532 8.83708 164.191 8.83708H160.881V12.8904H159.578V0.10955H164.191C165.764 0.10955 166.996 0.499063 167.888 1.27809C168.781 2.05712 169.227 3.12828 169.227 4.49157C169.227 5.4897 168.98 6.33567 168.487 7.02949C168.006 7.71114 167.313 8.20412 166.41 8.50843L169.42 12.8904H167.994ZM164.156 7.6868C165.377 7.6868 166.31 7.40683 166.955 6.84691C167.601 6.28698 167.924 5.50187 167.924 4.49157C167.924 3.45693 167.601 2.66573 166.955 2.11798C166.31 1.55805 165.377 1.27809 164.156 1.27809H160.881V7.6868H164.156Z" fill="url(#paint5_linear_2431:23562)"/>
<path d="M201 11.7219V12.8904H192.285V0.10955H200.736V1.27809H193.588V5.82444H199.961V6.97472H193.588V11.7219H201Z" fill="url(#paint6_linear_2431:23562)"/>
<defs>
<linearGradient id="paint0_linear_2431:23562" x1="2.76042" y1="6.55041" x2="202.107" y2="6.55041" gradientUnits="userSpaceOnUse">
<stop offset="0.603091" stop-color="#8CB3FF"/>
<stop offset="1" stop-color="#ACC3FF" stop-opacity="0.4"/>
</linearGradient>
<linearGradient id="paint1_linear_2431:23562" x1="2.76042" y1="6.55041" x2="202.107" y2="6.55041" gradientUnits="userSpaceOnUse">
<stop offset="0.603091" stop-color="#8CB3FF"/>
<stop offset="1" stop-color="#ACC3FF" stop-opacity="0.4"/>
</linearGradient>
<linearGradient id="paint2_linear_2431:23562" x1="2.76042" y1="6.55041" x2="202.107" y2="6.55041" gradientUnits="userSpaceOnUse">
<stop offset="0.603091" stop-color="#8CB3FF"/>
<stop offset="1" stop-color="#ACC3FF" stop-opacity="0.4"/>
</linearGradient>
<linearGradient id="paint3_linear_2431:23562" x1="2.76042" y1="6.55041" x2="202.107" y2="6.55041" gradientUnits="userSpaceOnUse">
<stop offset="0.603091" stop-color="#8CB3FF"/>
<stop offset="1" stop-color="#ACC3FF" stop-opacity="0.4"/>
</linearGradient>
<linearGradient id="paint4_linear_2431:23562" x1="2.76042" y1="6.55041" x2="202.107" y2="6.55041" gradientUnits="userSpaceOnUse">
<stop offset="0.603091" stop-color="#8CB3FF"/>
<stop offset="1" stop-color="#ACC3FF" stop-opacity="0.4"/>
</linearGradient>
<linearGradient id="paint5_linear_2431:23562" x1="2.76042" y1="6.55041" x2="202.107" y2="6.55041" gradientUnits="userSpaceOnUse">
<stop offset="0.603091" stop-color="#8CB3FF"/>
<stop offset="1" stop-color="#ACC3FF" stop-opacity="0.4"/>
</linearGradient>
<linearGradient id="paint6_linear_2431:23562" x1="2.76042" y1="6.55041" x2="202.107" y2="6.55041" gradientUnits="userSpaceOnUse">
<stop offset="0.603091" stop-color="#8CB3FF"/>
<stop offset="1" stop-color="#ACC3FF" stop-opacity="0.4"/>
</linearGradient>
</defs>
</svg>
