<svg width="46" height="46" viewBox="0 0 46 46" fill="none" xmlns="http://www.w3.org/2000/svg">
<circle cx="23" cy="23" r="23" fill="#D3D8DF"/>
<g clip-path="url(#clip0_3582:24885)">
<path d="M18.3878 17.9048H14.0136C13.8194 17.9048 13.6621 18.0622 13.6621 18.2562V32.3089C13.6621 32.503 13.8194 32.6603 14.0136 32.6603H18.3878C18.582 32.6603 18.7393 32.503 18.7393 32.3089V18.2562C18.7393 18.0622 18.582 17.9048 18.3878 17.9048Z" fill="#393C42"/>
<path d="M16.2029 10.9185C14.6113 10.9185 13.3164 12.2119 13.3164 13.8018C13.3164 15.3923 14.6113 16.6863 16.2029 16.6863C17.7932 16.6863 19.087 15.3923 19.087 13.8018C19.0871 12.2119 17.7932 10.9185 16.2029 10.9185Z" fill="#393C42"/>
<path d="M29.5146 17.5552C27.7578 17.5552 26.459 18.3104 25.6713 19.1686V18.2559C25.6713 18.0618 25.514 17.9044 25.3199 17.9044H21.1307C20.9366 17.9044 20.7793 18.0618 20.7793 18.2559V32.3085C20.7793 32.5027 20.9366 32.66 21.1307 32.66H25.4955C25.6896 32.66 25.8469 32.5027 25.8469 32.3085V25.3557C25.8469 23.0128 26.4833 22.1 28.1165 22.1C29.8952 22.1 30.0366 23.5633 30.0366 25.4763V32.3086C30.0366 32.5027 30.1939 32.6601 30.388 32.6601H34.7544C34.9485 32.6601 35.1058 32.5027 35.1058 32.3086V24.6005C35.1058 21.1166 34.4415 17.5552 29.5146 17.5552Z" fill="#393C42"/>
</g>
<defs>
<clipPath id="clip0_3582:24885">
<rect width="21.7895" height="21.7895" fill="white" transform="translate(13.3164 10.8945)"/>
</clipPath>
</defs>
</svg>
