<svg width="19" height="18" viewBox="0 0 19 18" fill="none" xmlns="http://www.w3.org/2000/svg">
<path d="M9.4997 0.230469C7.56065 0.230469 5.67627 0.873153 4.14132 2.058C2.60637 3.24284 1.50742 4.90302 1.01635 6.77886C0.525274 8.6547 0.669784 10.6404 1.42727 12.4254C2.18476 14.2104 3.5125 15.6939 5.20282 16.6441C6.89315 17.5942 8.85071 17.9573 10.7693 17.6765C12.688 17.3958 14.4594 16.4871 15.8067 15.0925C17.1539 13.6979 18.0009 11.8961 18.2152 9.96889C18.4295 8.04172 17.999 6.09786 16.9911 4.44136L14.5923 5.90094C15.2775 7.02703 15.5702 8.34846 15.4245 9.65855C15.2788 10.9686 14.703 12.1935 13.7872 13.1416C12.8713 14.0896 11.6671 14.7074 10.3628 14.8982C9.05852 15.0891 7.72777 14.8422 6.57869 14.1963C5.42961 13.5504 4.52701 12.5419 4.01207 11.3285C3.49713 10.1151 3.39889 8.76517 3.73272 7.48998C4.06655 6.21478 4.81362 5.08619 5.85708 4.28074C6.90054 3.47528 8.18153 3.03838 9.4997 3.03838V0.230469Z" fill="#26DFF8"/>
</svg>
