<svg width="16" height="21" viewBox="0 0 16 21" fill="none" xmlns="http://www.w3.org/2000/svg">
<path fill-rule="evenodd" clip-rule="evenodd" d="M13.9167 6.99999H12.9226V5C12.9226 2.24001 10.6959 0 7.95238 0C5.20881 0 2.98214 2.24001 2.98214 5V6.99999H1.9881C0.894643 6.99999 0 7.90001 0 9V19C0 20.1001 0.894643 21 1.9881 21H13.9167C15.0101 21 15.9048 20.1001 15.9048 19V9C15.9048 7.90001 15.0101 6.99999 13.9167 6.99999ZM7.95238 16C6.85893 16 5.96429 15.1 5.96429 14C5.96429 12.9 6.85893 12 7.95238 12C9.04583 12 9.94048 12.9 9.94048 14C9.94048 15.1 9.04583 16 7.95238 16ZM11.0339 6.99999H4.87083V5C4.87083 3.29001 6.25256 1.9 7.95238 1.9C9.6522 1.9 11.0339 3.29001 11.0339 5V6.99999Z" fill="#4A70F8"/>
</svg>
