<svg width="13" height="18" viewBox="0 0 13 18" fill="none" xmlns="http://www.w3.org/2000/svg">
<path fill-rule="evenodd" clip-rule="evenodd" d="M11.375 6H10.5625V4.28572C10.5625 1.92 8.7425 0 6.5 0C4.2575 0 2.4375 1.92 2.4375 4.28572V6H1.62501C0.73125 6 0 6.77143 0 7.71429V16.2857C0 17.2286 0.73125 18 1.62501 18H11.375C12.2688 18 13 17.2286 13 16.2857V7.71429C13 6.77143 12.2688 6 11.375 6ZM6.5 13.7143C5.60625 13.7143 4.87501 12.9429 4.87501 12C4.87501 11.0571 5.60625 10.2857 6.5 10.2857C7.39375 10.2857 8.12501 11.0571 8.12501 12C8.12501 12.9429 7.39375 13.7143 6.5 13.7143ZM9.01875 6H3.98125V4.28572C3.98125 2.82 5.11063 1.62857 6.5 1.62857C7.88937 1.62857 9.01875 2.82 9.01875 4.28572V6Z" fill="#4F848A"/>
</svg>
