<svg width="24" height="24" viewBox="0 0 24 24" fill="none" xmlns="http://www.w3.org/2000/svg">
<g clip-path="url(#clip0_225:7858)">
<path d="M11.9602 21.9667H2.99002C2.43984 21.9667 1.99336 21.5202 1.99336 20.9701V3.02986C1.99336 2.47969 2.43989 2.0332 2.99002 2.0332H11.9602C12.5113 2.0332 12.9568 1.5877 12.9568 1.03654C12.9568 0.485389 12.5113 0.0397949 11.9602 0.0397949H2.99002C1.34152 0.0397949 0 1.38136 0 3.02986V20.97C0 22.6185 1.34152 23.9601 2.99002 23.9601H11.9602C12.5113 23.9601 12.9568 23.5146 12.9568 22.9634C12.9568 22.4122 12.5113 21.9667 11.9602 21.9667Z" fill="#4A70F8"/>
<path d="M23.703 11.2905L17.6432 5.31037C17.2525 4.92366 16.6207 4.92867 16.2339 5.32036C15.8472 5.71205 15.8512 6.34294 16.2439 6.72966L20.5745 11.0034H8.97014C8.41898 11.0034 7.97348 11.4489 7.97348 12C7.97348 12.5512 8.41898 12.9967 8.97014 12.9967H20.5745L16.2439 17.2705C15.8512 17.6572 15.8482 18.2881 16.2339 18.6798C16.4293 18.8771 16.6864 18.9768 16.9436 18.9768C17.1967 18.9768 17.4499 18.8811 17.6432 18.6897L23.703 12.7096C23.8924 12.5223 24 12.2671 24 12C24 11.733 23.8934 11.4788 23.703 11.2905Z" fill="#4A70F8"/>
</g>
<defs>
<clipPath id="clip0_225:7858">
<rect width="24" height="24" fill="white"/>
</clipPath>
</defs>
</svg>
