<svg width="175" height="12" viewBox="0 0 175 12" fill="none" xmlns="http://www.w3.org/2000/svg">
<path d="M0.207031 0.096308H1.33907V10.305H7.33583V11.3323H0.207031V0.096308Z" fill="url(#paint0_linear_2431:23093)"/>
<path d="M26.5785 0.096308H27.7105V11.3323H26.5785V0.096308Z" fill="url(#paint1_linear_2431:23093)"/>
<path d="M59.6793 0.096308V11.3323H58.5932V2.3435L54.3863 9.90369H53.8508L49.6439 2.39165V11.3323H48.5578V0.096308H49.491L54.1415 8.42697L58.7462 0.096308H59.6793Z" fill="url(#paint2_linear_2431:23093)"/>
<path d="M85.182 11.4286C84.1214 11.4286 83.1627 11.1824 82.306 10.6902C81.4596 10.198 80.7916 9.51846 80.302 8.65168C79.8227 7.77421 79.583 6.79508 79.583 5.71429C79.583 4.63349 79.8227 3.65971 80.302 2.79294C80.7916 1.91546 81.4647 1.2306 82.3213 0.738363C83.178 0.246121 84.1367 0 85.1973 0C85.9928 0 86.7271 0.139112 87.4002 0.417336C88.0733 0.695559 88.6444 1.10219 89.1136 1.63724L88.3946 2.39165C87.5583 1.50348 86.5027 1.05939 85.2279 1.05939C84.3814 1.05939 83.6115 1.26271 82.918 1.66934C82.2245 2.07598 81.6788 2.63242 81.2811 3.33868C80.8935 4.04494 80.6998 4.83681 80.6998 5.71429C80.6998 6.59176 80.8935 7.38363 81.2811 8.08989C81.6788 8.79615 82.2245 9.35259 82.918 9.75923C83.6115 10.1659 84.3814 10.3692 85.2279 10.3692C86.5129 10.3692 87.5685 9.91974 88.3946 9.02087L89.1136 9.77528C88.6444 10.3103 88.0682 10.7223 87.3849 11.0112C86.7118 11.2895 85.9775 11.4286 85.182 11.4286Z" fill="url(#paint3_linear_2431:23093)"/>
<path d="M113.347 11.4286C112.286 11.4286 111.323 11.1824 110.456 10.6902C109.599 10.1873 108.926 9.50241 108.436 8.63563C107.957 7.76886 107.717 6.79508 107.717 5.71429C107.717 4.63349 107.957 3.65971 108.436 2.79294C108.926 1.92616 109.599 1.24666 110.456 0.754414C111.323 0.251472 112.286 0 113.347 0C114.408 0 115.361 0.246121 116.208 0.738363C117.064 1.2306 117.737 1.91546 118.227 2.79294C118.716 3.65971 118.961 4.63349 118.961 5.71429C118.961 6.79508 118.716 7.77421 118.227 8.65168C117.737 9.51846 117.064 10.198 116.208 10.6902C115.361 11.1824 114.408 11.4286 113.347 11.4286ZM113.347 10.3692C114.193 10.3692 114.958 10.1712 115.642 9.77528C116.325 9.36865 116.86 8.8122 117.248 8.10594C117.635 7.38898 117.829 6.59176 117.829 5.71429C117.829 4.83681 117.635 4.04494 117.248 3.33868C116.86 2.62172 116.325 2.06528 115.642 1.66934C114.958 1.26271 114.193 1.05939 113.347 1.05939C112.5 1.05939 111.73 1.26271 111.037 1.66934C110.354 2.06528 109.813 2.62172 109.415 3.33868C109.028 4.04494 108.834 4.83681 108.834 5.71429C108.834 6.59176 109.028 7.38898 109.415 8.10594C109.813 8.8122 110.354 9.36865 111.037 9.77528C111.73 10.1712 112.5 10.3692 113.347 10.3692Z" fill="url(#paint4_linear_2431:23093)"/>
<path d="M146.174 11.3323L143.726 7.72071C143.451 7.75281 143.165 7.76886 142.87 7.76886H139.994V11.3323H138.862V0.096308H142.87C144.236 0.096308 145.307 0.438737 146.082 1.1236C146.857 1.80845 147.245 2.75013 147.245 3.94864C147.245 4.82611 147.031 5.56982 146.602 6.17977C146.184 6.77903 145.583 7.21241 144.797 7.47994L147.413 11.3323H146.174ZM142.839 6.75762C143.9 6.75762 144.711 6.5115 145.272 6.01926C145.832 5.52702 146.113 4.83681 146.113 3.94864C146.113 3.03906 145.832 2.3435 145.272 1.86196C144.711 1.36972 143.9 1.1236 142.839 1.1236H139.994V6.75762H142.839Z" fill="url(#paint5_linear_2431:23093)"/>
<path d="M174.852 10.305V11.3323H167.28V0.096308H174.623V1.1236H168.412V5.12039H173.95V6.13162H168.412V10.305H174.852Z" fill="url(#paint6_linear_2431:23093)"/>
<defs>
<linearGradient id="paint0_linear_2431:23093" x1="2.60551" y1="5.7586" x2="175.814" y2="5.7586" gradientUnits="userSpaceOnUse">
<stop offset="0.603091"/>
<stop offset="1" stop-opacity="0.4"/>
</linearGradient>
<linearGradient id="paint1_linear_2431:23093" x1="2.60551" y1="5.7586" x2="175.814" y2="5.7586" gradientUnits="userSpaceOnUse">
<stop offset="0.603091"/>
<stop offset="1" stop-opacity="0.4"/>
</linearGradient>
<linearGradient id="paint2_linear_2431:23093" x1="2.60551" y1="5.7586" x2="175.814" y2="5.7586" gradientUnits="userSpaceOnUse">
<stop offset="0.603091"/>
<stop offset="1" stop-opacity="0.4"/>
</linearGradient>
<linearGradient id="paint3_linear_2431:23093" x1="2.60551" y1="5.7586" x2="175.814" y2="5.7586" gradientUnits="userSpaceOnUse">
<stop offset="0.603091"/>
<stop offset="1" stop-opacity="0.4"/>
</linearGradient>
<linearGradient id="paint4_linear_2431:23093" x1="2.60551" y1="5.7586" x2="175.814" y2="5.7586" gradientUnits="userSpaceOnUse">
<stop offset="0.603091"/>
<stop offset="1" stop-opacity="0.4"/>
</linearGradient>
<linearGradient id="paint5_linear_2431:23093" x1="2.60551" y1="5.7586" x2="175.814" y2="5.7586" gradientUnits="userSpaceOnUse">
<stop offset="0.603091"/>
<stop offset="1" stop-opacity="0.4"/>
</linearGradient>
<linearGradient id="paint6_linear_2431:23093" x1="2.60551" y1="5.7586" x2="175.814" y2="5.7586" gradientUnits="userSpaceOnUse">
<stop offset="0.603091"/>
<stop offset="1" stop-opacity="0.4"/>
</linearGradient>
</defs>
</svg>
