<svg width="77" height="35" viewBox="0 0 77 35" fill="none" xmlns="http://www.w3.org/2000/svg">
<path d="M24.5527 19.4155C24.5527 19.2054 24.5948 6.68195 24.5948 6.68195L15.8079 17.1882H13.2433L4.41444 6.68195V27.8205H0V0H4.49853L14.5887 12.5234L24.5527 0H28.9671V19.4155H24.5527Z" fill="#B7B7B7"/>
<path d="M54.6845 5.65233C55.2416 5.65233 55.7862 5.4872 56.2495 5.17781C56.7127 4.86842 57.0737 4.42867 57.2869 3.91418C57.5001 3.39968 57.5559 2.83354 57.4472 2.28735C57.3385 1.74117 57.0702 1.23946 56.6763 0.845686C56.2824 0.451908 55.7805 0.183743 55.234 0.0751002C54.6876 -0.033543 54.1213 0.0222146 53.6066 0.235326C53.0919 0.448437 52.6519 0.809329 52.3424 1.27236C52.0329 1.7354 51.8677 2.27978 51.8677 2.83666C51.8677 3.58343 52.1645 4.2996 52.6927 4.82764C53.221 5.35568 53.9374 5.65233 54.6845 5.65233Z" fill="#B7B7B7"/>
<path d="M48.7626 17.949C48.7833 16.9127 48.5884 15.8834 48.1904 14.9264C47.7924 13.9693 47.1998 13.1053 46.4502 12.3891C44.8488 10.9238 42.7564 10.111 40.5853 10.111C38.4142 10.111 36.3219 10.9238 34.7204 12.3891C33.9692 13.104 33.3755 13.9678 32.9774 14.9252C32.5792 15.8826 32.3853 16.9124 32.4081 17.949C32.385 18.9862 32.5787 20.0168 32.9769 20.9749C33.3751 21.933 33.9689 22.7975 34.7204 23.5131C36.3219 24.9784 38.4142 25.7912 40.5853 25.7912C42.7564 25.7912 44.8488 24.9784 46.4502 23.5131C47.2003 22.7964 47.7932 21.9317 48.1912 20.9739C48.5893 20.0161 48.7839 18.986 48.7626 17.949ZM40.5223 22.2944C39.861 22.2957 39.2083 22.1448 38.6148 21.8533C38.0213 21.5617 37.503 21.1375 37.1 20.6134C36.5637 19.8298 36.2767 18.9026 36.2767 17.9532C36.2767 17.0038 36.5637 16.0766 37.1 15.293C37.5034 14.7698 38.0215 14.3461 38.6144 14.0546C39.2074 13.763 39.8594 13.6114 40.5202 13.6114C41.181 13.6114 41.833 13.763 42.4259 14.0546C43.0189 14.3461 43.537 14.7698 43.9403 15.293C44.4783 16.0759 44.7663 17.0034 44.7663 17.9532C44.7663 18.903 44.4783 19.8305 43.9403 20.6134C43.5384 21.1376 43.0209 21.5621 42.4281 21.8536C41.8352 22.1452 41.183 22.296 40.5223 22.2944Z" fill="#B7B7B7"/>
<path d="M76.5091 17.9152C76.5319 16.878 76.3381 15.8475 75.9399 14.8894C75.5418 13.9314 74.9481 13.0668 74.1968 12.3511C72.5953 10.8858 70.5029 10.073 68.3319 10.073C66.1608 10.073 64.0684 10.8858 62.467 12.3511C61.7171 13.0673 61.124 13.9312 60.7252 14.8882C60.3265 15.8452 60.1308 16.8745 60.1504 17.911C60.1296 18.9479 60.3244 19.9778 60.7225 20.9356C61.1205 21.8934 61.7131 22.7581 62.4628 23.4751C64.0642 24.9404 66.1566 25.7532 68.3277 25.7532C70.4987 25.7532 72.5911 24.9404 74.1926 23.4751C74.9439 22.7594 75.5376 21.8949 75.9357 20.9368C76.3339 19.9787 76.5277 18.9482 76.5049 17.911L76.5091 17.9152ZM68.2688 22.2564C67.6082 22.2574 66.9562 22.1063 66.3634 21.8148C65.7707 21.5232 65.2531 21.0992 64.8508 20.5754C64.3128 19.7925 64.0248 18.865 64.0248 17.9152C64.0248 16.9654 64.3128 16.0379 64.8508 15.255C65.2541 14.7318 65.7722 14.3081 66.3652 14.0166C66.9581 13.725 67.6101 13.5734 68.2709 13.5734C68.9317 13.5734 69.5837 13.725 70.1766 14.0166C70.7696 14.3081 71.2877 14.7318 71.691 15.255C72.229 16.0379 72.517 16.9654 72.517 17.9152C72.517 18.865 72.229 19.7925 71.691 20.5754C71.2883 21.0997 70.77 21.5242 70.1765 21.8157C69.5829 22.1072 68.9301 22.258 68.2688 22.2564Z" fill="#B7B7B7"/>
<path d="M49.7614 8.42599V12.7966H53.1585C53.1585 12.7966 53.2005 17.4571 53.1585 19.0079C53.1811 20.4679 52.9697 21.9222 52.532 23.3154C52.057 24.6924 51.3124 25.961 50.3416 27.0472C48.147 29.5015 44.6028 30.8295 41.004 30.8295C38.905 30.8299 36.8422 30.2823 35.0201 29.2407C33.1979 28.1992 31.6795 26.6999 30.6154 24.8913L26.7349 26.6984C27.8482 28.721 29.3901 30.476 31.2528 31.8406C33.1156 33.2053 35.254 34.1468 37.5187 34.5991C39.922 35.0843 42.3951 35.1128 44.8089 34.6831C48.1722 33.9897 49.5638 33.2585 51.5356 31.7414C53.1157 30.4997 54.449 28.9731 55.4666 27.2405C56.1229 26.1134 56.6048 24.8935 56.896 23.6222C57.2553 22.0652 57.4289 20.4712 57.4131 18.8734C57.4131 18.7893 57.4552 8.4302 57.4552 8.4302L49.7614 8.42599Z" fill="#B7B7B7"/>
</svg>
