<svg width="166" height="15" viewBox="0 0 166 15" fill="none" xmlns="http://www.w3.org/2000/svg">
<path d="M2.04297 1.96529H3.0909V11.5359H8.64211V12.499H2.04297V1.96529Z" fill="url(#paint0_linear)"/>
<path d="M26.4551 1.96529H27.503V12.499H26.4551V1.96529Z" fill="url(#paint1_linear)"/>
<path d="M57.0966 1.96529V12.499H56.0912V4.07203L52.1968 11.1597H51.7012L47.8068 4.11717V12.499H46.8014V1.96529H47.6652L51.9702 9.77528L56.2328 1.96529H57.0966Z" fill="url(#paint2_linear)"/>
<path d="M80.7045 12.5893C79.7227 12.5893 78.8352 12.3585 78.0422 11.8971C77.2586 11.4356 76.6403 10.7986 76.1871 9.98596C75.7434 9.16332 75.5215 8.24539 75.5215 7.23214C75.5215 6.2189 75.7434 5.30598 76.1871 4.49338C76.6403 3.67075 77.2634 3.02869 78.0564 2.56722C78.8494 2.10574 79.7368 1.875 80.7187 1.875C81.4551 1.875 82.1348 2.00542 82.7579 2.26625C83.381 2.52709 83.9097 2.90831 84.344 3.40991L83.6784 4.11717C82.9043 3.28451 81.9271 2.86818 80.747 2.86818C79.9634 2.86818 79.2506 3.05879 78.6087 3.44001C77.9667 3.82123 77.4616 4.3429 77.0934 5.00502C76.7347 5.66714 76.5553 6.40951 76.5553 7.23214C76.5553 8.05478 76.7347 8.79715 77.0934 9.45927C77.4616 10.1214 77.9667 10.6431 78.6087 11.0243C79.2506 11.4055 79.9634 11.5961 80.747 11.5961C81.9366 11.5961 82.9137 11.1748 83.6784 10.3321L84.344 11.0393C83.9097 11.5409 83.3763 11.9272 82.7438 12.198C82.1207 12.4589 81.4409 12.5893 80.7045 12.5893Z" fill="url(#paint3_linear)"/>
<path d="M106.777 12.5893C105.795 12.5893 104.903 12.3585 104.1 11.8971C103.307 11.4256 102.684 10.7835 102.231 9.97091C101.787 9.15831 101.566 8.24539 101.566 7.23214C101.566 6.2189 101.787 5.30598 102.231 4.49338C102.684 3.68078 103.307 3.04374 104.1 2.58226C104.903 2.11075 105.795 1.875 106.777 1.875C107.759 1.875 108.641 2.10574 109.425 2.56722C110.218 3.02869 110.841 3.67075 111.294 4.49338C111.747 5.30598 111.974 6.2189 111.974 7.23214C111.974 8.24539 111.747 9.16332 111.294 9.98596C110.841 10.7986 110.218 11.4356 109.425 11.8971C108.641 12.3585 107.759 12.5893 106.777 12.5893ZM106.777 11.5961C107.56 11.5961 108.269 11.4105 108.901 11.0393C109.534 10.6581 110.029 10.1364 110.388 9.47432C110.747 8.80217 110.926 8.05478 110.926 7.23214C110.926 6.40951 110.747 5.66714 110.388 5.00502C110.029 4.33287 109.534 3.8112 108.901 3.44001C108.269 3.05879 107.56 2.86818 106.777 2.86818C105.993 2.86818 105.28 3.05879 104.639 3.44001C104.006 3.8112 103.506 4.33287 103.137 5.00502C102.779 5.66714 102.599 6.40951 102.599 7.23214C102.599 8.05478 102.779 8.80217 103.137 9.47432C103.506 10.1364 104.006 10.6581 104.639 11.0393C105.28 11.4105 105.993 11.5961 106.777 11.5961Z" fill="url(#paint4_linear)"/>
<path d="M137.165 12.499L134.899 9.11316C134.644 9.14326 134.38 9.15831 134.106 9.15831H131.444V12.499H130.396V1.96529H134.106C135.371 1.96529 136.363 2.28632 137.08 2.92837C137.798 3.57043 138.156 4.45325 138.156 5.57685C138.156 6.39948 137.958 7.09671 137.562 7.66854C137.174 8.23034 136.617 8.63664 135.891 8.88744L138.312 12.499H137.165ZM134.078 8.21027C135.06 8.21027 135.81 7.97953 136.33 7.51806C136.849 7.05658 137.108 6.40951 137.108 5.57685C137.108 4.72412 136.849 4.07203 136.33 3.62059C135.81 3.15911 135.06 2.92837 134.078 2.92837H131.444V8.21027H134.078Z" fill="url(#paint5_linear)"/>
<path d="M163.713 11.5359V12.499H156.703V1.96529H163.5V2.92837H157.751V6.67536H162.877V7.6234H157.751V11.5359H163.713Z" fill="url(#paint6_linear)"/>
<defs>
<linearGradient id="paint0_linear" x1="4.26325" y1="7.27369" x2="164.603" y2="7.27369" gradientUnits="userSpaceOnUse">
<stop offset="0.603091"/>
<stop offset="1" stop-opacity="0.4"/>
</linearGradient>
<linearGradient id="paint1_linear" x1="4.26325" y1="7.27369" x2="164.603" y2="7.27369" gradientUnits="userSpaceOnUse">
<stop offset="0.603091"/>
<stop offset="1" stop-opacity="0.4"/>
</linearGradient>
<linearGradient id="paint2_linear" x1="4.26325" y1="7.27369" x2="164.603" y2="7.27369" gradientUnits="userSpaceOnUse">
<stop offset="0.603091"/>
<stop offset="1" stop-opacity="0.4"/>
</linearGradient>
<linearGradient id="paint3_linear" x1="4.26325" y1="7.27369" x2="164.603" y2="7.27369" gradientUnits="userSpaceOnUse">
<stop offset="0.603091"/>
<stop offset="1" stop-opacity="0.4"/>
</linearGradient>
<linearGradient id="paint4_linear" x1="4.26325" y1="7.27369" x2="164.603" y2="7.27369" gradientUnits="userSpaceOnUse">
<stop offset="0.603091"/>
<stop offset="1" stop-opacity="0.4"/>
</linearGradient>
<linearGradient id="paint5_linear" x1="4.26325" y1="7.27369" x2="164.603" y2="7.27369" gradientUnits="userSpaceOnUse">
<stop offset="0.603091"/>
<stop offset="1" stop-opacity="0.4"/>
</linearGradient>
<linearGradient id="paint6_linear" x1="4.26325" y1="7.27369" x2="164.603" y2="7.27369" gradientUnits="userSpaceOnUse">
<stop offset="0.603091"/>
<stop offset="1" stop-opacity="0.4"/>
</linearGradient>
</defs>
</svg>
