<svg width="118" height="41" viewBox="0 0 118 41" fill="none" xmlns="http://www.w3.org/2000/svg">
<mask id="mask0_1120_42894" style="mask-type:alpha" maskUnits="userSpaceOnUse" x="6" y="10" width="18" height="22">
<path d="M13.8435 15.0317H15.8125C15.9492 15.033 16.0852 15.0512 16.2178 15.0858L16.3273 11.9431L13.8435 15.0317Z" fill="#7B7B7B"/>
<path d="M17.3484 12.5789L16.3256 11.9431L16.3134 12.0674L16.2247 15.0894C16.2699 15.1002 16.3134 15.1146 16.3569 15.129L16.7135 14.785L17.3501 13.4595L17.4823 12.9192L17.3484 12.5789Z" fill="#7B7B7B"/>
<path d="M17.9121 11.909C17.7375 11.9088 17.5632 11.9215 17.3903 11.9468V12.6294L17.4738 12.7519L18.2965 12.8617L19.3714 12.8761L20.3768 12.8329C19.6859 12.2341 18.8131 11.9069 17.9121 11.909Z" fill="#7B7B7B"/>
<path d="M20.3348 12.8129L17.3884 12.6472L16.2247 15.0586V15.0874C16.2838 15.1016 16.3419 15.1196 16.3987 15.1415L17.8197 14.7957L19.3191 13.8034L20.634 13.0452L20.3348 12.8129Z" fill="#7B7B7B"/>
<path d="M20.3992 12.8546C20.3804 12.84 20.3624 12.8244 20.3453 12.8078L16.2247 15.0894C16.6125 15.1903 16.9568 15.4205 17.2032 15.7466C17.4495 16.0728 17.5838 16.4746 17.5849 16.8887L17.6754 16.8977L18.8825 16.071L20.0635 14.4502L20.4618 13.0095L20.3992 12.8546Z" fill="#7B7B7B"/>
<path d="M20.3453 12.8078L17.5867 16.9211L19.5766 17.3353L21.2498 16.6149L21.7368 16.4348C21.7599 16.2605 21.7715 16.0848 21.7716 15.9089C21.7709 15.3149 21.6426 14.7284 21.3959 14.192C21.1492 13.6556 20.7903 13.1828 20.3453 12.8078Z" fill="#7B7B7B"/>
<path d="M21.7717 15.8709L17.5972 16.8938L17.5728 16.9244C17.5718 17.0192 17.5637 17.1137 17.5485 17.2072L17.8111 18.023L18.9 19.4836L19.4409 19.597C20.1345 19.2863 20.7251 18.7721 21.1399 18.118C21.5547 17.4639 21.7755 16.6984 21.7752 15.9159C21.7722 15.9011 21.771 15.886 21.7717 15.8709Z" fill="#7B7B7B"/>
<path d="M17.3919 17.717C17.2549 18.0086 17.0464 18.2578 16.7873 18.4399C16.5281 18.6219 16.2274 18.7303 15.9151 18.7544H13.6661L16.183 21.7097L16.1934 21.7205L16.3082 21.7115L16.5135 21.4918L17.284 19.3829L17.4962 18.1691L17.3919 17.717Z" fill="#7B7B7B"/>
<path d="M17.5746 16.8596V16.8956C17.5737 17.2832 17.4564 17.6608 17.2389 17.9762L16.1953 21.7221C16.2808 21.7128 16.3667 21.708 16.4527 21.7077C16.6443 21.7073 16.8351 21.7339 17.0198 21.787H17.3555L18.4443 20.8361L19.1609 20.1337L19.5297 19.6258L17.5746 16.8596Z" fill="#7B7B7B"/>
<path d="M20.0218 20.2526L19.7243 19.6709C19.6635 19.6529 19.6043 19.6349 19.5504 19.6205L16.2247 21.7258C16.3001 21.7186 16.3749 21.715 16.4491 21.715C17.0233 21.7164 17.5735 21.9537 17.9788 22.3748C18.3842 22.7958 18.6116 23.3662 18.6111 23.9607C18.6111 24.0256 18.6111 24.0904 18.6024 24.1534L19.5208 23.6131L20.1313 22.4678L20.0218 20.2526Z" fill="#7B7B7B"/>
<path d="M19.5297 19.6149L18.6026 23.9263V23.9588C18.6026 24.0279 18.5991 24.0971 18.5922 24.1659L20.1019 24.6971L23.0084 24.7404C23.0171 24.6251 23.0206 24.5098 23.0206 24.3928C23.0232 23.3108 22.6832 22.2577 22.0527 21.3948C21.4223 20.5319 20.536 19.9067 19.5297 19.6149Z" fill="#7B7B7B"/>
<path d="M23.0084 24.0059L18.6095 23.9518C18.61 24.2026 18.5694 24.4517 18.4895 24.6884L18.5973 25.5889L19.0756 26.8585L20.0827 28.3749L20.6602 28.6631C21.3798 28.2241 21.9761 27.5979 22.3898 26.8467C22.8036 26.0954 23.0204 25.2452 23.0188 24.3804C23.0188 24.2598 23.0084 24.1319 23.0084 24.0059Z" fill="#7B7B7B"/>
<path d="M18.6076 23.9534C18.6081 24.2479 18.5525 24.5395 18.4441 24.8117C18.3357 25.084 18.1766 25.3314 17.9758 25.5399C17.7751 25.7485 17.5366 25.914 17.274 26.0271C17.0115 26.1403 16.73 26.1987 16.4456 26.1992H16.1395L16.2351 27.3518L19.0338 28.4684L20.2513 28.8826C20.4307 28.7954 20.6049 28.6973 20.7731 28.589L18.6076 23.9534Z" fill="#7B7B7B"/>
<path d="M16.3447 26.203H16.0299L15.5568 28.4848L15.3637 29.3384H18.2771C19.1603 29.3344 20.0248 29.0747 20.7731 28.589L16.3447 26.203Z" fill="#7B7B7B"/>
<path d="M16.3412 26.2046H13.44L13.3843 26.2406L13.6974 27.1897L14.8123 29.0068L15.3411 29.3418H15.9412L15.9394 29.3328L16.3412 26.2046Z" fill="#7B7B7B"/>
<path d="M13.4417 26.1994L13.2539 26.3255L13.2278 26.3723L12.6712 27.6671L12.5407 27.9517V29.3366H15.9377L13.4417 26.1994Z" fill="#7B7B7B"/>
<path d="M12.546 26.8279V29.2934L13.4453 26.2084L12.546 26.8279Z" fill="#7B7B7B"/>
<path d="M8.13144 11.8963L6.50687 13.5837L9.10549 13.6504L8.13144 11.8963Z" fill="#7B7B7B"/>
<path d="M9.88482 11.8963L9.36649 13.4487L11.4433 13.2452L9.88482 11.8963Z" fill="#7B7B7B"/>
<path d="M6.44434 27.8742L7.8654 29.3653L8.71595 27.8147L6.44434 27.8742Z" fill="#7B7B7B"/>
<path d="M15.209 10.0287V11.628L16.4649 10.0287H15.209Z" fill="#7B7B7B"/>
<path d="M10.1579 10.2017L12.1634 11.4011L12.2086 10.2917L10.1579 10.2017Z" fill="#7B7B7B"/>
<path d="M15.5343 29.567L15.4699 31.1194H16.8979L15.5343 29.567Z" fill="#7B7B7B"/>
<path d="M16.3135 29.9722L17.6772 31.5227V29.9722H16.3135Z" fill="#7B7B7B"/>
<path d="M10.0412 29.6966L9.95254 31.1122L11.8328 31.2148L10.0412 29.6966Z" fill="#7B7B7B"/>
<path d="M9.75437 24.6794L10.0275 27.4348L12.3304 25.6231L9.75437 24.6794Z" fill="#7B7B7B"/>
<path d="M8.29673 26.3901L9.09162 27.9227L9.40993 26.4189L8.29673 26.3901Z" fill="#7B7B7B"/>
<path d="M13.6436 23.4006L11.772 24.2813L13.6975 25.2051L13.6436 23.4006Z" fill="#7B7B7B"/>
<path d="M10.6971 23.1792L10.0866 24.2003L11.826 23.8977L10.6971 23.1792Z" fill="#7B7B7B"/>
<path d="M8.50723 22.3939L8.53506 23.6474H9.46389L8.50723 22.3939Z" fill="#7B7B7B"/>
<path d="M13.5375 21.6484L12.9931 23.2638L14.3602 22.4498L13.5375 21.6484Z" fill="#7B7B7B"/>
<path d="M10.911 20.0095L11.6937 22.8334L13.287 21.3188L10.911 20.0095Z" fill="#7B7B7B"/>
<path d="M8.87944 21.6231L9.76825 22.1724L10.3788 21.0828L8.87944 21.6231Z" fill="#7B7B7B"/>
<path d="M13.7496 19.581L13.7757 20.9335L14.9307 20.9731L13.7496 19.581Z" fill="#7B7B7B"/>
<path d="M10.1132 18.9199L9.6899 19.955L10.4737 19.7332L10.1132 18.9199Z" fill="#7B7B7B"/>
<path d="M13.2871 18.9199L10.9894 18.3814L13.3132 20.5191L13.2871 18.9199Z" fill="#7B7B7B"/>
<path d="M8.08288 18.3545L8.50788 19.0722L9.08093 18.7278L8.08288 18.3545Z" fill="#7B7B7B"/>
<path d="M9.43607 16.8921L9.53 18.6985L10.2727 18.1618L9.43607 16.8921Z" fill="#7B7B7B"/>
<path d="M10.4449 16.9766L13.3653 18.3543L13.9236 15.6943L10.4449 16.9766Z" fill="#7B7B7B"/>
<path d="M8.4151 16.7145L8.74779 17.0175L8.75998 16.1338L8.4151 16.7145Z" fill="#7B7B7B"/>
<path d="M9.02604 14.3996L8.6411 14.8685L9.37092 15.3085L9.02604 14.3996Z" fill="#7B7B7B"/>
<path d="M10.2344 13.6126L10.8953 16.0798L12.3303 14.495L10.2344 13.6126Z" fill="#7B7B7B"/>
<path d="M12.2242 27.0944L9.84826 28.8989L12.2382 30.9267L12.2242 27.0944Z" fill="#7B7B7B"/>
<path d="M9.21344 29.2771L8.49508 29.8228H9.86222L9.21344 29.2771Z" fill="#7B7B7B"/>
<path d="M9.22381 10.0557L9.29164 11.3235L12.092 11.7792L9.22381 10.0557Z" fill="#7B7B7B"/>
<path d="M15.9274 11.4479L17.1484 12.1935V10L15.9274 11.4479Z" fill="#7B7B7B"/>
<path d="M15.4457 11.8874L12.3514 11.8478L13.0001 12.3142H12.9862L13.0071 12.3304L12.9462 12.4349C12.9208 12.4546 12.8891 12.4636 12.8575 12.4601L12.9949 13.103L14.1377 13.3786L14.2368 13.3587L15.4509 11.8892L15.4457 11.8874Z" fill="#7B7B7B"/>
<path d="M12.993 12.3034L12.6365 12.7014L12.6156 13.5461L13.407 14.2034L13.447 14.2718L13.4661 14.2826L14.4332 13.121L12.993 12.3034Z" fill="#7B7B7B"/>
<path d="M12.9966 12.3142L10.3284 11.8639L13.4593 14.2754L12.9966 12.3142ZM12.9966 12.3034H12.9758L13.0001 12.3178L12.9966 12.3034Z" fill="#7B7B7B"/>
</mask>
<g mask="url(#mask0_1120_42894)">
<rect x="5.42334" y="8.69141" width="18.9191" height="22.8315" fill="#B6B6B6"/>
</g>
<path d="M0.000488281 4.73047V36.1783H30.2533V4.73047H0.000488281ZM28.0948 33.9361H2.15905V6.97262H28.0948V33.9361Z" fill="#888888"/>
<path d="M41.7508 11.1131C42.8084 10.7421 43.558 9.85246 43.558 8.40091C43.558 6.27221 41.9717 5.26189 39.4305 5.26189H34.2124V17.6721H39.3488C41.436 17.6721 44.0451 17.0147 44.0451 14.1963C44.0346 12.372 42.9266 11.4679 41.7508 11.1131ZM36.7675 7.45362H39.2027C40.328 7.45362 41.0116 7.89665 41.0116 8.87095C41.0116 9.84526 40.3159 10.2901 39.3383 10.2901H36.7658V7.45362H36.7675ZM39.3088 15.52H36.7501V12.3161H39.4462C40.4707 12.3161 41.476 12.6007 41.476 13.9136C41.476 15.2624 40.4533 15.511 39.3088 15.511V15.52ZM45.5879 17.6811H47.9604V4.73242H45.5879V17.6811ZM54.0673 8.92318C51.6965 8.92318 49.5449 10.4468 49.5449 13.4255C49.5449 16.4042 51.6931 17.9278 54.0673 17.9278C56.4415 17.9278 58.5897 16.4042 58.5897 13.4255C58.5897 10.4468 56.4555 8.91598 54.0673 8.91598V8.92318ZM54.0673 15.7307C52.7193 15.7307 51.9696 14.7384 51.9696 13.4255C51.9696 12.1126 52.7193 11.1203 54.0673 11.1203C55.4153 11.1203 56.1824 12.1144 56.1824 13.4255C56.1824 14.7366 55.4327 15.7235 54.0673 15.7235V15.7307ZM62.1049 13.4255C62.1049 11.7056 63.3503 11.0501 64.6462 11.0501C65.4168 11.0505 66.1724 11.2717 66.8291 11.6894V9.52829C66.0502 9.10724 65.1838 8.88962 64.3052 8.89437C62.0354 8.89437 59.682 10.2775 59.682 13.539C59.682 16.5717 61.9153 17.9188 64.1522 17.9188C65.1006 17.9285 66.0411 17.738 66.916 17.3587V15.1742C66.2139 15.5874 65.419 15.8017 64.6114 15.7955C63.3312 15.7955 62.1049 15.0499 62.1049 13.4183V13.4255ZM76.6061 9.16451H73.9448L71.8576 12.3377H70.8679V5.2637H68.5006V17.6739H70.8731V14.2971H71.8297L74.1831 17.6667H76.8461L73.7987 13.3661L76.6061 9.16451ZM79.4047 13.4183C79.4047 11.6984 80.6501 11.0429 81.9459 11.0429C82.7172 11.0429 83.4734 11.2642 84.1306 11.6822V9.52109C83.3504 9.1028 82.4835 8.88768 81.605 8.89437C79.3351 8.89437 76.9818 10.2775 76.9818 13.539C76.9818 16.5717 79.2168 17.9188 81.4519 17.9188C82.4004 17.9285 83.3409 17.738 84.2158 17.3587V15.1742C83.5144 15.5876 82.7199 15.8019 81.9129 15.7955C80.6327 15.7955 79.4047 15.0499 79.4047 13.4183ZM90.6306 8.91598C89.7142 8.91648 88.8337 9.28513 88.1746 9.94431V5.26189H85.8004V17.6739H88.1729V12.1252C88.5207 11.6102 89.1626 11.0447 89.9975 11.0447C90.9193 11.0447 91.5855 11.585 91.5855 12.7303V17.6739H93.958V12.408C93.958 10.4396 92.7805 8.91598 90.6306 8.91598ZM103.194 15.475V12.7628C103.194 9.96232 101.629 8.91598 99.1674 8.91598C98.0876 8.93739 97.0173 9.12868 95.9931 9.48327V11.6102C96.9121 11.2084 97.8969 10.992 98.8943 10.9726C100.173 10.9726 100.822 11.5579 100.822 12.4134V12.7141C100.183 12.5642 99.5313 12.4869 98.8769 12.4836C97.2385 12.4836 95.2764 13.1572 95.2764 15.3201C95.2764 17.0057 96.6088 17.926 98.1429 17.926C99.2168 17.9487 100.264 17.5781 101.1 16.8797C101.448 17.519 102.072 17.8378 102.907 17.8378C103.356 17.8323 103.8 17.7482 104.222 17.5892V15.9684C104.079 16.0159 103.929 16.0396 103.778 16.0386C103.462 16.0422 103.194 15.918 103.194 15.475ZM100.822 15.475C100.313 15.937 99.6557 16.1839 98.9796 16.1665C98.2629 16.1665 97.6994 15.7595 97.6994 15.1202C97.6994 14.2539 98.5517 13.9514 99.4231 13.9514C99.8925 13.9633 100.359 14.0292 100.815 14.1477V15.475H100.822ZM105.361 17.6739H107.732V9.16451H105.356L105.361 17.6739ZM106.539 4.96294C105.805 4.96294 105.147 5.38796 105.147 6.34605C105.147 7.30415 105.796 7.74537 106.539 7.74537C107.282 7.74537 107.93 7.32035 107.93 6.34605C107.93 5.37175 107.283 4.96294 106.534 4.96294H106.539ZM114.608 8.91598C114.086 8.91595 113.571 9.03523 113.099 9.26529C112.627 9.49536 112.209 9.83053 111.877 10.2469V9.16631H109.774V17.6739H112.147V12.1252C112.494 11.612 113.136 11.0447 113.971 11.0447C114.893 11.0447 115.559 11.585 115.559 12.7303V17.6739H117.93V12.4098C117.93 10.4396 116.761 8.91598 114.603 8.91598H114.608Z" fill="#888888"/>
<path d="M36.7666 23.5233H34.208V35.9317H42.6196V33.5382H36.7666V23.5233ZM45.0408 23.2207C44.3085 23.2207 43.6597 23.6457 43.6597 24.6038C43.6597 25.5619 44.3085 26.0049 45.0408 26.0049C45.7731 26.0049 46.441 25.5799 46.441 24.6038C46.441 23.6277 45.794 23.2207 45.0408 23.2207ZM43.865 35.9317H46.2358V27.4223H43.865V35.9317ZM49.0831 26.5884V27.4205H47.6673V29.4951H49.0831V35.9299H51.4382V29.4951H53.9464V27.4205H51.4399V26.7001C51.4399 25.6357 52.1357 25.353 52.908 25.353C53.4014 25.3501 53.8879 25.4739 54.3238 25.7132V23.6277C53.6783 23.3851 52.9963 23.2632 52.3096 23.2675C50.7581 23.2747 49.0848 24.0239 49.0848 26.5884H49.0831ZM58.7227 27.1737C56.8824 27.1737 54.5099 28.4686 54.5099 31.6761C54.5099 34.635 56.6598 36.1784 59.2532 36.1784C60.4829 36.1784 61.4865 35.9839 62.2571 35.6381V33.7147C61.4761 34.0621 60.6337 34.2369 59.7837 34.228C58.4357 34.228 57.1747 33.7147 56.8998 32.4739H62.6658C63.212 29.967 62.1214 27.1737 58.7244 27.1737H58.7227ZM60.5316 30.8801H56.879C56.912 29.7112 57.7991 29.0539 58.8062 29.0539C60.2951 29.0539 60.6203 30.2947 60.5334 30.8801H60.5316Z" fill="#888888"/>
</svg>
