<svg width="101" height="41" viewBox="0 0 101 41" fill="none" xmlns="http://www.w3.org/2000/svg">
<path d="M0.515625 26.3635L5.69659 25.8932C5.90673 26.5041 6.20731 26.9452 6.58722 27.2055C6.96713 27.4657 7.48899 27.5965 8.13052 27.5965C8.83189 27.5965 9.37323 27.4462 9.75453 27.1456C9.89292 27.0546 10.0066 26.9307 10.0853 26.785C10.1639 26.6393 10.2052 26.4763 10.2054 26.3107C10.2054 25.9294 10.005 25.6399 9.61398 25.4395C9.33566 25.2892 8.5814 25.1083 7.36931 24.8982C5.56022 24.5767 4.30777 24.2873 3.59109 24.0159C2.88017 23.7385 2.26218 23.2657 1.80843 22.6521C1.33029 22.0213 1.07614 21.249 1.08619 20.4575C1.06714 19.6153 1.34387 18.793 1.86827 18.1336C2.38873 17.4823 3.11098 17.0008 4.02249 16.6807C4.93399 16.3606 6.15722 16.1992 7.70051 16.1992C9.32313 16.1992 10.5255 16.3189 11.2964 16.5694C12.0257 16.7904 12.6897 17.1865 13.2308 17.723C13.7526 18.2435 14.1729 18.9449 14.5236 19.8271L9.54301 20.3476C9.44859 19.9589 9.22665 19.613 8.91261 19.3651C8.47566 19.0785 7.96128 18.9327 7.43889 18.9477C6.85859 18.9477 6.42719 19.0576 6.16696 19.258C6.0446 19.344 5.94445 19.4579 5.87476 19.5903C5.80508 19.7226 5.76786 19.8696 5.76617 20.0192C5.76587 20.1827 5.8143 20.3425 5.90526 20.4784C5.99623 20.6142 6.12561 20.7198 6.2769 20.7818C6.61784 20.9516 7.35957 21.1116 8.50347 21.2424C10.236 21.4428 11.5288 21.7128 12.3708 22.0635C13.1526 22.3641 13.8297 22.8865 14.319 23.5664C14.7611 24.1946 14.9952 24.9455 14.9884 25.7137C14.9782 26.5312 14.7312 27.3283 14.2773 28.0084C13.8069 28.7502 13.054 29.3416 12.0326 29.7813C11.0112 30.2211 9.61398 30.4451 7.86055 30.4451C5.37513 30.4451 3.61196 30.0944 2.55016 29.3819C1.5018 28.6777 0.771341 27.5906 0.515625 26.3538H0.515625V26.3635Z" fill="#888888"/>
<path d="M21.4945 20.6184C21.7217 20.3358 22.0104 20.1086 22.3386 19.9543C22.6668 19.8 23.0258 19.7225 23.3885 19.7278C23.7366 19.725 24.0807 19.802 24.3943 19.953C24.7079 20.1041 24.9827 20.325 25.1975 20.599C25.6888 21.1807 25.9295 22.0713 25.9295 23.2639C25.9295 24.547 25.6888 25.478 25.1975 26.0596C24.977 26.3384 24.6948 26.5623 24.3732 26.7137C24.0516 26.865 23.6993 26.9399 23.3439 26.9322C22.9864 26.9381 22.6324 26.8616 22.3093 26.7085C21.9861 26.5555 21.7026 26.3302 21.4806 26.0499C20.9893 25.4585 20.7388 24.5567 20.7388 23.3237C20.7388 22.1116 20.9893 21.2099 21.4806 20.6184H21.4903H21.4945ZM18.0085 28.7858C19.3611 29.8991 21.1313 30.4557 23.3189 30.4557C25.7737 30.4557 27.6941 29.7878 29.0801 28.4518C30.4718 27.1089 31.1676 25.3903 31.1676 23.2917C31.1676 21.427 30.6063 19.8572 29.4837 18.5825C28.0921 16.9989 26.0311 16.207 23.3008 16.207C20.9174 16.207 19.0239 16.882 17.6202 18.2318C16.2166 19.5817 15.5152 21.2948 15.5161 23.371C15.5161 25.606 16.3441 27.4151 18.0001 28.7983L18.0085 28.7858Z" fill="#888888"/>
<path d="M38.1988 16.5114H40.6842V20.3495H38.1988V30.1394H32.9691V20.3495H30.9902V16.5114H32.9649V15.9005C32.9711 15.285 33.0312 14.6713 33.1444 14.0663C33.2325 13.4757 33.4632 12.9154 33.8166 12.434C34.1871 11.9815 34.6657 11.6297 35.2082 11.4111C35.7899 11.1505 36.6416 11.0206 37.7632 11.0215H37.8745C38.786 11.0215 40.1081 11.1314 41.8225 11.3416L41.2311 14.488C40.7313 14.4001 40.2257 14.3499 39.7184 14.3377C39.2467 14.3377 38.9057 14.417 38.6956 14.5785C38.4682 14.7722 38.3128 15.0369 38.2544 15.3299C38.2016 15.7247 38.1815 16.1231 38.1946 16.5211L38.1988 16.5114Z" fill="#888888"/>
<path d="M47.5814 20.3485V25.1886C47.5814 25.7689 47.6315 26.1502 47.7415 26.3408C47.9112 26.6317 48.2118 26.7819 48.6335 26.7819C49.0134 26.7819 49.5547 26.6706 50.2464 26.4507L50.6263 30.0383C49.4385 30.3058 48.2256 30.4457 47.0081 30.4558C45.7055 30.4558 44.7537 30.286 44.133 29.9548C43.5161 29.6203 43.0341 29.0823 42.7692 28.4324C42.4798 27.7505 42.3295 26.6581 42.3295 25.1357V20.3457H40.416V16.5077H42.3309V14.0028L47.5605 11.3184V20.336L47.5814 20.3485Z" fill="#888888"/>
<path d="M51.8154 11.3301H57.0465V30.1474H51.8154V11.3301Z" fill="#B6B6B6"/>
<path d="M59.2554 30.1501H64.485V16.5137H59.2554V30.1501Z" fill="#B6B6B6"/>
<path d="M59.2554 11.3301V14.9079H64.485V11.3301H59.2554Z" fill="#B6B6B6"/>
<path d="M66.4771 16.5104H71.3574V18.737C72.0783 17.8255 72.82 17.1839 73.5617 16.7887C74.3035 16.3935 75.215 16.207 76.2768 16.207C77.7194 16.207 78.8485 16.638 79.664 17.4998C80.4753 18.3613 80.8858 19.6847 80.8858 21.4882V30.1635H75.6617V22.6627C75.6617 21.811 75.5003 21.2001 75.1899 20.8536C74.8796 20.5071 74.4287 20.322 73.8582 20.322C73.5626 20.3149 73.2694 20.3764 73.0016 20.5017C72.7338 20.6271 72.4988 20.8128 72.3149 21.0443C71.9238 21.5244 71.7234 22.3872 71.7234 23.6188V30.1635H66.4771V16.5062V16.5104Z" fill="#B6B6B6"/>
<path d="M87.4289 22.1628C87.5082 21.3418 87.7072 20.7309 88.0301 20.3092C88.2527 19.9917 88.5504 19.7341 88.8966 19.5593C89.2428 19.3845 89.6268 19.2979 90.0145 19.3072C90.7256 19.3072 91.3059 19.5285 91.7471 19.9683C92.1882 20.408 92.4582 21.1414 92.5584 22.1628H87.4289ZM97.8298 24.0568C97.8298 22.2477 97.5389 20.7907 96.9475 19.6677C96.3776 18.5629 95.4778 17.6631 94.373 17.0932C93.2403 16.5017 91.7067 16.2012 89.764 16.2012C87.3686 16.2012 85.488 16.8594 84.1224 18.1759C82.7568 19.4923 82.0754 21.2156 82.0781 23.3457C82.0781 24.8389 82.4191 26.1512 83.0898 27.2533C83.7606 28.3555 84.6206 29.1668 85.6546 29.6775C86.6885 30.1883 88.0996 30.4401 89.9032 30.4401C91.9781 30.4401 93.5603 30.1395 94.6736 29.5481C95.7869 28.9567 96.7276 27.9742 97.5083 26.6021L92.3788 26.1289C92.1342 26.4695 91.8285 26.7615 91.4771 26.9903C91.0377 27.2415 90.54 27.3725 90.034 27.3702C89.6636 27.3814 89.2956 27.3078 88.9579 27.1552C88.6203 27.0025 88.322 26.7748 88.0857 26.4893C87.735 26.0788 87.504 25.4568 87.4136 24.6246H97.8354V24.054L97.8298 24.0568Z" fill="#B6B6B6"/>
<path d="M24.5119 13.1633C30.4735 13.8049 32.8616 14.3156 38.4197 15.8074C43.0579 17.0598 50.4334 16.5185 50.4334 16.5185V20.3566C47.5472 20.7574 41.2752 20.6168 36.0637 18.7131C26.7399 15.3161 22.508 14.6259 17.5177 14.2599C10.7544 13.7798 2.69839 14.8013 2.69839 14.8013L2.61768 14.1208C2.61768 14.1208 14.2808 12.0556 24.5119 13.1578V13.1633Z" fill="#B6B6B6"/>
<path d="M98.0285 11.7112C98.6203 11.7098 99.1905 11.9332 99.6237 12.3362C100.057 12.7393 100.321 13.2918 100.362 13.8821V14.2231C100.328 14.6777 100.163 15.1126 99.8852 15.4743C99.6078 15.8361 99.2308 16.109 98.8005 16.2596C98.3702 16.4103 97.9053 16.4321 97.4628 16.3223C97.0204 16.2126 96.6195 15.9761 96.3095 15.6418C95.9995 15.3076 95.7938 14.8901 95.7175 14.4407C95.6413 13.9912 95.6979 13.5292 95.8804 13.1115C96.063 12.6937 96.3634 12.3383 96.745 12.0888C97.1266 11.8394 97.5726 11.7067 98.0285 11.707V11.7112ZM98.0285 15.8596C98.3863 15.8596 98.7361 15.7535 99.0336 15.5547C99.3311 15.3559 99.563 15.0734 99.6999 14.7428C99.8368 14.4123 99.8727 14.0485 99.8029 13.6976C99.7331 13.3466 99.5608 13.0243 99.3078 12.7713C99.0547 12.5183 98.7324 12.346 98.3815 12.2762C98.0305 12.2064 97.6668 12.2422 97.3362 12.3791C97.0057 12.516 96.7231 12.7479 96.5243 13.0454C96.3255 13.3429 96.2194 13.6927 96.2194 14.0505C96.2194 14.5303 96.41 14.9905 96.7493 15.3297C97.0886 15.669 97.5487 15.8596 98.0285 15.8596ZM98.1886 12.8746C98.7202 12.8746 98.9901 13.1529 98.9901 13.5259C98.9921 13.6583 98.9468 13.7871 98.8624 13.8891C98.778 13.9911 98.66 14.0597 98.5295 14.0825V14.0923C98.641 14.142 98.7302 14.2312 98.78 14.3428L99.171 15.2737H98.5393L98.2289 14.5125C98.2025 14.4531 98.1588 14.403 98.1034 14.369C98.048 14.335 97.9835 14.3185 97.9186 14.3219H97.7377V15.2737H97.156V12.8899H98.2053L98.1886 12.8746ZM97.7279 13.8654H97.9882C98.3583 13.8654 98.3987 13.6762 98.3987 13.576C98.3987 13.3144 98.048 13.3255 97.9882 13.3255H97.7279V13.8654Z" fill="#B6B6B6"/>
</svg>
