<svg width="72" height="41" viewBox="0 0 72 41" fill="none" xmlns="http://www.w3.org/2000/svg">
<g clip-path="url(#clip0_1120_42910)">
<path d="M44.5474 14.3798H50.5722V17.6C51.082 16.3646 51.7651 15.4836 52.6214 14.957C53.4777 14.4101 54.5073 14.1469 55.7103 14.1671V17.9212V19.757C55.4326 19.7401 55.1657 19.7323 54.91 19.7333C53.626 19.7387 52.6184 19.9693 51.8873 20.4253C51.0107 20.9519 50.5722 21.7924 50.5722 22.9468V30.2684H44.5474V14.3798Z" fill="#888888"/>
<path fill-rule="evenodd" clip-rule="evenodd" d="M71.467 26.0699L63.0258 30.6598C61.9041 30.6324 60.8503 30.4615 59.8644 30.1475C58.7838 29.7828 57.8357 29.2563 57.0201 28.5677C56.225 27.8588 55.593 27.0082 55.1239 26.0158C54.6755 25.0031 54.4512 23.8386 54.4512 22.5221V22.2791C54.4512 20.9829 54.6755 19.8285 55.1239 18.8158C55.593 17.7829 56.225 16.912 57.0201 16.2032C57.8153 15.4741 58.7532 14.9171 59.8338 14.5323C60.9349 14.1475 62.1175 13.9551 63.3815 13.9551C64.6252 13.9551 65.7875 14.1475 66.8681 14.5323C67.9488 14.8968 68.8865 15.4336 69.6817 16.1424C70.477 16.831 71.0988 17.6816 71.5473 18.6943C72.0164 19.707 72.2508 20.8513 72.2508 22.1272V22.3703C72.2508 23.6867 72.0164 24.8614 71.5473 25.8943C71.5212 25.9534 71.4944 26.0119 71.467 26.0699ZM66.134 22.4006C66.134 24.9728 65.2165 26.2588 63.3815 26.2588C61.4853 26.2588 60.5372 24.9525 60.5372 22.3399V22.0968C60.5372 20.8411 60.7819 19.9095 61.2713 19.3019C61.7606 18.674 62.464 18.3601 63.3815 18.3601C64.3195 18.3601 65.0127 18.6842 65.4613 19.3323C65.9097 19.9804 66.134 20.9323 66.134 22.188V22.4006Z" fill="#888888"/>
<path d="M23.0221 14.3784H16.9971V30.267H23.0221V21.4873C23.0221 20.5354 23.2259 19.8367 23.6336 19.3911C24.0618 18.9455 24.6531 18.7227 25.4075 18.7227C26.1211 18.7227 26.6309 18.9253 26.9367 19.3303C27.2629 19.7354 27.426 20.343 27.426 21.1531V30.2307L33.451 26.9545V19.8164C33.451 18.824 33.3185 17.9632 33.0535 17.2341C32.8087 16.505 32.4622 15.8974 32.0136 15.4114C31.565 14.9253 31.0248 14.5607 30.3926 14.3177C29.7606 14.0746 29.0674 13.9531 28.313 13.9531C26.9673 13.9531 25.8561 14.2367 24.9793 14.8038C24.123 15.3708 23.4705 16.0797 23.0221 16.9303V14.3784Z" fill="#888888"/>
<path fill-rule="evenodd" clip-rule="evenodd" d="M6.85356 18.4904C7.13307 18.2207 7.57092 18.0859 8.16715 18.0859C8.57494 18.0859 8.90116 18.1466 9.14584 18.2681C9.39049 18.3694 9.574 18.5314 9.69634 18.7542C9.83906 18.9567 9.93081 19.1998 9.97159 19.4833C10.0124 19.7669 10.0328 20.0706 10.0328 20.3947V20.6681H8.65649C5.88357 20.6681 3.75292 21.0732 2.26452 21.8833C0.796507 22.6732 0.0625 23.9998 0.0625 25.863C0.0625 26.7137 0.205224 27.4428 0.490671 28.0504C0.796507 28.6579 1.19409 29.1542 1.68343 29.5389C2.19315 29.9237 2.77425 30.2073 3.4267 30.3897C4.09953 30.5719 4.79277 30.663 5.50638 30.663C6.15883 30.663 6.72973 30.5922 7.21907 30.4503C7.72878 30.3289 8.17735 30.1669 8.56474 29.9644C8.95214 29.7617 9.27836 29.5288 9.54342 29.2656C9.80848 29.0023 10.0226 28.7289 10.1857 28.4453V30.2681H15.9966V19.9998C15.9966 17.9137 15.3339 16.3846 14.0086 15.4124C12.6833 14.42 10.8585 13.9238 8.53416 13.9238C7.39238 13.9238 6.34233 14.0453 5.38405 14.2884C5.09854 14.3624 4.82438 14.4485 4.56155 14.5469L6.85356 18.4904ZM9.35991 26.1365C8.93174 26.4808 8.37104 26.6529 7.67782 26.6529C7.12732 26.6529 6.70933 26.5415 6.42389 26.3187C6.13844 26.096 5.99573 25.7921 5.99573 25.4073C5.99573 24.8403 6.19961 24.4453 6.60739 24.2225C7.01518 23.9998 7.72878 23.8884 8.74824 23.8884H10.0328V24.7086C10.0328 25.2959 9.80848 25.7719 9.35991 26.1365Z" fill="#888888"/>
<path d="M40.3601 30.6619C38.4639 30.6619 37.006 30.2163 35.9866 29.3252C34.9672 28.4342 34.4575 26.986 34.4575 24.981V11.1582H40.4824V14.4088H43.5408V19.8516H40.4824V24.4038C40.4824 24.9506 40.6149 25.3455 40.8799 25.5886C41.1654 25.8316 41.5528 25.9531 42.0422 25.9531C42.5723 25.9531 43.0718 25.8721 43.5408 25.7101V30.2062C43.1737 30.3075 42.7149 30.4087 42.1646 30.51C41.614 30.6114 41.0126 30.6619 40.3601 30.6619Z" fill="#888888"/>
</g>
<defs>
<clipPath id="clip0_1120_42910">
<rect width="72" height="40" fill="white" transform="translate(0.000488281 0.0136719)"/>
</clipPath>
</defs>
</svg>
