<svg width="40" height="40" viewBox="0 0 40 40" fill="none" xmlns="http://www.w3.org/2000/svg">
<circle cx="20" cy="20" r="20" fill="#F3F6FF"/>
<path d="M12.1545 30.1087L8.60358 15.0051C8.28777 13.6619 8.87194 12.2679 10.051 11.5511L18.966 6.13179C20.8181 5.00591 23.2296 6.0165 23.7257 8.12643L23.9367 9.02422M23.9367 9.02422L10.9945 12.0671C9.3816 12.4463 8.38151 14.0612 8.76071 15.674L12.4735 31.4658C12.8527 33.0787 14.4676 34.0788 16.0805 33.6996L28.5072 30.7779C30.1201 30.3987 31.1202 28.7838 30.741 27.171L26.907 10.8636C26.5947 9.5355 25.2649 8.71196 23.9367 9.02422V9.02422Z" stroke="#4A70F8" stroke-width="1.6" stroke-linecap="round" stroke-linejoin="round"/>
<path d="M25.0883 19.4312C25.7561 22.4947 23.814 25.5196 20.7505 26.1874M25.0883 19.4312C24.4204 16.3677 21.3956 14.4257 18.3321 15.0935M25.0883 19.4312L21.7925 20.1278M20.7505 26.1874C17.687 26.8552 14.6622 24.9132 13.9944 21.8497M20.7505 26.1874C19.4738 25.4415 17.797 23.8839 17.208 21.1819C16.6368 18.5616 17.55 15.7621 18.3321 15.0935M20.7505 26.1874C21.601 24.9777 22.3815 22.8298 21.7925 20.1278M13.9944 21.8497C13.3265 18.7862 15.2686 15.7613 18.3321 15.0935M13.9944 21.8497L21.7925 20.1278M18.3321 15.0935C19.3215 15.3759 21.2213 17.5076 21.7925 20.1278" stroke="#4A70F8" stroke-width="1.5" stroke-linecap="round" stroke-linejoin="round"/>
</svg>
