<svg width="22" height="22" viewBox="0 0 22 22" fill="none" xmlns="http://www.w3.org/2000/svg">
<path d="M11 1.83325C5.94823 1.83325 1.83331 5.94817 1.83331 10.9999C1.83331 16.0517 5.94823 20.1666 11 20.1666C16.0517 20.1666 20.1666 16.0517 20.1666 10.9999C20.1666 5.94817 16.0517 1.83325 11 1.83325ZM11 3.66659C15.0609 3.66659 18.3333 6.93897 18.3333 10.9999C18.3333 15.0609 15.0609 18.3333 11 18.3333C6.93903 18.3333 3.66665 15.0609 3.66665 10.9999C3.66665 6.93897 6.93903 3.66659 11 3.66659ZM10.0833 6.41659V8.24992H11.9166V6.41659H10.0833ZM10.0833 10.0833V15.5833H11.9166V10.0833H10.0833Z" fill="#C5EAF1"/>
</svg>
