<svg width="30" height="30" viewBox="0 0 30 30" fill="none" xmlns="http://www.w3.org/2000/svg">
<circle cx="15" cy="15" r="15" fill="#EFF0F0"/>
<g clip-path="url(#clip0_1984_19255)">
<path d="M24.7505 10.4297V19.5703C24.7505 20.7464 23.7938 21.7031 22.6177 21.7031H7.3833C6.20721 21.7031 5.25049 20.7464 5.25049 19.5703V10.4297C5.25049 9.25359 6.20721 8.29688 7.3833 8.29688H22.6177C23.7938 8.29688 24.7505 9.25359 24.7505 10.4297Z" fill="#C1C4CD"/>
<path d="M24.7499 10.4297V19.5703C24.7499 20.7464 23.7932 21.7031 22.6171 21.7031H21.3983C22.5744 21.7031 23.5311 20.7464 23.5311 19.5703V10.4297C23.5311 9.25359 22.5744 8.29688 21.3983 8.29688H22.6171C23.7932 8.29688 24.7499 9.25359 24.7499 10.4297Z" fill="#8E95AD"/>
<path d="M9.51563 18.6572H8.90625C8.56972 18.6572 8.29688 18.3844 8.29688 18.0479V17.4385C8.29688 17.1019 8.56972 16.8291 8.90625 16.8291H9.51563C9.85215 16.8291 10.125 17.1019 10.125 17.4385V18.0479C10.125 18.3844 9.85215 18.6572 9.51563 18.6572Z" fill="white"/>
<path d="M5.25 11.6484H24.75V12.8672H5.25V11.6484Z" fill="#718BEA"/>
<path d="M23.5319 11.6484H24.7506V12.8672H23.5319V11.6484Z" fill="#4361CE"/>
</g>
<defs>
<clipPath id="clip0_1984_19255">
<rect width="19.5" height="19.5" fill="white" transform="translate(5.25 5.25)"/>
</clipPath>
</defs>
</svg>
