<svg width="127" height="25" viewBox="0 0 127 25" fill="none" xmlns="http://www.w3.org/2000/svg">
<path d="M0.000366211 19.6409L6.5903 19.0426C6.85757 19.8197 7.23991 20.3808 7.72313 20.7118C8.20636 21.0428 8.87013 21.2092 9.68613 21.2092C10.5782 21.2092 11.2668 21.018 11.7518 20.6357C11.9278 20.52 12.0724 20.3623 12.1724 20.177C12.2725 19.9916 12.3251 19.7843 12.3253 19.5737C12.3253 19.0887 12.0704 18.7205 11.573 18.4656C11.219 18.2744 10.2596 18.0443 8.71791 17.777C6.41683 17.3682 4.82378 17 3.9122 16.6548C3.00794 16.302 2.22189 15.7006 1.64475 14.9202C1.03658 14.1178 0.713314 13.1355 0.72609 12.1288C0.701869 11.0574 1.05386 10.0115 1.72086 9.17279C2.38287 8.3444 3.30153 7.73195 4.46091 7.32484C5.6203 6.91772 7.17619 6.7124 9.13918 6.7124C11.2031 6.7124 12.7324 6.86463 13.713 7.18324C14.6405 7.4644 15.4852 7.96815 16.1734 8.65061C16.8372 9.31261 17.3717 10.2047 17.8178 11.3269L11.4827 11.9889C11.3626 11.4945 11.0803 11.0545 10.6809 10.7393C10.1251 10.3746 9.47086 10.1893 8.80641 10.2083C8.06829 10.2083 7.51958 10.3481 7.18858 10.603C7.03294 10.7124 6.90555 10.8573 6.81692 11.0256C6.72828 11.194 6.68094 11.381 6.6788 11.5712C6.67841 11.7791 6.74001 11.9825 6.85571 12.1552C6.97142 12.328 7.13599 12.4624 7.32841 12.5412C7.76207 12.7572 8.70552 12.9607 10.1605 13.1271C12.3642 13.382 14.0086 13.7254 15.0795 14.1714C16.074 14.5538 16.9352 15.2182 17.5576 16.0831C18.1199 16.8821 18.4177 17.8373 18.409 18.8143C18.396 19.8542 18.0818 20.8681 17.5045 21.7331C16.9062 22.6766 15.9486 23.4288 14.6494 23.9882C13.3502 24.5475 11.573 24.8325 9.34274 24.8325C6.18141 24.8325 3.93875 24.3864 2.58819 23.4802C1.25473 22.5845 0.325624 21.2016 0.000366211 19.6285H0.000366211V19.6409Z" fill="#888888"/>
<path d="M26.6846 12.3377C26.9736 11.9781 27.3408 11.6892 27.7583 11.4929C28.1757 11.2966 28.6324 11.1981 29.0937 11.2048C29.5364 11.2012 29.9741 11.2992 30.373 11.4913C30.772 11.6834 31.1215 11.9645 31.3947 12.3129C32.0196 13.0528 32.3258 14.1856 32.3258 15.7025C32.3258 17.3345 32.0196 18.5187 31.3947 19.2586C31.1142 19.6132 30.7553 19.8979 30.3463 20.0905C29.9372 20.283 29.489 20.3782 29.037 20.3684C28.5823 20.3759 28.132 20.2786 27.721 20.084C27.31 19.8893 26.9493 19.6027 26.6669 19.2462C26.0421 18.4939 25.7235 17.3469 25.7235 15.7786C25.7235 14.2369 26.0421 13.0899 26.6669 12.3377H26.6793H26.6846ZM22.2506 22.7261C23.9711 24.1422 26.2226 24.8502 29.0052 24.8502C32.1275 24.8502 34.5702 24.0006 36.3332 22.3013C38.1033 20.5932 38.9883 18.4072 38.9883 15.7379C38.9883 13.3661 38.2744 11.3694 36.8465 9.74806C35.0765 7.73374 32.455 6.72656 28.9822 6.72656C25.9506 6.72656 23.5422 7.58505 21.7568 9.30201C19.9714 11.019 19.0793 13.1979 19.0804 15.8388C19.0804 18.6815 20.1336 20.9826 22.24 22.742L22.2506 22.7261Z" fill="#888888"/>
<path d="M47.9317 7.11181H51.093V11.9936H47.9317V24.446H41.2798V11.9936H38.7628V7.11181H41.2745V6.33475C41.2824 5.55193 41.3588 4.77129 41.5029 4.0018C41.6149 3.25051 41.9083 2.53785 42.3578 1.92553C42.8291 1.34998 43.4379 0.902531 44.1279 0.624538C44.8677 0.292947 45.951 0.127732 47.3777 0.128913H47.5193C48.6787 0.128913 50.3602 0.268756 52.541 0.536035L51.7887 4.53813C51.153 4.42637 50.5099 4.36248 49.8646 4.34698C49.2646 4.34698 48.8309 4.44787 48.5636 4.65319C48.2744 4.8996 48.0767 5.23636 48.0025 5.60903C47.9353 6.11111 47.9098 6.61789 47.9264 7.12419L47.9317 7.11181Z" fill="#888888"/>
<path d="M59.8661 11.9937V18.15C59.8661 18.8881 59.9298 19.3731 60.0697 19.6156C60.2856 19.9855 60.6679 20.1767 61.2043 20.1767C61.6875 20.1767 62.3761 20.0351 63.2558 19.7554L63.739 24.3186C62.2282 24.6588 60.6854 24.8368 59.1368 24.8497C57.4801 24.8497 56.2694 24.6337 55.4799 24.2124C54.6952 23.7869 54.0822 23.1026 53.7452 22.276C53.3771 21.4087 53.1859 20.0192 53.1859 18.0827V11.9902H50.7521V7.10837H53.1877V3.92226L59.8396 0.507812V11.9778L59.8661 11.9937Z" fill="#888888"/>
<path d="M65.251 0.523926H71.9046V24.4587H65.251V0.523926Z" fill="#B6B6B6"/>
<path d="M74.7145 24.4581H81.3664V7.11328H74.7145V24.4581Z" fill="#B6B6B6"/>
<path d="M74.7145 0.523926V5.07475H81.3664V0.523926H74.7145Z" fill="#B6B6B6"/>
<path d="M83.8999 7.11244H90.1075V9.94454C91.0244 8.78515 91.9678 7.96915 92.9113 7.46646C93.8547 6.96376 95.0141 6.72656 96.3647 6.72656C98.1996 6.72656 99.6357 7.2747 100.673 8.37095C101.705 9.46662 102.227 11.15 102.227 13.4439V24.4785H95.5823V14.9379C95.5823 13.8546 95.377 13.0775 94.9822 12.6368C94.5875 12.196 94.014 11.9606 93.2883 11.9606C92.9123 11.9516 92.5394 12.0298 92.1988 12.1892C91.8582 12.3486 91.5592 12.5848 91.3253 12.8793C90.8279 13.49 90.573 14.5874 90.573 16.1539V24.4785H83.8999V7.10713V7.11244Z" fill="#B6B6B6"/>
<path d="M110.549 14.3002C110.65 13.2559 110.903 12.4788 111.314 11.9425C111.597 11.5386 111.976 11.211 112.416 10.9886C112.856 10.7663 113.345 10.6562 113.838 10.668C114.742 10.668 115.481 10.9495 116.042 11.5088C116.603 12.0682 116.946 13.001 117.074 14.3002H110.549ZM123.779 16.7093C123.779 14.4082 123.409 12.5549 122.656 11.1265C121.931 9.72132 120.787 8.57679 119.382 7.85188C117.941 7.0996 115.99 6.71729 113.519 6.71729C110.472 6.71729 108.081 7.55451 106.344 9.22899C104.606 10.9035 103.74 13.0954 103.743 15.8048C103.743 17.704 104.177 19.3732 105.03 20.7751C105.883 22.177 106.977 23.2089 108.292 23.8585C109.608 24.5081 111.402 24.8285 113.696 24.8285C116.336 24.8285 118.348 24.4462 119.764 23.6939C121.18 22.9416 122.377 21.692 123.37 19.9467L116.845 19.3449C116.534 19.778 116.145 20.1495 115.698 20.4405C115.139 20.76 114.506 20.9266 113.863 20.9238C113.392 20.938 112.924 20.8444 112.494 20.6502C112.065 20.4561 111.685 20.1664 111.385 19.8033C110.939 19.2811 110.645 18.4899 110.53 17.4314H123.786V16.7057L123.779 16.7093Z" fill="#B6B6B6"/>
<path d="M30.5226 2.85494C38.1056 3.67094 41.143 4.32055 48.2126 6.21805C54.1122 7.8111 63.4935 7.12255 63.4935 7.12255V12.0044C59.8224 12.5142 51.8448 12.3354 45.2159 9.91393C33.3565 5.59322 27.9738 4.71527 21.6263 4.24975C13.0238 3.63908 2.77698 4.9383 2.77698 4.9383L2.67432 4.07274C2.67432 4.07274 17.5092 1.44599 30.5226 2.84787V2.85494Z" fill="#B6B6B6"/>
<path d="M124.032 1.00727C124.785 1.00544 125.51 1.2896 126.061 1.80224C126.612 2.31488 126.948 3.01772 127 3.76856V4.20221C126.957 4.78048 126.746 5.33361 126.394 5.79375C126.041 6.2539 125.561 6.60105 125.014 6.79265C124.467 6.98425 123.875 7.01195 123.312 6.87236C122.75 6.73277 122.24 6.43196 121.845 6.00682C121.451 5.58168 121.189 5.05071 121.092 4.479C120.996 3.90729 121.068 3.31972 121.3 2.78835C121.532 2.25698 121.914 1.80492 122.399 1.4876C122.885 1.17028 123.452 1.00149 124.032 1.00195V1.00727ZM124.032 6.2838C124.487 6.2838 124.932 6.14886 125.31 5.89602C125.689 5.64317 125.984 5.28379 126.158 4.86333C126.332 4.44286 126.378 3.98018 126.289 3.53382C126.2 3.08745 125.981 2.67743 125.659 2.35562C125.337 2.03381 124.927 1.81467 124.481 1.72588C124.034 1.63709 123.572 1.68266 123.151 1.85682C122.731 2.03098 122.372 2.32591 122.119 2.70432C121.866 3.08273 121.731 3.52762 121.731 3.98273C121.731 4.59301 121.973 5.1783 122.405 5.60983C122.836 6.04137 123.422 6.2838 124.032 6.2838ZM124.235 2.48704C124.912 2.48704 125.255 2.84104 125.255 3.31541C125.258 3.48383 125.2 3.64765 125.093 3.77742C124.985 3.90718 124.835 3.9944 124.669 4.02343V4.03584C124.811 4.09914 124.924 4.21261 124.988 4.35446L125.485 5.53862H124.682L124.287 4.5704C124.253 4.4948 124.198 4.43113 124.127 4.38784C124.057 4.34454 123.975 4.32366 123.892 4.3279H123.662V5.53862H122.922V2.5065H124.257L124.235 2.48704ZM123.65 3.74732H123.981C124.451 3.74732 124.503 3.5066 124.503 3.37915C124.503 3.04638 124.057 3.06053 123.981 3.06053H123.65V3.74732Z" fill="#B6B6B6"/>
</svg>
