<svg width="128" height="25" viewBox="0 0 128 25" fill="none" xmlns="http://www.w3.org/2000/svg">
<path d="M0.550781 19.512L7.14071 18.9137C7.40799 19.6908 7.79032 20.2519 8.27355 20.5829C8.75677 20.9139 9.42055 21.0803 10.2365 21.0803C11.1287 21.0803 11.8172 20.8891 12.3022 20.5068C12.4782 20.3911 12.6228 20.2334 12.7229 20.0481C12.823 19.8627 12.8755 19.6554 12.8757 19.4447C12.8757 18.9598 12.6208 18.5916 12.1234 18.3367C11.7694 18.1455 10.81 17.9154 9.26832 17.6481C6.96724 17.2392 5.37419 16.8711 4.46261 16.5259C3.55836 16.1731 2.77231 15.5717 2.19517 14.7913C1.587 13.9889 1.26373 13.0066 1.27651 11.9999C1.25228 10.9285 1.60427 9.8826 2.27128 9.04388C2.93328 8.21549 3.85194 7.60304 5.01133 7.19593C6.17072 6.78882 7.7266 6.5835 9.6896 6.5835C11.7535 6.5835 13.2828 6.73573 14.2634 7.05434C15.191 7.33549 16.0356 7.83924 16.7238 8.5217C17.3876 9.1837 17.9221 10.0758 18.3682 11.198L12.0332 11.86C11.9131 11.3656 11.6308 10.9256 11.2313 10.6104C10.6755 10.2457 10.0213 10.0604 9.35682 10.0794C8.61871 10.0794 8.06999 10.2192 7.73899 10.4741C7.58336 10.5835 7.45597 10.7284 7.36733 10.8967C7.2787 11.0651 7.23136 11.2521 7.22921 11.4423C7.22883 11.6502 7.29042 11.8536 7.40613 12.0263C7.52183 12.1991 7.6864 12.3335 7.87883 12.4123C8.31249 12.6283 9.25593 12.8318 10.7109 12.9982C12.9146 13.2531 14.559 13.5965 15.6299 14.0425C16.6244 14.4249 17.4857 15.0893 18.108 15.9542C18.6703 16.7532 18.9681 17.7084 18.9594 18.6854C18.9464 19.7253 18.6322 20.7392 18.0549 21.6042C17.4566 22.5477 16.499 23.2999 15.1998 23.8593C13.9006 24.4186 12.1234 24.7036 9.89315 24.7036C6.73183 24.7036 4.48916 24.2575 3.13861 23.3513C1.80514 22.4556 0.876039 21.0727 0.550781 19.4996H0.550781V19.512Z" fill="#6F6F6F"/>
<path d="M27.235 12.2085C27.524 11.849 27.8912 11.56 28.3087 11.3637C28.7261 11.1674 29.1828 11.0689 29.6441 11.0757C30.0868 11.072 30.5245 11.17 30.9235 11.3621C31.3224 11.5542 31.6719 11.8353 31.9452 12.1837C32.57 12.9236 32.8762 14.0565 32.8762 15.5734C32.8762 17.2054 32.57 18.3896 31.9452 19.1294C31.6646 19.484 31.3057 19.7688 30.8967 19.9613C30.4876 20.1539 30.0395 20.249 29.5874 20.2393C29.1327 20.2468 28.6824 20.1494 28.2714 19.9548C27.8604 19.7602 27.4997 19.4735 27.2173 19.117C26.5925 18.3648 26.2739 17.2178 26.2739 15.6495C26.2739 14.1078 26.5925 12.9608 27.2173 12.2085H27.2297H27.235ZM22.801 22.597C24.5215 24.013 26.773 24.721 29.5556 24.721C32.678 24.721 35.1206 23.8714 36.8836 22.1722C38.6537 20.464 39.5387 18.278 39.5387 15.6088C39.5387 13.2369 38.8248 11.2403 37.3969 9.61891C35.6269 7.60459 33.0054 6.59741 29.5326 6.59741C26.501 6.59741 24.0926 7.4559 22.3072 9.17286C20.5218 10.8898 19.6297 13.0687 19.6309 15.7097C19.6309 18.5524 20.684 20.8535 22.7904 22.6129L22.801 22.597Z" fill="#6F6F6F"/>
<path d="M48.4814 6.9829H51.6427V11.8647H48.4814V24.3171H41.8295V11.8647H39.3125V6.9829H41.8242V6.20584C41.8321 5.42302 41.9085 4.64238 42.0525 3.8729C42.1645 3.1216 42.458 2.40894 42.9075 1.79662C43.3788 1.22107 43.9876 0.773625 44.6775 0.495631C45.4174 0.16404 46.5007 -0.00117376 47.9274 6.27648e-06H48.069C49.2284 6.27648e-06 50.9099 0.13985 53.0906 0.407128L52.3384 4.40923C51.7027 4.29746 51.0595 4.23357 50.4143 4.21807C49.8143 4.21807 49.3806 4.31896 49.1133 4.52429C48.8241 4.77069 48.6264 5.10746 48.5522 5.48012C48.4849 5.9822 48.4595 6.48899 48.4761 6.99528L48.4814 6.9829Z" fill="#6F6F6F"/>
<path d="M60.4168 11.8648V18.0211C60.4168 18.7592 60.4805 19.2442 60.6203 19.4867C60.8363 19.8566 61.2186 20.0478 61.7549 20.0478C62.2382 20.0478 62.9267 19.9062 63.8064 19.6265L64.2897 24.1897C62.7789 24.5299 61.2361 24.7079 59.6875 24.7208C58.0307 24.7208 56.82 24.5048 56.0306 24.0835C55.2459 23.658 54.6329 22.9737 54.2959 22.1471C53.9277 21.2798 53.7366 19.8903 53.7366 17.9538V11.8613H51.3027V6.97946H53.7383V3.79336L60.3902 0.378906V11.8489L60.4168 11.8648Z" fill="#6F6F6F"/>
<path d="M65.8008 0.395264H72.4544V24.33H65.8008V0.395264Z" fill="#B7B7B7"/>
<path d="M75.2656 24.3294H81.9175V6.98462H75.2656V24.3294Z" fill="#B7B7B7"/>
<path d="M75.2656 0.395264V4.94608H81.9175V0.395264H75.2656Z" fill="#B7B7B7"/>
<path d="M84.4512 6.98329H90.6588V9.81539C91.5757 8.656 92.5191 7.84 93.4625 7.33731C94.406 6.83461 95.5654 6.59741 96.9159 6.59741C98.7509 6.59741 100.187 7.14555 101.224 8.2418C102.256 9.33747 102.778 11.0208 102.778 13.3148V24.3493H96.1336V14.8087C96.1336 13.7254 95.9282 12.9484 95.5335 12.5076C95.1388 12.0669 94.5653 11.8315 93.8396 11.8315C93.4636 11.8224 93.0907 11.9007 92.7501 12.0601C92.4095 12.2195 92.1105 12.4557 91.8766 12.7501C91.3792 13.3608 91.1243 14.4582 91.1243 16.0247V24.3493H84.4512V6.97798V6.98329Z" fill="#B7B7B7"/>
<path d="M111.099 14.1713C111.2 13.127 111.453 12.3499 111.864 11.8136C112.147 11.4097 112.525 11.0821 112.966 10.8597C113.406 10.6374 113.894 10.5273 114.388 10.5391C115.292 10.5391 116.03 10.8206 116.591 11.3799C117.152 11.9393 117.496 12.8721 117.623 14.1713H111.099ZM124.328 16.5804C124.328 14.2793 123.958 12.426 123.206 10.9976C122.481 9.59241 121.337 8.44788 119.931 7.72297C118.491 6.9707 116.54 6.58838 114.069 6.58838C111.022 6.58838 108.63 7.42561 106.893 9.10008C105.156 10.7746 104.289 12.9665 104.293 15.6759C104.293 17.5751 104.727 19.2443 105.58 20.6462C106.433 22.0481 107.527 23.08 108.842 23.7296C110.157 24.3792 111.952 24.6996 114.246 24.6996C116.885 24.6996 118.898 24.3173 120.314 23.565C121.73 22.8127 122.926 21.5631 123.919 19.8178L117.395 19.216C117.084 19.6491 116.695 20.0206 116.248 20.3116C115.689 20.6311 115.056 20.7977 114.412 20.7949C113.941 20.8091 113.473 20.7155 113.044 20.5213C112.614 20.3272 112.235 20.0375 111.934 19.6744C111.488 19.1522 111.194 18.361 111.079 17.3025H124.335V16.5768L124.328 16.5804Z" fill="#B7B7B7"/>
<path d="M31.0729 2.72579C38.6559 3.54179 41.6933 4.1914 48.7629 6.0889C54.6625 7.68195 64.0438 6.9934 64.0438 6.9934V11.8752C60.3727 12.385 52.3951 12.2062 45.7662 9.78478C33.9068 5.46407 28.5241 4.58612 22.1766 4.1206C13.5741 3.50993 3.32727 4.80915 3.32727 4.80915L3.22461 3.94359C3.22461 3.94359 18.0595 1.31684 31.0729 2.71872V2.72579Z" fill="#B7B7B7"/>
<path d="M124.583 0.878363C125.336 0.876529 126.061 1.16069 126.612 1.67333C127.163 2.18598 127.499 2.88882 127.551 3.63965V4.07331C127.508 4.65157 127.297 5.2047 126.945 5.66485C126.592 6.12499 126.112 6.47215 125.565 6.66374C125.018 6.85534 124.426 6.88304 123.863 6.74345C123.301 6.60386 122.791 6.30305 122.396 5.87791C122.002 5.45277 121.74 4.9218 121.643 4.35009C121.547 3.77839 121.619 3.19081 121.851 2.65944C122.083 2.12807 122.465 1.67601 122.95 1.35869C123.436 1.04137 124.003 0.872582 124.583 0.873048V0.878363ZM124.583 6.1549C125.038 6.1549 125.483 6.01996 125.861 5.76711C126.24 5.51427 126.535 5.15489 126.709 4.73442C126.883 4.31395 126.929 3.85128 126.84 3.40491C126.751 2.95854 126.532 2.54853 126.21 2.22671C125.888 1.9049 125.478 1.68576 125.032 1.59697C124.586 1.50819 124.123 1.55375 123.702 1.72791C123.282 1.90208 122.923 2.197 122.67 2.57541C122.417 2.95382 122.282 3.39871 122.282 3.85382C122.282 4.4641 122.524 5.04939 122.956 5.48093C123.387 5.91246 123.973 6.1549 124.583 6.1549ZM124.787 2.35813C125.463 2.35813 125.806 2.71213 125.806 3.1865C125.809 3.35492 125.751 3.51874 125.644 3.64851C125.536 3.77828 125.386 3.86549 125.22 3.89453V3.90693C125.362 3.97024 125.475 4.08371 125.539 4.22555L126.036 5.40971H125.233L124.838 4.44149C124.804 4.36589 124.749 4.30223 124.678 4.25893C124.608 4.21564 124.526 4.19475 124.443 4.19899H124.213V5.40971H123.473V2.3776H124.808L124.787 2.35813ZM124.201 3.61841H124.532C125.002 3.61841 125.054 3.37769 125.054 3.25025C125.054 2.91747 124.608 2.93163 124.532 2.93163H124.201V3.61841Z" fill="#B7B7B7"/>
</svg>
