<svg width="101" height="52" viewBox="0 0 101 52" fill="none" xmlns="http://www.w3.org/2000/svg">
<g opacity="0.4">
<g clip-path="url(#clip0_2431:23241)">
<path d="M93.5581 8.6084C93.7739 8.6084 93.9465 8.65166 94.1623 8.78143C94.3349 8.86795 94.5076 9.04098 94.5939 9.21402C94.7234 9.43031 94.7665 9.60334 94.7665 9.81963C94.7665 10.0359 94.7234 10.2522 94.5939 10.4253C94.5076 10.5983 94.3349 10.7713 94.1623 10.8578C93.9897 10.9444 93.7739 11.0309 93.5581 11.0309C93.3423 11.0309 93.1265 10.9876 92.9538 10.8578C92.7812 10.7713 92.6086 10.5983 92.5222 10.4253C92.4359 10.2522 92.3496 10.0359 92.3496 9.81963C92.3496 9.60334 92.3928 9.38705 92.5222 9.21402C92.6517 9.04098 92.7812 8.86795 92.997 8.78143C93.1696 8.65166 93.3854 8.6084 93.5581 8.6084ZM93.5581 8.69492C93.3854 8.69492 93.2128 8.73817 92.997 8.82469C92.7812 8.91121 92.6949 9.04098 92.5654 9.21402C92.4791 9.38705 92.4359 9.56008 92.4359 9.77638C92.4359 9.94941 92.4791 10.1657 92.5654 10.3387C92.6517 10.5118 92.7812 10.6415 92.9538 10.7281C93.1265 10.8146 93.2991 10.8578 93.5149 10.8578C93.6875 10.8578 93.9033 10.8146 94.076 10.7281C94.2486 10.6415 94.3781 10.5118 94.4644 10.3387C94.5507 10.1657 94.5939 9.99267 94.5939 9.77638C94.5939 9.60334 94.5507 9.38705 94.4644 9.21402C94.3781 9.04098 94.2486 8.91121 94.0328 8.82469C93.817 8.73817 93.7739 8.69492 93.5581 8.69492ZM92.9107 9.04098H93.5581C93.7307 9.04098 93.8602 9.08424 93.9465 9.17076C94.0328 9.25727 94.076 9.34379 94.076 9.43031C94.076 9.51682 94.0328 9.60334 93.9897 9.6466C93.9465 9.73312 93.817 9.77638 93.6875 9.77638L94.0328 10.2955C94.076 10.3387 94.1191 10.382 94.1623 10.4253C94.2054 10.4253 94.2055 10.4685 94.2486 10.4685V10.5118H93.9465L93.4286 9.81963H93.2991V10.382C93.2991 10.4253 93.3423 10.4685 93.3423 10.4685C93.3854 10.4685 93.4286 10.5118 93.5149 10.5118V10.555H92.8675V10.5118C92.9107 10.5118 92.9538 10.5118 92.997 10.5118C93.0402 10.5118 93.0402 10.4685 93.0402 10.4685C93.0402 10.4685 93.0402 10.382 93.0402 10.2955V9.38705C93.0402 9.30053 93.0402 9.25727 93.0402 9.25727C93.0402 9.21402 92.997 9.21402 92.997 9.21402C92.997 9.21402 92.9538 9.21402 92.8675 9.21402V9.04098H92.9107ZM93.2991 9.77638C93.4286 9.77638 93.5149 9.77638 93.6012 9.73312C93.6444 9.68986 93.7307 9.68986 93.7307 9.60334C93.7739 9.56008 93.7739 9.51682 93.7739 9.43031C93.7739 9.34379 93.7307 9.25727 93.6875 9.21402C93.6444 9.17076 93.5581 9.1275 93.4286 9.1275C93.3854 9.1275 93.3423 9.1275 93.2991 9.17076V9.77638Z" fill="#6F6F6F"/>
<path d="M95.5873 19.8585C97.2705 33.4417 77.3309 47.0681 51.0469 50.3124C24.7629 53.5568 2.32011 45.1647 0.636893 31.5816C-1.04632 17.9984 18.7638 4.37203 45.0478 1.12765C71.3318 -2.11673 93.9473 6.2754 95.5873 19.8585ZM49.9679 2.55518C26.0145 4.67484 7.45606 16.1383 8.53504 28.1641C9.61402 40.19 29.8557 48.236 53.8091 46.1164C77.7625 43.9967 96.321 32.5332 95.242 20.5074C94.163 8.43832 73.9213 0.435514 49.9679 2.55518Z" fill="#6F6F6F"/>
<path d="M95.026 31.6653C97.791 31.6653 100.032 29.4187 100.032 26.6474C100.032 23.876 97.791 21.6294 95.026 21.6294C92.261 21.6294 90.0195 23.876 90.0195 26.6474C90.0195 29.4187 92.261 31.6653 95.026 31.6653Z" fill="#6F6F6F"/>
<path d="M26.1436 22.4077H26.3163C26.8773 22.4509 27.1363 22.624 27.2226 22.7105C27.3089 22.797 27.4384 23.0998 27.4384 24.0082V27.6419C27.4384 28.5071 27.3521 29.156 27.1363 29.5453C26.791 30.2374 26.1005 30.5835 25.0215 30.5835C24.072 30.5835 23.4246 30.2374 23.0793 29.5886C22.9067 29.1992 22.8204 28.6801 22.8204 27.9447V23.4459C22.8204 22.8402 22.9498 22.6672 22.993 22.624C23.0793 22.5807 23.2951 22.4509 23.8993 22.4077H24.072V21.7588H19.7129V22.4077H19.8855C20.5329 22.4509 20.7056 22.5807 20.7919 22.624C20.835 22.6672 20.9645 22.8402 20.9645 23.4459V27.815C20.9645 28.7234 21.1371 29.4588 21.4393 30.0211C22.0435 31.0593 23.1225 31.6217 24.7194 31.6217C26.3163 31.6217 27.4384 31.1026 27.9995 30.0211C28.3016 29.4588 28.4742 28.6369 28.4742 27.6419V24.0082C28.4742 23.0998 28.6037 22.8402 28.69 22.7537C28.7763 22.624 28.9921 22.4942 29.5964 22.4509H29.769V21.802H26.1005V22.4077H26.1436Z" fill="black"/>
<path d="M17.0808 24.7437L15.5703 23.792C15.0092 23.4459 14.6208 23.1431 14.3618 22.8403C14.1028 22.5808 14.0165 22.2347 14.0165 21.8454C14.0165 21.4128 14.146 21.0667 14.4481 20.8504C14.7502 20.5909 15.1387 20.4611 15.5703 20.4611C16.1313 20.4611 16.6924 20.6774 17.2966 21.0667C17.8577 21.456 18.2893 22.2347 18.5483 23.2729L18.5914 23.4459H19.4114L18.9798 19.3796H18.2461V19.5094C18.203 19.6824 18.1598 19.769 18.0735 19.8555C18.0303 19.8987 17.944 19.942 17.8145 19.942C17.8145 19.942 17.6419 19.8987 16.9082 19.6824C16.3471 19.4662 15.8292 19.3796 15.4408 19.3796C14.4481 19.3796 13.6281 19.6824 12.9807 20.2881C12.3765 20.8937 12.0744 21.6723 12.0744 22.624C12.0744 23.3162 12.3333 23.965 12.8512 24.5706C13.1102 24.8735 13.4986 25.1763 13.9302 25.4791L15.3976 26.3875C16.2177 26.9066 16.7787 27.2959 17.0377 27.5555C17.4261 27.9448 17.5987 28.3774 17.5987 28.8965C17.5987 29.4588 17.4261 29.8914 17.0808 30.1942C16.7356 30.497 16.304 30.6701 15.7861 30.6701C14.8366 30.6701 14.0597 30.2808 13.4123 29.5454C13.0239 29.1128 12.7218 28.5072 12.4196 27.7718L12.3765 27.642H11.5996L12.1607 31.7515H12.8944L12.9375 31.5785C12.9375 31.4487 12.9807 31.3622 13.067 31.2324C13.1102 31.1892 13.1965 31.1459 13.2828 31.1459C13.2828 31.1459 13.4555 31.1459 14.2323 31.4487C14.8366 31.665 15.4408 31.7515 15.9587 31.7515C17.0808 31.7515 17.9872 31.4055 18.7209 30.7999C19.4546 30.151 19.7999 29.3291 19.7999 28.3774C19.7999 27.642 19.5841 27.0364 19.1956 26.5173C18.7209 25.8684 18.0735 25.306 17.0808 24.7437Z" fill="black"/>
<path d="M33.5244 27.3827C33.7402 27.3827 33.956 27.3827 34.1287 27.3827C35.2076 27.3827 36.114 27.1664 36.8477 26.6905C37.6246 26.2147 37.9698 25.4793 37.9698 24.4411C37.9698 23.6192 37.6246 22.9703 36.934 22.4512C36.2866 21.9754 35.3371 21.7158 34.0855 21.7158H30.2012V22.3647H30.3738C30.978 22.408 31.1507 22.5377 31.1938 22.581C31.237 22.6242 31.3665 22.8405 31.3665 23.4029V29.4591C31.3665 30.1512 31.2802 30.3675 31.237 30.454C31.1938 30.4973 31.0212 30.627 30.3738 30.7136H30.2012V31.3624H34.5171V30.7136H34.3445C33.6539 30.6703 33.4381 30.5405 33.395 30.4973C33.3518 30.454 33.2223 30.281 33.2223 29.6754V27.3394C33.3086 27.3394 33.395 27.3827 33.5244 27.3827ZM33.2223 22.9271C33.2223 22.754 33.2655 22.7108 33.2655 22.7108C33.2655 22.7108 33.3518 22.6675 33.6539 22.6675C34.215 22.6675 34.6897 22.754 35.0782 22.9271C35.7255 23.2299 36.0708 23.749 36.0708 24.4844C36.0708 25.3063 35.7687 25.8686 35.1645 26.1714C34.8192 26.3445 34.3445 26.431 33.7402 26.431C33.6539 26.431 33.6107 26.431 33.5244 26.431C33.4813 26.431 33.3518 26.431 33.2223 26.3877V22.9271Z" fill="black"/>
<path d="M45.0896 28.6372L45.0464 28.7669C44.7011 29.5023 44.3558 29.9782 43.9243 30.1512C43.4927 30.3242 42.8453 30.454 41.8958 30.454C40.7736 30.454 40.4715 30.4107 40.3852 30.3675C40.342 30.3675 40.2557 30.3242 40.2557 30.0647V26.8203H42.1979C42.8884 26.8203 43.1042 26.9501 43.1905 27.0366C43.2769 27.1231 43.4063 27.3827 43.5358 28.0315L43.579 28.2046H44.2695V24.5709H43.579L43.5358 24.7439C43.4063 25.3495 43.2769 25.6091 43.1905 25.6956C43.1042 25.7821 42.8884 25.9119 42.1979 25.9119H40.2557V22.9271C40.2557 22.754 40.2989 22.7108 40.2557 22.7108C40.2557 22.7108 40.342 22.6675 40.4715 22.6675H42.3705C43.3632 22.6675 43.7085 22.7973 43.8379 22.8838C43.9674 22.9703 44.1401 23.2731 44.3127 23.9653L44.3558 24.1383H45.0896L45.0464 21.7158H37.2346V22.3647H37.4072C38.0114 22.408 38.2272 22.5377 38.2704 22.581C38.3135 22.6242 38.443 22.8405 38.443 23.4029V29.6321C38.443 30.281 38.3135 30.4107 38.2704 30.454C38.1841 30.4973 38.0114 30.627 37.364 30.6703H37.1914V31.3192H45.1327L45.8664 28.5506H45.0896V28.6372Z" fill="black"/>
<path d="M54.1533 30.5838C53.9807 30.4973 53.8512 30.3675 53.6786 30.1512L51.0027 26.8636C51.6501 26.7338 52.2112 26.4742 52.5996 26.1282C53.1175 25.6956 53.3765 25.1332 53.3765 24.3546C53.3765 23.2299 52.8154 22.4512 51.6933 22.0186C51.1322 21.8023 50.4416 21.7158 49.6216 21.7158H45.5215V22.3647H45.6941C46.2984 22.408 46.471 22.5377 46.5573 22.581C46.6005 22.6242 46.7299 22.8405 46.7299 23.4029V29.4591C46.7299 30.1945 46.6436 30.3675 46.6005 30.454C46.5573 30.4973 46.3847 30.627 45.7373 30.7136H45.5646V31.3624H49.8806V30.7136H49.7079C49.0605 30.6703 48.8879 30.5405 48.8016 30.4973C48.7584 30.454 48.629 30.281 48.629 29.6754V27.1231H48.9311L52.427 31.449H54.9734V30.8001H54.8007C54.5418 30.7136 54.326 30.6703 54.1533 30.5838ZM48.5858 26.1714V22.9271C48.5858 22.754 48.629 22.7108 48.629 22.7108C48.629 22.7108 48.7584 22.6675 49.2332 22.6675C49.7943 22.6675 50.2258 22.754 50.5711 22.8838C51.1753 23.1433 51.4343 23.6192 51.4343 24.3546C51.4343 25.09 51.1322 25.6091 50.4416 25.8686C50.0964 26.0417 49.449 26.1714 48.5858 26.1714Z" fill="black"/>
<path d="M61.5782 28.4209L58.5139 21.7158H55.4064V22.3647H55.6222C56.3128 22.408 56.5286 22.5377 56.5717 22.581C56.6581 22.6242 56.7444 22.8405 56.7444 23.4029V29.113C56.7444 30.0214 56.6149 30.281 56.5286 30.4108C56.4423 30.4973 56.2265 30.6703 55.5359 30.7136H55.3633V31.3624H59.075V30.7136H58.9023C58.2981 30.6703 58.1255 30.5405 58.0392 30.454C57.9097 30.3242 57.7802 29.9782 57.7802 29.113V24.5276L60.974 31.449H61.4487L64.6857 24.2248V29.5456C64.6857 30.281 64.5562 30.4973 64.513 30.5405C64.4699 30.5838 64.2972 30.7136 63.6067 30.7568H63.4341V31.4057H67.75V30.7568H67.5773C66.9731 30.7136 66.7573 30.5838 66.7142 30.5405C66.671 30.4973 66.5415 30.3242 66.5415 29.7186V23.4462C66.5415 22.8838 66.6278 22.6675 66.7142 22.6242C66.7573 22.581 66.9731 22.4512 67.5773 22.408H67.75V21.7591H64.6425L61.5782 28.4209Z" fill="black"/>
<path d="M71.5049 30.5402C71.4617 30.497 71.3323 30.3672 71.3323 29.7183V23.4459C71.3323 22.8403 71.4617 22.6672 71.5049 22.624C71.5912 22.5374 71.807 22.4509 72.4976 22.4077H72.7133V21.7588H68.1816V22.4077H68.3974C69.088 22.4509 69.3038 22.5374 69.3901 22.624C69.4333 22.6672 69.5627 22.8403 69.5627 23.4459V29.6751C69.5627 30.324 69.4333 30.497 69.3901 30.497C69.3038 30.5402 69.088 30.67 68.3974 30.7133H68.2248V31.3622H72.7565V30.7133H72.5839C71.807 30.7133 71.548 30.5835 71.5049 30.5402Z" fill="black"/>
<path d="M80.0932 29.243C79.7048 29.6323 79.3164 29.9351 78.9711 30.1081C78.41 30.4542 77.7626 30.584 77.0721 30.584C76.1226 30.584 75.3457 30.2379 74.7415 29.5458C74.1372 28.8536 73.792 27.902 73.792 26.6907C73.792 25.393 74.0941 24.3548 74.6983 23.6194C75.3025 22.884 76.0362 22.5379 76.9426 22.5379C77.8489 22.5379 78.5395 22.884 79.1006 23.5329C79.4027 23.8789 79.6185 24.398 79.7911 24.9604L79.8343 25.0902H80.5248L80.3953 21.543H79.7479L79.7048 21.6727C79.6616 21.7593 79.6185 21.8458 79.5321 21.889C79.4458 21.9323 79.3595 21.9756 79.2732 21.9756C79.23 21.9756 79.1006 21.9323 78.41 21.7593C77.8489 21.5862 77.331 21.543 76.8131 21.543C75.3025 21.543 74.0509 22.0621 73.1446 23.057C72.2382 24.0087 71.8066 25.2199 71.8066 26.6475C71.8066 28.0317 72.2382 29.1997 73.1014 30.1081C74.0078 31.1031 75.2594 31.6222 76.8131 31.6222C77.7626 31.6222 78.669 31.3626 79.489 30.8435C79.9637 30.5407 80.3522 30.1514 80.6974 29.7621L80.8269 29.6323L80.309 29.1132L80.0932 29.243Z" fill="black"/>
<path d="M90.0191 30.7568C89.7601 30.7136 89.5875 30.6703 89.4148 30.5838C89.2422 30.4973 89.1127 30.3675 88.9401 30.1512L86.2642 26.8636C86.9116 26.7338 87.4727 26.4742 87.8611 26.1282C88.379 25.6956 88.638 25.1332 88.638 24.3546C88.638 23.2299 88.0769 22.4512 86.9548 22.0186C86.3937 21.8023 85.7032 21.7158 84.8831 21.7158H80.8262V22.3647H80.9988C81.603 22.408 81.7757 22.5377 81.862 22.581C81.9051 22.6242 82.0346 22.8405 82.0346 23.4029V29.4591C82.0346 30.1945 81.9483 30.3675 81.9052 30.454C81.862 30.4973 81.6894 30.627 81.042 30.7136H80.8693V31.3624H85.1853V30.7136H85.0126C84.3652 30.6703 84.1926 30.5405 84.1063 30.4973C84.0631 30.454 83.9336 30.281 83.9336 29.6754V27.1231H84.2357L87.7316 31.449H90.278V30.8001L90.0191 30.7568ZM83.8473 26.1714V22.9271C83.8473 22.754 83.8905 22.7108 83.8905 22.7108C83.8905 22.7108 84.02 22.6675 84.4947 22.6675C85.0558 22.6675 85.4874 22.754 85.8326 22.8838C86.4369 23.1433 86.6958 23.6192 86.6958 24.3546C86.6958 25.09 86.3937 25.6091 85.7032 25.8686C85.3579 26.0417 84.7105 26.1714 83.8473 26.1714Z" fill="black"/>
</g>
</g>
<defs>
<clipPath id="clip0_2431:23241">
<rect width="100" height="51.8355" fill="white" transform="translate(0.550781)"/>
</clipPath>
</defs>
</svg>
