<svg width="20" height="20" viewBox="0 0 20 20" fill="none" xmlns="http://www.w3.org/2000/svg">
<circle cx="10" cy="10" r="9.375" stroke="#4A70F8" stroke-width="1.25"/>
<path d="M12.9569 7.66668C12.9568 7.66674 12.9558 7.66692 12.9539 7.66706L12.9569 7.66668ZM12.7591 7.21952C12.7593 7.21952 12.7579 7.22116 12.7543 7.22442C12.7571 7.22114 12.7589 7.21951 12.7591 7.21952ZM12.4792 7.09157L6.80141 10.6443L4.45424 9.91421L4.4539 9.9141C4.43214 9.90736 4.41288 9.90059 4.3959 9.89399C4.44247 9.86568 4.50617 9.83365 4.59097 9.80069C4.5912 9.8006 4.59143 9.80051 4.59166 9.80043L14.3943 6.04744C14.5356 5.99524 14.5852 6.03705 14.5902 6.04192C14.5993 6.05065 14.6674 6.13088 14.6189 6.38747L14.6119 6.42004L12.9442 14.2346C12.8918 14.4627 12.8207 14.4983 12.8173 14.4999C12.8154 14.5007 12.7523 14.5278 12.576 14.4337L10.0539 12.5867L9.80742 12.4061L9.58655 12.6172L8.51344 13.6428L8.63725 11.9013L13.2362 7.77186C13.2365 7.77155 13.2368 7.77124 13.2372 7.77093C13.312 7.70446 13.4274 7.57758 13.4341 7.39448C13.4429 7.15406 13.2703 7.01612 13.1366 6.9688C13.0144 6.92555 12.8888 6.93403 12.7899 6.9564C12.6856 6.97997 12.5797 7.0257 12.4792 7.09157ZM4.29818 9.97183C4.29815 9.97183 4.29842 9.97136 4.2991 9.97043L4.29818 9.97183Z" fill="#4A70F8" stroke="#4A70F8" stroke-width="0.729267"/>
</svg>
