<svg width="46" height="46" viewBox="0 0 46 46" fill="none" xmlns="http://www.w3.org/2000/svg">
<circle cx="23" cy="23" r="23" fill="#D3D8DF"/>
<g clip-path="url(#clip0_3582:24880)">
<rect width="23" height="23" transform="translate(12.1055 12.1055)" fill="#D3D8DF"/>
<path d="M34.5843 16.3636C34.2229 16.5239 33.8515 16.6591 33.4719 16.769C33.9213 16.2607 34.2639 15.6627 34.4731 15.0083C34.5199 14.8617 34.4713 14.7011 34.3508 14.6052C34.2304 14.5092 34.0631 14.4977 33.9305 14.5762C33.1244 15.0543 32.2547 15.3979 31.3428 15.5988C30.4242 14.7013 29.1765 14.1904 27.8867 14.1904C25.1642 14.1904 22.9492 16.4053 22.9492 19.1278C22.9492 19.3422 22.9628 19.5554 22.9897 19.7657C19.6113 19.4691 16.4704 17.8086 14.3136 15.1629C14.2368 15.0686 14.1184 15.0178 13.9971 15.0275C13.8758 15.037 13.7668 15.1054 13.7055 15.2105C13.2681 15.9611 13.0368 16.8196 13.0368 17.6931C13.0368 18.8828 13.4616 20.0116 14.2119 20.8936C13.9838 20.8146 13.7624 20.7158 13.5511 20.5985C13.4376 20.5354 13.2992 20.5364 13.1865 20.601C13.0737 20.6656 13.003 20.7845 13 20.9144C12.9995 20.9363 12.9995 20.9581 12.9995 20.9803C12.9995 22.7562 13.9553 24.355 15.4165 25.2264C15.291 25.2138 15.1655 25.1956 15.0409 25.1718C14.9124 25.1473 14.7802 25.1923 14.6936 25.2903C14.6068 25.3882 14.5781 25.5248 14.618 25.6494C15.1589 27.3381 16.5515 28.5801 18.2349 28.9588C16.8387 29.8333 15.2419 30.2914 13.5658 30.2914C13.216 30.2914 12.8643 30.2709 12.52 30.2301C12.349 30.2098 12.1855 30.3108 12.1272 30.4734C12.069 30.6361 12.1307 30.8175 12.2762 30.9108C14.4295 32.2914 16.9194 33.0212 19.4765 33.0212C24.5034 33.0212 27.6481 30.6507 29.4009 28.6621C31.5866 26.1825 32.8402 22.9004 32.8402 19.6575C32.8402 19.522 32.8381 19.3852 32.834 19.2488C33.6963 18.5991 34.4388 17.8128 35.0429 16.909C35.1347 16.7718 35.1248 16.5904 35.0185 16.464C34.9123 16.3376 34.7353 16.2967 34.5843 16.3636Z" fill="#393C42"/>
</g>
<defs>
<clipPath id="clip0_3582:24880">
<rect width="23" height="23" fill="white" transform="translate(12.1055 12.1055)"/>
</clipPath>
</defs>
</svg>
