<svg width="18" height="18" viewBox="0 0 18 18" fill="none" xmlns="http://www.w3.org/2000/svg">
<path fill-rule="evenodd" clip-rule="evenodd" d="M16.4 9C16.4 13.0869 13.0869 16.4 9 16.4C4.91309 16.4 1.6 13.0869 1.6 9C1.6 4.91309 4.91309 1.6 9 1.6C13.0869 1.6 16.4 4.91309 16.4 9ZM18 9C18 13.9706 13.9706 18 9 18C4.02944 18 0 13.9706 0 9C0 4.02944 4.02944 0 9 0C13.9706 0 18 4.02944 18 9ZM10.2427 10.8338L10.8544 13H12L9.68932 5H8.31068L6 13H7.1165L7.70874 10.8338H10.2427ZM8.95146 6.19198H9L9.97087 9.72206H7.97087L8.95146 6.19198Z" fill="#FF9900"/>
</svg>
