<svg width="32" height="32" viewBox="0 0 32 32" fill="none" xmlns="http://www.w3.org/2000/svg">
<path d="M3 9.5H19C20.0609 9.5 21.0783 9.92143 21.8284 10.6716C22.5786 11.4217 23 12.4391 23 13.5V25.5C23 25.7652 22.8946 26.0196 22.7071 26.2071C22.5196 26.3946 22.2652 26.5 22 26.5H6C4.93913 26.5 3.92172 26.0786 3.17157 25.3284C2.42143 24.5783 2 23.5609 2 22.5V10.5C2 10.2348 2.10536 9.98043 2.29289 9.79289C2.48043 9.60536 2.73478 9.5 3 9.5V9.5Z" stroke="#3A3B3D" stroke-width="2.5" stroke-linecap="round" stroke-linejoin="round"/>
<path d="M23 16L30 12V24L23 20" stroke="#3A3B3D" stroke-width="2.5" stroke-linecap="round" stroke-linejoin="round"/>
</svg>
