<svg width="46" height="46" viewBox="0 0 46 46" fill="none" xmlns="http://www.w3.org/2000/svg">
<circle cx="23" cy="23" r="23" fill="#D3D8DF"/>
<path d="M33.9397 18.2235C34.1104 17.6619 33.9397 17.25 33.1324 17.25H30.4579C29.7774 17.25 29.4665 17.6063 29.2957 17.9976C29.2957 17.9976 27.9359 21.2816 26.0091 23.4109C25.3871 24.0305 25.103 24.2261 24.7639 24.2261C24.5944 24.2261 24.3481 24.0305 24.3481 23.4689V18.2235C24.3481 17.5495 24.1517 17.25 23.5847 17.25H19.3822C18.9578 17.25 18.7017 17.5616 18.7017 17.8587C18.7017 18.4964 19.6651 18.6438 19.7639 20.441V24.3397C19.7639 25.1936 19.609 25.3494 19.2675 25.3494C18.3614 25.3494 16.1565 22.0533 14.8479 18.2802C14.5931 17.5471 14.3357 17.2512 13.6528 17.2512H10.9796C10.2149 17.2512 10.0625 17.6075 10.0625 17.9988C10.0625 18.7018 10.9686 22.1802 14.2833 26.7806C16.4931 29.922 19.6041 31.625 22.4383 31.625C24.1371 31.625 24.3469 31.247 24.3469 30.5948V28.2203C24.3469 27.4642 24.5091 27.312 25.0469 27.312C25.442 27.312 26.1225 27.5101 27.7091 29.0234C29.5213 30.8182 29.8213 31.6238 30.8396 31.6238H33.5129C34.2763 31.6238 34.658 31.2458 34.4385 30.4993C34.1982 29.7566 33.3324 28.6756 32.1836 27.3966C31.5592 26.6671 30.6262 25.882 30.3421 25.4895C29.9457 24.9834 30.0604 24.76 30.3421 24.3107C30.3421 24.3107 33.6007 19.7682 33.9397 18.2235Z" fill="#393C42"/>
</svg>
