<svg width="147" height="114" viewBox="0 0 147 114" fill="none" xmlns="http://www.w3.org/2000/svg">
<path d="M142.493 50.5618L125.381 107.131C123.179 114.41 115.467 118.539 108.188 116.338L13.9063 87.8174C6.62769 85.6156 2.49785 77.9036 4.69961 70.6251L21.8117 14.0559C24.0135 6.77735 31.7255 2.64751 39.004 4.84927L133.286 33.3695C140.565 35.5712 144.694 43.2832 142.493 50.5618Z" fill="#A0B4FB"/>
<path d="M142.491 50.5618L125.379 107.131C123.177 114.41 115.465 118.539 108.186 116.338L100.644 114.056C107.922 116.258 115.634 112.128 117.836 104.849L134.948 48.2802C137.15 41.0016 133.02 33.2896 125.742 31.0879L133.284 33.3695C140.563 35.5713 144.693 43.2832 142.491 50.5618Z" fill="#8399E8"/>
<path d="M20.3458 18.896L141.027 55.4019L137.11 68.3502L16.429 31.8444L20.3458 18.896Z" fill="#5679F8"/>
<path d="M133.486 53.124L141.028 55.4056L137.113 68.3487L129.57 66.0671L133.486 53.124Z" fill="#3754C0"/>
</svg>
