<svg width="1136" height="369" viewBox="0 0 1136 369" fill="none" xmlns="http://www.w3.org/2000/svg">
<g clip-path="url(#clip0_1854:13963)">
<rect width="1136" height="369" fill="url(#paint0_radial_1854:13963)"/>
<path opacity="0.0526316" d="M1221.91 378.848C1206.95 397.82 1159.14 429.567 1087.57 404.781C998.097 373.798 963.495 291.67 883.643 249.086C824.707 217.655 666.342 170.476 575.28 222.609" stroke="white" stroke-width="1.45842"/>
<path opacity="0.105263" d="M1236.67 339.075C1223.87 359.433 1179.8 395.77 1105.9 378.251C1013.52 356.352 970.104 278.122 886.021 243.727C823.96 218.342 661.29 187.2 576.443 248.121" stroke="white" stroke-width="1.45842"/>
<path opacity="0.157895" d="M1247.82 298.766C1237.32 320.288 1197.48 360.818 1122.06 350.758C1027.79 338.183 976.03 264.708 888.635 238.879C824.131 219.816 658.936 205.054 581.235 274.095" stroke="white" stroke-width="1.45842"/>
<path opacity="0.210526" d="M1255.32 258.284C1247.24 280.734 1212.06 325.011 1135.95 322.521C1040.82 319.408 981.286 251.492 891.537 234.513C825.296 221.982 659.388 223.76 589.683 300.165" stroke="white" stroke-width="1.45842"/>
<path opacity="0.263158" d="M1259.17 217.991C1253.6 241.122 1223.47 288.662 1147.51 293.769C1052.55 300.152 985.898 238.54 894.78 230.597C827.527 224.734 662.723 243.034 601.778 325.965" stroke="white" stroke-width="1.45842"/>
<path opacity="0.315789" d="M1259.42 178.248C1256.42 201.809 1231.66 252.091 1156.67 264.738C1062.94 280.547 989.896 225.915 898.405 227.094C830.878 227.964 668.983 262.584 617.467 351.134" stroke="white" stroke-width="1.45842"/>
<path opacity="0.368421" d="M1256.14 139.417C1255.74 163.148 1236.63 215.621 1163.44 235.671C1071.96 260.733 993.321 213.677 902.461 223.966C835.399 231.56 678.188 282.121 636.664 375.319" stroke="white" stroke-width="1.45842"/>
<path opacity="0.421053" d="M1249.46 101.843C1251.66 125.484 1238.41 179.573 1167.82 206.806C1079.59 240.846 996.22 201.884 906.985 221.169C841.124 235.403 690.318 301.352 659.241 398.177" stroke="white" stroke-width="1.45842"/>
<path opacity="0.473684" d="M1239.53 65.8513C1244.31 89.1432 1237.06 144.256 1169.85 178.373C1085.83 221.019 998.646 190.576 912.015 218.647C848.075 239.366 705.327 319.979 685.039 419.37" stroke="white" stroke-width="1.45842"/>
<path opacity="0.526316" d="M1226.54 31.7674C1233.84 54.4554 1232.69 109.988 1169.58 150.615C1090.69 201.399 1000.65 179.81 917.574 216.359C856.256 243.335 723.13 337.73 713.852 438.598" stroke="white" stroke-width="1.45842"/>
<path opacity="0.578947" d="M1210.71 -0.123223C1220.47 21.7123 1225.4 77.0564 1167.1 123.749C1094.21 182.115 1002.3 169.615 923.684 214.242C865.66 247.179 743.615 354.322 745.448 455.562" stroke="white" stroke-width="1.45842"/>
<path opacity="0.631579" d="M1192.31 -29.5461C1204.41 -8.80237 1215.39 45.7467 1162.52 97.993C1096.44 163.301 1003.65 160.029 930.363 212.244C876.269 250.782 766.641 369.499 779.566 470.001" stroke="white" stroke-width="1.45842"/>
<path opacity="0.684211" d="M1171.62 -56.2581C1185.93 -36.8334 1202.83 16.323 1155.98 73.5507C1097.42 145.085 1004.78 151.076 937.621 210.307C888.05 254.025 792.041 383.014 815.916 481.678" stroke="white" stroke-width="1.45842"/>
<path opacity="0.736842" d="M1148.94 -80.0463C1165.3 -62.1533 1187.94 -10.972 1147.62 50.61C1097.23 127.588 1005.76 142.775 945.458 208.374C900.952 256.791 819.614 394.64 854.177 490.385" stroke="white" stroke-width="1.45842"/>
<path opacity="0.789474" d="M1124.62 -100.728C1142.85 -84.5628 1170.98 -35.9172 1137.63 29.3444C1095.96 110.922 1006.65 135.14 953.877 206.388C914.924 258.974 849.148 404.172 894.021 495.949" stroke="white" stroke-width="1.45842"/>
<path opacity="0.842105" d="M1099 -118.159C1118.9 -103.899 1152.21 -58.3222 1126.2 9.9041C1093.7 95.187 1007.54 128.171 962.866 204.287C929.894 260.466 880.399 411.423 935.091 498.225" stroke="white" stroke-width="1.45842"/>
<path opacity="0.894737" d="M1072.43 -132.225C1093.79 -120.026 1131.91 -78.0173 1113.53 -7.5738C1090.56 80.4805 1008.49 121.868 972.409 202.019C945.777 261.176 913.107 416.237 977.018 497.115" stroke="white" stroke-width="1.45842"/>
<path opacity="0.947368" d="M1045.31 -142.85C1067.89 -132.846 1110.41 -94.8657 1099.85 -22.9769C1086.66 66.8841 1009.58 116.222 982.483 199.529C962.485 261.016 946.998 418.483 1019.43 492.549" stroke="white" stroke-width="1.45842"/>
<path d="M1018 -150C1041.56 -142.3 1088.01 -108.765 1085.39 -36.2183C1082.13 54.4649 1010.88 111.213 993.067 196.763C979.92 259.906 981.786 418.053 1061.94 484.497" stroke="white" stroke-width="1.45842"/>
</g>
<defs>
<radialGradient id="paint0_radial_1854:13963" cx="0" cy="0" r="1" gradientUnits="userSpaceOnUse" gradientTransform="translate(5.94255e-05 369) rotate(-58.0237) scale(417.321 443.664)">
<stop stop-color="white"/>
<stop offset="1" stop-color="#EDF1FF"/>
</radialGradient>
<clipPath id="clip0_1854:13963">
<rect width="1136" height="369" fill="white"/>
</clipPath>
</defs>
</svg>
