<svg width="46" height="47" viewBox="0 0 46 47" fill="none" xmlns="http://www.w3.org/2000/svg">
<path d="M1 9.00171V45.0017" stroke="#007CFF" stroke-width="2" stroke-linecap="round"/>
<path d="M45 12.5017L0.999996 12.5017" stroke="#007CFF" stroke-width="2" stroke-linecap="round"/>
<path d="M1 41.5017L45 41.5017" stroke="#007CFF" stroke-width="2" stroke-linecap="round"/>
<path d="M45 27.5017L0.999998 27.5017" stroke="#007CFF" stroke-width="2" stroke-linecap="round"/>
<path d="M45 9.00171V45.0017" stroke="#007CFF" stroke-width="2" stroke-linecap="round"/>
<path d="M6 12.5017V5.50171H21V12.5017" stroke="#007CFF" stroke-width="2" stroke-linejoin="round"/>
<path d="M40 41.5017V34.5017H25V41.5017" stroke="#007CFF" stroke-width="2" stroke-linejoin="round"/>
<path d="M6 26.5017V18.5017H40V26.5017" stroke="#007CFF" stroke-width="2" stroke-linejoin="round"/>
<path d="M25 13.0017V1.00171H40V13.0017" stroke="#007CFF" stroke-width="2" stroke-linejoin="round"/>
<path d="M18 41.5017V31.5017H6V41.5017" stroke="#007CFF" stroke-width="2" stroke-linejoin="round"/>
<path d="M16 5.50171L16 8.50171L11 8.50171L11 5.50171" stroke="#007CFF" stroke-width="2" stroke-linejoin="round"/>
<path d="M30 34.5017L30 37.5017L35 37.5017L35 34.5017" stroke="#007CFF" stroke-width="2" stroke-linejoin="round"/>
<path d="M25 18.5017L25 21.5017L20 21.5017L20 18.5017" stroke="#007CFF" stroke-width="2" stroke-linejoin="round"/>
<path d="M35 1.50171L35 4.50171L30 4.50171L30 1.50171" stroke="#007CFF" stroke-width="2" stroke-linejoin="round"/>
<path d="M10 31.5017L10 34.5017L14 34.5017L14 31.5017" stroke="#007CFF" stroke-width="2" stroke-linejoin="round"/>
</svg>
