<svg width="20" height="20" viewBox="0 0 20 20" fill="none" xmlns="http://www.w3.org/2000/svg">
<path d="M9.99935 1.66675C5.40685 1.66675 1.66602 5.40758 1.66602 10.0001C1.66602 14.5926 5.40685 18.3334 9.99935 18.3334C14.5919 18.3334 18.3327 14.5926 18.3327 10.0001C18.3327 5.40758 14.5919 1.66675 9.99935 1.66675ZM9.99935 3.33341C13.6911 3.33341 16.666 6.30831 16.666 10.0001C16.666 13.6919 13.6911 16.6667 9.99935 16.6667C6.30758 16.6667 3.33268 13.6919 3.33268 10.0001C3.33268 6.30831 6.30758 3.33341 9.99935 3.33341ZM9.16602 5.83342V7.50008H10.8327V5.83342H9.16602ZM9.16602 9.16675V14.1667H10.8327V9.16675H9.16602Z" fill="#E1E1D8"/>
</svg>
