<svg width="10" height="10" viewBox="0 0 10 10" fill="none" xmlns="http://www.w3.org/2000/svg">
<path d="M8.39396 3.84853L8.95965 4.41421L7.82828 5.54558L7.26259 4.9799L8.39396 3.84853ZM4.99985 1.58579L4.43416 1.0201L4.99985 0.454415L5.56553 1.0201L4.99985 1.58579ZM2.73711 4.9799L2.17142 5.54558L1.04005 4.41421L1.60574 3.84853L2.73711 4.9799ZM5.79985 8.41421L5.79985 9.21421L4.19985 9.21421L4.19985 8.41421L5.79985 8.41421ZM7.26259 4.9799L4.43416 2.15147L5.56553 1.0201L8.39396 3.84853L7.26259 4.9799ZM5.56553 2.15147L2.73711 4.9799L1.60574 3.84853L4.43416 1.0201L5.56553 2.15147ZM5.79985 1.58579V8.41421L4.19985 8.41421V1.58579L5.79985 1.58579Z" fill="#FCFF00"/>
</svg>
