<svg width="1086" height="692" viewBox="0 0 1086 692" fill="none" xmlns="http://www.w3.org/2000/svg">
<path fill-rule="evenodd" clip-rule="evenodd" d="M255 32.9259V51H1V1H221.776L255 32.9259ZM256 51V32.5L222.179 0H1H0V1V51V52V622V622.707V691V692H1H69.2929H70H1016L1086 622V121.5V120.79V52V51H1085H1016.7H1016H256ZM1 52V622V622.293L69.7071 691H70H1015.59L1085 621.586V121.5V121.203L1016.29 52H1016H256H255H1ZM1085 119.783L1017.7 52H1085V119.783ZM1 623.707L68.2929 691H1V623.707Z" fill="#C5EAF1"/>
</svg>
