<svg width="102" height="76" viewBox="0 0 102 76" fill="none" xmlns="http://www.w3.org/2000/svg">
<g clip-path="url(#clip0_1639:10868)">
<path d="M94.9177 44.7528L83.9053 81.1573C82.4884 85.8414 77.5254 88.4991 72.8414 87.0822L12.1672 68.7283C7.48313 67.3114 4.82541 62.3484 6.24233 57.6644L17.2547 21.2598C18.6716 16.5758 23.6346 13.9181 28.3186 15.335L88.9928 33.6889C93.6769 35.1058 96.3346 40.0688 94.9177 44.7528Z" fill="#A0B4FB"/>
<path d="M94.9155 44.7526L83.9032 81.1572C82.4862 85.8412 77.5233 88.4989 72.8392 87.082L67.9853 85.6137C72.6693 87.0306 77.6323 84.3729 79.0492 79.6889L90.0616 43.2843C91.4785 38.6003 88.8208 33.6373 84.1367 32.2204L88.9907 33.6887C93.6747 35.1056 96.3324 40.0686 94.9155 44.7526Z" fill="#8399E8"/>
<path d="M16.3105 24.3741L93.9735 47.8671L91.4529 56.1999L13.7899 32.7069L16.3105 24.3741Z" fill="#5679F8"/>
<path d="M89.1211 46.4015L93.975 47.8698L91.4554 56.1992L86.6015 54.7309L89.1211 46.4015Z" fill="#3754C0"/>
<rect x="22.4023" y="46.7635" width="7.56853" height="7.56853" rx="1" transform="rotate(16.8379 22.4023 46.7635)" fill="white"/>
</g>
<defs>
<clipPath id="clip0_1639:10868">
<rect width="81.1385" height="81.1385" fill="white" transform="translate(23.4922 0.630371) rotate(16.8305)"/>
</clipPath>
</defs>
</svg>
