<svg width="40" height="40" viewBox="0 0 40 40" fill="none" xmlns="http://www.w3.org/2000/svg">
<circle cx="20" cy="20" r="20" fill="#EFF0F0"/>
<g clip-path="url(#clip0_2768:3896)">
<path d="M33 13.9062V26.0937C33 27.6619 31.7244 28.9375 30.1563 28.9375H9.84375C8.27563 28.9375 7 27.6619 7 26.0937V13.9062C7 12.3381 8.27563 11.0625 9.84375 11.0625H30.1563C31.7244 11.0625 33 12.3381 33 13.9062Z" fill="#C1C4CD"/>
<path d="M33 13.9063V26.0938C33 27.6619 31.7244 28.9375 30.1562 28.9375H28.5312C30.0994 28.9375 31.375 27.6619 31.375 26.0938V13.9063C31.375 12.3381 30.0994 11.0625 28.5312 11.0625H30.1562C31.7244 11.0625 33 12.3381 33 13.9063Z" fill="#8E95AD"/>
<path d="M12.6875 24.876H11.875C11.4263 24.876 11.0625 24.5122 11.0625 24.0635V23.251C11.0625 22.8023 11.4263 22.4385 11.875 22.4385H12.6875C13.1362 22.4385 13.5 22.8023 13.5 23.251V24.0635C13.5 24.5122 13.1362 24.876 12.6875 24.876Z" fill="white"/>
<path d="M7 15.5312H33V17.1562H7V15.5312Z" fill="#718BEA"/>
<path d="M31.375 15.5312H33V17.1563H31.375V15.5312Z" fill="#4361CE"/>
</g>
<defs>
<clipPath id="clip0_2768:3896">
<rect width="26" height="26" fill="white" transform="translate(7 7)"/>
</clipPath>
</defs>
</svg>
