<svg width="24" height="24" viewBox="0 0 24 24" fill="none" xmlns="http://www.w3.org/2000/svg">
<path d="M5.57058 14.2064H4.28423C3.57497 14.2064 3 13.6314 3 12.9221V6.50786C3 5.7986 3.57497 5.22363 4.28423 5.22363H9.81089H14.3576C15.0669 5.22363 15.6418 5.7986 15.6418 6.50786V7.57148M6.44055 9.52931C6.71 11.18 7.5713 14.8003 13.4174 14.3551M13.4174 14.3551L11.4788 12.3054M13.4174 14.3551L11.4788 16.4048" stroke="#4A70F8" stroke-width="1.6" stroke-linecap="round" stroke-linejoin="round"/>
<path d="M10.9052 10.0293H15.2888H19.8679C20.4928 10.0293 20.9994 10.5651 20.9994 11.2259V17.579C20.9994 18.2399 20.4928 18.7757 19.8679 18.7757H9.79985C9.09059 18.7757 8.51562 18.2007 8.51562 17.4914V16.6811" stroke="#4A70F8" stroke-width="1.6" stroke-linecap="round"/>
</svg>
