<svg width="96" height="76" viewBox="0 0 96 76" fill="none" xmlns="http://www.w3.org/2000/svg">
<g clip-path="url(#clip0_2154:2695)">
<path d="M24.2987 14.129L81.1714 31.3324C84.2995 32.2786 86.0846 35.6121 85.1384 38.7401L83.074 45.5649C82.1278 48.693 78.7943 50.4781 75.6663 49.5319L18.7935 32.3285C15.6655 31.382 13.8804 28.0486 14.8266 24.9207L16.891 18.0959C17.8372 14.9679 21.1706 13.1828 24.2987 14.129Z" fill="#A86A3F"/>
<path d="M34.9129 23.9831L73.371 25.3117C74.6686 25.3317 75.6961 26.4495 75.676 27.7471L74.9847 51.3754C74.9646 52.673 73.8469 53.7004 72.5493 53.6804L22.4649 52.0009C21.1674 51.9809 20.1399 50.8631 20.1599 49.5655L20.6888 32.22L34.9129 23.9831Z" fill="#3DB39E"/>
<path d="M14.8152 26.595C26.6932 23.8561 58.8265 16.1325 58.8265 16.1325C60.0963 15.8338 61.4148 16.6051 61.7137 17.8749L67.1702 40.8798C67.4689 42.1496 66.658 43.3941 65.3881 43.6929L16.5317 54.9865C15.2619 55.2852 13.9434 54.5139 13.6445 53.2441C13.6445 53.2441 12.4209 45.7973 10.8875 39.3739C14.7583 26.5778 13.5422 30.8035 14.8152 26.595Z" fill="#5ABEAC"/>
<path d="M66.2426 88.8941L7.09488 71.0026C3.96681 70.0564 2.1817 66.723 3.1279 63.5949L15.5143 22.6465L80.3494 42.2584C83.4774 43.2046 85.2625 46.5381 84.3163 49.6661L73.6502 84.9273C72.7039 88.0552 69.3705 89.8403 66.2426 88.8941ZM20.0642 24.0228L15.5143 22.6465L16.8906 18.0967C16.1337 20.599 17.5617 23.2658 20.0642 24.0228Z" fill="#C47E4D"/>
<path d="M76.2311 76.3957L67.1315 73.6432C62.7524 72.3185 60.2532 67.6518 61.5779 63.2726C62.9025 58.8934 67.5693 56.3943 71.9484 57.7189L81.048 60.4715C82.2993 60.8499 83.0133 62.1833 82.6348 63.4345L79.1942 74.8091C78.8157 76.0602 77.4824 76.7742 76.2311 76.3957Z" fill="#A86A3F"/>
<path d="M70.9151 61.132C73.4175 61.8889 74.8457 64.5556 74.0887 67.0581C73.3317 69.5606 70.665 70.9887 68.1625 70.2317C65.6602 69.4747 64.232 66.808 64.989 64.3055C65.7459 61.803 68.4127 60.375 70.9151 61.132Z" fill="#EFC75E"/>
<path d="M66.9311 86.6196L7.78338 68.728C4.65531 67.7818 2.8702 64.4484 3.81641 61.3203L3.12826 63.5953C2.18206 66.7233 3.96717 70.0567 7.09524 71.003L66.2429 88.8945C69.371 89.8407 72.7044 88.0556 73.6506 84.9275L74.3388 82.6526C73.3924 85.7806 70.059 87.5657 66.9311 86.6196Z" fill="#B27245"/>
<path d="M80.3494 42.2584L20.0642 24.0228C17.5617 23.2658 16.1337 20.599 16.8906 18.0967L16.2025 20.3716C15.4455 22.874 16.8736 25.5408 19.3761 26.2978L79.6612 44.5334C82.7893 45.4796 84.5744 48.813 83.6282 51.9411L84.3163 49.6661C85.2624 46.538 83.4773 43.2046 80.3494 42.2584Z" fill="#CA8B5F"/>
</g>
<defs>
<clipPath id="clip0_2154:2695">
<rect width="76.0547" height="76.0547" fill="white" transform="translate(22.2363 0.423828) rotate(16.83)"/>
</clipPath>
</defs>
</svg>
