<svg width="20" height="20" viewBox="0 0 20 20" fill="none" xmlns="http://www.w3.org/2000/svg">
<path d="M9.99967 0.833252C4.94792 0.833252 0.833008 4.94817 0.833008 9.99992C0.833008 15.0517 4.94792 19.1666 9.99967 19.1666C15.0514 19.1666 19.1663 15.0517 19.1663 9.99992C19.1663 4.94817 15.0514 0.833252 9.99967 0.833252ZM9.99967 2.66659C14.0606 2.66659 17.333 5.93897 17.333 9.99992C17.333 14.0609 14.0606 17.3333 9.99967 17.3333C5.93873 17.3333 2.66634 14.0609 2.66634 9.99992C2.66634 5.93897 5.93873 2.66659 9.99967 2.66659ZM9.08301 5.41659V7.24992H10.9163V5.41659H9.08301ZM9.08301 9.08325V14.5833H10.9163V9.08325H9.08301Z" fill="#44450E"/>
</svg>
