<svg width="16" height="16" viewBox="0 0 16 16" fill="none" xmlns="http://www.w3.org/2000/svg">
<circle cx="8" cy="8" r="8" fill="#A4A4A4"/>
<path d="M8.00028 9.14283C7.3697 9.14283 6.85742 8.63033 6.85742 8.00045C6.85742 7.37057 7.3697 6.85712 8.00028 6.85712C8.63085 6.85712 9.14314 7.37057 9.14314 8.00045C9.14314 8.63033 8.63085 9.14283 8.00028 9.14283Z" fill="#172B2E"/>
<path d="M4.00028 9.14283C3.3697 9.14283 2.85742 8.63033 2.85742 8.00045C2.85742 7.37057 3.3697 6.85712 4.00028 6.85712C4.63085 6.85712 5.14314 7.37057 5.14314 8.00045C5.14314 8.63033 4.63085 9.14283 4.00028 9.14283Z" fill="#172B2E"/>
<path d="M12.0003 9.14242C11.3697 9.14242 10.8574 8.62993 10.8574 8.00004C10.8574 7.37016 11.3697 6.85671 12.0003 6.85671C12.6309 6.85671 13.1431 7.37016 13.1431 8.00004C13.1431 8.62993 12.6309 9.14242 12.0003 9.14242Z" fill="#172B2E"/>
</svg>
