<svg width="95" height="64" viewBox="0 0 95 64" fill="none" xmlns="http://www.w3.org/2000/svg">
<path d="M91.9177 32.7528L80.9053 69.1573C79.4884 73.8414 74.5254 76.4991 69.8414 75.0822L9.16718 56.7283C4.48313 55.3114 1.82541 50.3484 3.24233 45.6644L14.2547 9.25983C15.6716 4.57578 20.6346 1.91807 25.3186 3.33499L85.9928 21.6889C90.6769 23.1058 93.3346 28.0688 91.9177 32.7528Z" fill="#A0B4FB"/>
<path d="M91.9155 32.7526L80.9032 69.1572C79.4862 73.8412 74.5233 76.4989 69.8392 75.082L64.9853 73.6137C69.6693 75.0306 74.6323 72.3729 76.0492 67.6889L87.0616 31.2843C88.4785 26.6003 85.8208 21.6373 81.1367 20.2204L85.9907 21.6887C90.6747 23.1056 93.3324 28.0686 91.9155 32.7526Z" fill="#8399E8"/>
<path d="M13.3105 12.3741L90.9735 35.8671L88.4529 44.1999L10.7899 20.7069L13.3105 12.3741Z" fill="#5679F8"/>
<path d="M86.1211 34.4015L90.975 35.8698L88.4554 44.1992L83.6015 42.7309L86.1211 34.4015Z" fill="#3754C0"/>
</svg>
