<svg width="19" height="17" viewBox="0 0 19 17" fill="none" xmlns="http://www.w3.org/2000/svg">
<path d="M3.38923 16.1432C1.89815 14.9377 0.828066 13.3202 0.323891 11.5099C-0.180283 9.69955 -0.0941887 7.78385 0.570513 6.02219C1.23522 4.26053 2.44641 2.73802 4.04008 1.66085C5.63374 0.583689 7.53288 0.00390513 9.48031 1.96473e-05C11.4277 -0.00386584 13.3293 0.568334 14.9276 1.63913C16.5259 2.70993 17.7437 4.22759 18.416 5.98658C19.0883 7.74558 19.1826 9.66092 18.6862 11.4732C18.1899 13.2856 17.1268 14.9073 15.6409 16.1188L12.0792 12.0727C12.7032 11.5639 13.1497 10.8828 13.3582 10.1216C13.5667 9.36045 13.5271 8.556 13.2447 7.81722C12.9623 7.07844 12.4509 6.44103 11.7796 5.99129C11.1083 5.54156 10.3096 5.30123 9.49173 5.30287C8.67381 5.3045 7.87617 5.54801 7.20683 6.00042C6.53749 6.45283 6.02879 7.09228 5.74962 7.83218C5.47044 8.57207 5.43428 9.37667 5.64603 10.137C5.85779 10.8973 6.30722 11.5767 6.93347 12.083L3.38923 16.1432Z" fill="#1C3234"/>
<path d="M3.38971 16.1436C1.69623 14.7746 0.552137 12.8798 0.154673 10.786C-0.242794 8.69212 0.131279 6.53042 1.2124 4.67356L6.01921 7.26575C5.56514 8.04563 5.40803 8.95355 5.57496 9.83296C5.7419 10.7124 6.22242 11.5082 6.93368 12.0832L3.38971 16.1436Z" fill="url(#paint0_angular_902_38845)"/>
<defs>
<radialGradient id="paint0_angular_902_38845" cx="0" cy="0" r="1" gradientUnits="userSpaceOnUse" gradientTransform="translate(9.5 9.14286) rotate(90) scale(9.14286 9.5)">
<stop offset="0.168624" stop-color="#26DFF8"/>
<stop offset="0.830119" stop-color="#F36324"/>
</radialGradient>
</defs>
</svg>
